<svg xmlns="http://www.w3.org/2000/svg" viewBox="0 0 100 100"><defs><clipPath id="a"><rect x="19.25" y="11.56" width="61.89" height="76.32" style="fill:none"/></clipPath><linearGradient id="b" x1="31.44" y1="26.63" x2="68.56" y2="26.63" gradientUnits="userSpaceOnUse"><stop offset="0" stop-color="#f8d76c"/><stop offset="1" stop-color="#ffc02e"/></linearGradient></defs><rect x="19.25" y="11.56" width="61.89" height="76.32" style="fill:#fff;stroke:#ced4da"/><g style="clip-path:url(#a)"><line x1="75.69" y1="-6.02" x2="-5.81" y2="75.48" style="fill:none;stroke:#e2e2e2;stroke-width:0.75px"/><line x1="59.21" y1="-22.5" x2="-22.29" y2="59" style="fill:none;stroke:#e2e2e2;stroke-width:0.75px"/><line x1="64.71" y1="-17.01" x2="-16.79" y2="64.49" style="fill:none;stroke:#e2e2e2;stroke-width:0.75px"/><line x1="70.2" y1="-11.51" x2="-11.3" y2="69.99" style="fill:none;stroke:#e2e2e2;stroke-width:0.75px"/><line x1="81.18" y1="-0.53" x2="-0.31" y2="80.97" style="fill:none;stroke:#e2e2e2;stroke-width:0.75px"/><line x1="86.68" y1="4.97" x2="5.18" y2="86.47" style="fill:none;stroke:#e2e2e2;stroke-width:0.75px"/><line x1="92.17" y1="10.46" x2="10.67" y2="91.96" style="fill:none;stroke:#e2e2e2;stroke-width:0.75px"/><line x1="115" y1="33.29" x2="33.5" y2="114.78" style="fill:none;stroke:#e2e2e2;stroke-width:0.75px"/><line x1="98.52" y1="16.81" x2="17.02" y2="98.31" style="fill:none;stroke:#e2e2e2;stroke-width:0.75px"/><line x1="104.01" y1="22.3" x2="22.51" y2="103.8" style="fill:none;stroke:#e2e2e2;stroke-width:0.75px"/><line x1="109.5" y1="27.79" x2="28.01" y2="109.29" style="fill:none;stroke:#e2e2e2;stroke-width:0.75px"/><line x1="120.49" y1="38.78" x2="38.99" y2="120.28" style="fill:none;stroke:#e2e2e2;stroke-width:0.75px"/><line x1="125.98" y1="44.27" x2="44.49" y2="125.77" style="fill:none;stroke:#e2e2e2;stroke-width:0.75px"/><line x1="131.48" y1="49.77" x2="49.98" y2="131.26" style="fill:none;stroke:#e2e2e2;stroke-width:0.75px"/></g><rect x="31.44" y="20.75" width="37.12" height="11.76" style="fill:url(#b)"/><circle cx="50" cy="34.73" r="5.57" style="fill:#ccc;stroke:#f5f6f9;stroke-miterlimit:10;stroke-width:0.273105424660303px"/><rect x="39.45" y="48.5" width="21.1" height="1.47" style="fill:#ccc"/><rect x="39.45" y="51.14" width="21.1" height="1.47" style="fill:#ccc"/><rect x="39.45" y="53.78" width="12.31" height="1.47" style="fill:#ccc"/><rect x="39.45" y="43.23" width="21.1" height="1.47" style="fill:#ccc"/><rect x="27.73" y="63.6" width="44.55" height="16.56" style="fill:#e2e2e2"/></svg>
