<svg id="g1" data-name="g1" xmlns="http://www.w3.org/2000/svg" width="89.019" height="110.006" viewBox="0 0 89.019 110.006">
  <path id="p1" data-name="p1" d="M1231.145,812.154c9.122-.953,20.7,2.713,20.781,18.076s-2.3,53.793-31.915,53.994-31.722-.221-40.174-7.982-11.789-29.351-1.561-30.166,28.135-6.17,28.135-6.17S1209.442,814.421,1231.145,812.154Z" transform="translate(-1162.908 -790.306)" fill="#33ccad"/>
  <path id="p2" data-name="p2" d="M1243.993,779.441a10.567,10.567,0,0,0-.527,7.309c1.186,4.03,2.542,8.16,3.846,8.515s4.623-1.6,5.986-2.607,1.245-2.312,1.422-3.912,2.015-5.156-1.126-7.823S1246.008,777.13,1243.993,779.441Z" transform="translate(-1192.401 -771.686)" fill="#fac6a6"/>
  <path id="p3" data-name="p3" d="M1258.615,791.872a59.414,59.414,0,0,1,4.426,6.362,24.948,24.948,0,0,1-6.243,2.2c-2.371.254-2.766-2.512-2.766-2.512Z" transform="translate(-1196.514 -776.809)" fill="#fac6a6"/>
  <path id="p4" data-name="p4" d="M1250.838,799.885c-.913-.13-2.491,1.772-4.862,2.8s-5.175.52-5.728,1.626-12.8,20.388-15.409,23.628-3.4,4.109-3.4,4.109,10.273,1.5,14.7,1.976,7.339,9.948,7.339,9.948,8.939-10.738,10.6-13.9,3.319-22.047,3.319-22.047Z" transform="translate(-1184.312 -779.802)" fill="#6875b5"/>
  <path id="p5" data-name="p5" d="M1236.954,809.747s-5.215,1.9-8.3,4.741-6.875,10.81-6.875,10.81-3.81-1.188-6.283-.853a3.336,3.336,0,0,0-2.963,2.134l3.911,7.049h6.52L1238.5,813.9Z" transform="translate(-1180.978 -783.502)" fill="#6875b5"/>
  <path id="p6" data-name="p6" d="M1232.467,854.592l3.318,5.45a11.687,11.687,0,0,1-4.717,5.1c-3.461,2.015-5.357,3.911-10.217,3.437s-12.327-1.541-12.327-1.541,1.422,1.185.948,2.252-.948.829-.948.829a47.617,47.617,0,0,1-1.66,13.275,70.639,70.639,0,0,1-4.741,11.735,7.006,7.006,0,0,1-4.385,0,8.487,8.487,0,0,1-3.2-2.371s2.371-32.359,4.623-36.033,2.537-5.564,10.549-4.978a110.75,110.75,0,0,0,15.177,0Z" transform="translate(-1174.238 -799.188)" fill="#1e3244"/>
  <path id="p7" data-name="p7" d="M1196.66,847.455s-19.676-.886-22.994-.767a9.742,9.742,0,0,0-7.35,3.911c-1.186,1.778-.355,3.082,0,7.23s4.979,28.922,4.979,28.922a11.29,11.29,0,0,0,7.823-.593l-1.066-26.077s11.5,3.319,15.291,3.556Z" transform="translate(-1163.442 -797.329)" fill="#1e3244"/>
  <path id="p8" data-name="p8" d="M1171.009,908.938s-5.571,4.741-7.23,6.283-2.252,3.674-1.067,4.5,4.86.118,9.246-.83,6.638-1.4,7.113-2.476-2.371-8.9-2.371-8.9Z" transform="translate(-1162.089 -820.108)" fill="#e9e8e8"/>
  <path id="p9" data-name="p9" d="M1197.6,919.384s.593,6.045,0,7.112-8.675,6.164-10.146,6.756-5.619,0-4.908-3.911,8.534-12.92,8.534-12.92Z" transform="translate(-1169.72 -823.443)" fill="#e9e8e8"/>
  <path id="p10" data-name="p10" d="M1243.24,770.016c-1.542.553-2.055,1.383-3.438,1.3s-2.45-.079-2.41.908.4.988.4.988a12.972,12.972,0,0,0-1.7,2.608c-.474,1.145-.158,1.58.672,1.778a4.847,4.847,0,0,0,2.793.711,2.578,2.578,0,0,0,1.711-1.028,14.815,14.815,0,0,0,2.923.237c.83-.118.83-1.027.909-1.264s.2.712.712,1.067,2.252,1.145,2.41,1.62.276,1.027.948.593.751-.237.948.316.843,1.778.843,1.778l3.425,4.7a26.838,26.838,0,0,0,3.358-4.94c.671-1.738.2-4.544.2-6.282s-1.938-4.854-3.084-5.684a11.049,11.049,0,0,0-5.608-1.112c-.317-.04-1.146-.711-2.015-.474" transform="translate(-1189.712 -767.793)" fill="#1e3244"/>
  <path id="p11" data-name="p11" d="M1259.99,788.518s-.036-.972.7-1.09,2.16.316,1.711,2.3-1.252,2-1.252,2a1.057,1.057,0,0,1-1.008-.936A15.133,15.133,0,0,1,1259.99,788.518Z" transform="translate(-1198.745 -775.138)" fill="#fac6a6"/>
  <path id="p12" data-name="p12" d="M1210.21,836.113a3.507,3.507,0,0,1,2.055,3.319l-7.586-.87s-1.422-.256-.592-.79,2.015-.415,2.785-.77a6.875,6.875,0,0,0-1.837-.237c-1.067,0-4.938.326-4.938.326a5.561,5.561,0,0,1,2.528-1.847C1203.888,835.006,1210.21,836.113,1210.21,836.113Z" transform="translate(-1176.319 -793.035)" fill="#fac6a6"/>
  <path id="p13" data-name="p13" d="M781.009,484.118H766.856l-2.081-12.448a2.109,2.109,0,0,0-2.022-1.606H745.4a1.862,1.862,0,0,0-1.811,2.347l2.422,13.034-.047,0,.048,0,.189,1.017,21.135.5h.007l13.67-1.33Z" transform="translate(-733.483 -433.959)" fill="#bebebd"/>
  <path id="p14" data-name="p14" d="M1256.909,801.689s6.916,4.444,9.285,7.172-1.427,14.4-3.4,19.033-17.013,6.983-19.931,6.454-8.389.211-6.886-3.8,2.056-5.257,6.2-5.752,4.708-1.134,4.708-1.134.969-1.779,2.511-1.682l5.144-.035-.28-5.665Z" transform="translate(-1190.305 -780.484)" fill="#6875b5"/>
  <path id="p15" data-name="p15" d="M1230.242,853.93l2.324,4.362s-6.01-.237-7.905-.553-5.532-.158-6.718-1.3-4.167-1.663-2.281-2.392,5.363-1.835,7.576-.65,3.22.79,3.22.79Z" transform="translate(-1181.919 -804.667)" fill="#fac6a6"/>
</svg>
