<?xml version="1.0" encoding="UTF-8"?><svg id="a" xmlns="http://www.w3.org/2000/svg" xmlns:xlink="http://www.w3.org/1999/xlink" viewBox="0 0 100 100"><defs><linearGradient id="b" x1="35.71" y1="27.1" x2="97.94" y2="27.1" gradientUnits="userSpaceOnUse"><stop offset="0" stop-color="#c7e3f9"/><stop offset="1" stop-color="#afdaf9"/></linearGradient><linearGradient id="c" x1="33.67" y1="52.19" x2="33.67" y2="81.61" gradientUnits="userSpaceOnUse"><stop offset="0" stop-color="#c7e3f9"/><stop offset=".44" stop-color="#bcdff9"/><stop offset="1" stop-color="#afdaf9"/></linearGradient><linearGradient id="d" x1="33.67" y1="51.69" x2="33.67" y2="82.11" xlink:href="#b"/></defs><circle cx="17.5" cy="27.12" r="14.69" style="fill:#ffc02e;"/><path d="M90.67,12.39H46.84c-3.61,0-6.53,2.92-6.53,6.53v4.09l-3.5,3.26c-.48,.45-.48,1.21,0,1.66l3.5,3.26v4.09c0,3.61,2.92,6.53,6.53,6.53h43.82c3.61,0,6.53-2.92,6.53-6.53V18.92c0-3.61-2.92-6.53-6.53-6.53Z" style="fill:#fff; stroke:url(#b); stroke-linecap:round; stroke-linejoin:round; stroke-width:1.5px;"/><path d="M9.83,52.19H53.66c3.61,0,6.53,2.92,6.53,6.53v4.09s3.5,3.26,3.5,3.26c.48,.45,.48,1.21,0,1.66l-3.5,3.26v4.09c0,3.61-2.92,6.53-6.53,6.53H9.83c-3.61,0-6.53-2.92-6.53-6.53v-16.36c0-3.61,2.92-6.53,6.53-6.53Z" style="fill:url(#c); stroke:url(#d); stroke-linecap:round; stroke-linejoin:round;"/><path d="M17.5,26.85c-4.19,0-7.59,3.38-7.59,9.48,0,1.19,.13,2.32,.37,3.4,2.09,1.32,4.56,2.09,7.22,2.09s5.13-.77,7.22-2.09c.24-1.07,.37-2.21,.37-3.4,0-6.1-3.4-9.48-7.59-9.48Z" style="fill:#fff;"/><circle cx="17.5" cy="22.38" r="5.31" style="fill:#fff;"/><circle cx="17.5" cy="27.12" r="14.69" style="fill:none; stroke:#ffc02e; stroke-linecap:round; stroke-linejoin:round;"/><circle cx="83" cy="66.84" r="14.69" style="fill:#ffc02e;"/><path d="M82.5,66.57c-4.19,0-7.59,3.38-7.59,9.48,0,1.19,.13,2.32,.37,3.4,2.09,1.32,4.56,2.09,7.22,2.09s5.13-.77,7.22-2.09c.24-1.07,.37-2.21,.37-3.4,0-6.1-3.4-9.48-7.59-9.48Z" style="fill:#fff;"/><circle cx="82.5" cy="62.1" r="5.31" style="fill:#fff;"/><circle cx="82.5" cy="66.84" r="14.69" style="fill:none; stroke:#ffc02e; stroke-linecap:round; stroke-linejoin:round;"/></svg>