<svg id="coupon" xmlns="http://www.w3.org/2000/svg" viewBox="0 0 120 120"><defs><style>.cls-1{fill:#ffc02e;}.cls-2{fill:#e4e4e4;}.cls-3{fill:#fff;}.cls-4{fill:#1e3244;}.cls-5{fill:none;stroke:#acb3b9;stroke-miterlimit:10;stroke-width:0.5px;stroke-dasharray:3;}</style></defs><path id="ppp" class="cls-1" d="M13.47,44.63,4,46l.58-4.88Zm3-5.92-4.55-8.45L8.33,33.64ZM19.57,27l3,9.09,1.92-9.39Z"/><path id="_172" data-name="172" class="cls-2" d="M111.18,84.59,26.45,90.82a2.15,2.15,0,0,1-2.34-1.95,1.77,1.77,0,0,1,0-.23V50a2.59,2.59,0,0,1,2.35-2.53l84.73-6.23a2.17,2.17,0,0,1,2.34,2,1.69,1.69,0,0,1,0,.23V82.06A2.58,2.58,0,0,1,111.18,84.59Z"/><path id="_173" data-name="173" class="cls-3" d="M113.67,87.08,29,93.32a2.17,2.17,0,0,1-2.35-2,1.69,1.69,0,0,1,0-.23V52.46A2.57,2.57,0,0,1,29,49.93l84.72-6.23A2.16,2.16,0,0,1,116,45.65a1.77,1.77,0,0,1,0,.23V84.55A2.56,2.56,0,0,1,113.67,87.08Z"/><path id="_500" data-name="500" class="cls-1" d="M50.82,56.78l-4.07,7.27,2.6-.19v1.49L46,65.6v1.58l3.39-.25v1.49L46,68.66v3.15L42.9,72V68.89l-3.37.25V67.65l3.39-.25V65.82l-3.39.25V64.58L42,64.4l-4-6.68,3.54-.26,2.89,5.62,2.89-6Zm2.11-.14,7.76-.57v2.87l-4.83.36-.18,2.09a7,7,0,0,1,1.1-.17,4.3,4.3,0,0,1,3.37.89c.7.67,1,1.67,1,3.54s-.3,2.94-1,3.73a5.47,5.47,0,0,1-3.72,1.49c-3.06.22-4.51-1-4.65-4l3.31-.64c.12,1.29.52,1.8,1.4,1.73s1.18-.62,1.18-1.9c0-1.67-.32-2.15-1.32-2.08a1.62,1.62,0,0,0-1.38.9l-2.61-.34Zm9.69,4.77c0-2.19.28-3.37,1-4.34a4.56,4.56,0,0,1,3.71-1.73c1.93-.14,3.07.27,3.89,1.41.6.85.84,1.93.84,4V64c0,2.19-.28,3.37-1,4.34a4.51,4.51,0,0,1-3.71,1.73c-1.94.14-3.07-.27-3.89-1.41-.6-.85-.84-1.93-.84-4Zm6-.16c0-2.49-.25-3.13-1.23-3.06s-1.24.75-1.24,3.25v2.71c0,2.49.26,3.13,1.24,3.06s1.23-.75,1.23-3.24Zm4.81-.63c0-2.19.28-3.37,1-4.34a4.56,4.56,0,0,1,3.7-1.73c1.94-.14,3.07.27,3.89,1.41.6.85.84,1.93.84,4V63.2c0,2.19-.28,3.37-1,4.34a4.56,4.56,0,0,1-3.71,1.73c-1.93.14-3.07-.27-3.89-1.41-.6-.85-.83-1.93-.83-4Zm6-.16c0-2.49-.25-3.13-1.23-3.06s-1.24.75-1.24,3.24v2.72c0,2.49.26,3.13,1.24,3.06s1.23-.75,1.23-3.25Z"/><path id="cp" class="cls-4" d="M44.56,82.53A2.61,2.61,0,0,1,44,84.29a3.48,3.48,0,0,1-2.48,1,2.69,2.69,0,0,1-2.56-.8,3.4,3.4,0,0,1-.56-2.32V80.29A3.53,3.53,0,0,1,39,77.74a3.14,3.14,0,0,1,2.42-1,2.63,2.63,0,0,1,2.51.81,2.57,2.57,0,0,1,.44,1.57l-1.9.26c-.08-.75-.37-1-1-1-.83.06-1.06.48-1.06,1.93v1.53c0,1.45.22,1.83,1.06,1.77s1.06-.38,1.15-1.16Zm1-2.82a3.49,3.49,0,0,1,.7-2.55,3.36,3.36,0,0,1,2.52-1,2.83,2.83,0,0,1,2.65.8,3.3,3.3,0,0,1,.57,2.3v1.91a3.51,3.51,0,0,1-.7,2.56,3.36,3.36,0,0,1-2.52,1,2.86,2.86,0,0,1-2.65-.79,3.34,3.34,0,0,1-.57-2.31Zm4.37-.15c0-1.45-.24-1.82-1.15-1.76s-1.15.48-1.15,1.93v1.58c0,1.44.24,1.82,1.15,1.75s1.15-.48,1.15-1.92Zm5.6-3.78V81c0,1.32.2,1.59,1.08,1.53s1.07-.38,1.07-1.68V75.63l2.07-.16v5.18A3.49,3.49,0,0,1,59.19,83a3.26,3.26,0,0,1-2.62,1.15c-1.4.1-2.22-.18-2.75-.9a3.6,3.6,0,0,1-.4-2.14V75.94Zm5.68,2.79a3.48,3.48,0,0,1,.7-2.55,3.36,3.36,0,0,1,2.52-1,2.84,2.84,0,0,1,2.65.8,3.34,3.34,0,0,1,.57,2.31V80a3.48,3.48,0,0,1-.7,2.55,3.36,3.36,0,0,1-2.52,1,2.84,2.84,0,0,1-2.65-.8,3.31,3.31,0,0,1-.57-2.31Zm4.37-.16c0-1.44-.25-1.82-1.15-1.75s-1.15.48-1.15,1.92v1.58c0,1.45.24,1.82,1.15,1.76s1.15-.48,1.15-1.93Zm5.63,4.53-2.07.15V74.78l2.9-.21c1.27-.1,1.92,0,2.4.5A2.57,2.57,0,0,1,75,77.14a2.8,2.8,0,0,1-.76,2.22A3.4,3.4,0,0,1,72,80.1l-.82.06Zm.84-4.5c.73-.06,1-.35,1-1.19s-.24-1.1-1-1l-.88.07v2.24Zm4.09-4.17,2-.15,2.54,4.66V73.93l2-.15v8.31l-2,.15L78.1,77.58v4.85l-2,.15Z"/><line id="line" class="cls-5" x1="95.56" y1="45.19" x2="95.56" y2="88.68"/></svg>