<svg xmlns="http://www.w3.org/2000/svg" width="78.582" height="64.262" viewBox="0 0 78.582 64.262">
  <g id="g1" data-name="g1" transform="translate(-852.251 -466.358)">
    <path id="p1" data-name="p1" d="M10.309,0s.914,4.56.509,6.633a5.853,5.853,0,0,0,0,3.068A81.065,81.065,0,0,1,21.193,6.633c3.56-.581,6,1.492,4.374,3.068s-17.292,6.882-23.9,5.97S10.309,0,10.309,0Z" transform="translate(882.188 507.553) rotate(7)" fill="#f8eae0"/>
    <path id="p2" data-name="p2" d="M-10366.936-1572.073a25.353,25.353,0,0,1,.346,5.54,5.95,5.95,0,0,0,0,2.562,47.882,47.882,0,0,1,7.063-2.562c2.424-.485,4.086,1.246,2.979,2.562s-11.771,5.747-16.273,4.986S-10366.936-1572.073-10366.936-1572.073Z" transform="translate(11278.481 2063.557)" fill="#e8d2c3"/>
    <path id="p3" data-name="p3" d="M26.3,0S12.743,15.723,7.682,18.977-3.343,24.4,2.261,25.3s6.6,0,10.889-2.349,9.353-9.4,11.162-13.916S28.016.27,26.3,0Z" transform="translate(866.593 494.274) rotate(34)" fill="#f8eae0"/>
    <path id="p4" data-name="p4" d="M4.4,5.423S1.75,1.1,1.043.124-.9,4.1,1.043,7.544C1.75,8.6,2.2,9.31,2.2,9.31L3.956,19.327S18.208,24.6,14.734,13.285c0,0,4.064-1.766,4.859-5.741s1.678-5.211-.264-6.271-2.827.442-3.357.884-1.856,1.566-1.856,1.566S6.784,4.805,4.4,5.423Z" transform="matrix(0.951, 0.309, -0.309, 0.951, 908.907, 466.358)" fill="#f8eae0"/>
    <path id="p5" data-name="p5" d="M.039,8.428S-.049,1.186.039.214,3.13,1.8,3.66,3.482s0,4.946,0,4.946S1.1,9.4.039,8.428Z" transform="matrix(0.951, 0.309, -0.309, 0.951, 916.382, 468.043)" fill="#e8d2c3"/>
    <path id="p6" data-name="p6" d="M.2.031C-.042.123-.2,1.038.537,1.1S2.184.427,1.756.245A3.335,3.335,0,0,0,.2.031Z" transform="matrix(0.951, 0.309, -0.309, 0.951, 926.552, 472.559)" fill="#707070"/>
    <g id="g2" data-name="g2" transform="translate(873.822 480.368)">
      <path id="p7" data-name="p7" d="M945.3,1016.68c-1.856,7.211,1.227,8.346.952,11.19-.82,7.724-4.786,15.582-10.392,18.614-7.464,4.036-17.331,9.333-24.416,7.693s-12.995-3.611-10.468-11.562,9.245-10.268,23.288-13.926l9.1-9.379S947,1010.18,945.3,1016.68Z" transform="translate(-900.384 -1014.344)" fill="#f8eae0"/>
    </g>
    <path id="p8" data-name="p8" d="M-10367.405-1574.932s1.1,7.3.822,9.033a5.97,5.97,0,0,0,0,2.562,47.863,47.863,0,0,1,7.063-2.562c2.423-.485,4.086,1.246,2.978,2.562s-11.771,5.747-16.272,4.986S-10367.405-1574.932-10367.405-1574.932Z" transform="translate(11287.024 2067.81)" fill="#f8eae0"/>
  </g>
</svg>
