<svg xmlns="http://www.w3.org/2000/svg" viewBox="0 0 100 100"><polygon points="23.46 79.75 23.46 18.57 60.2 18.57 75.62 33.98 75.62 79.75 23.46 79.75" style="fill:#fff"/><path d="M60,19,75.18,34.17V79.31H23.9V19H60m.36-.88H23V80.19h53V33.81Z" style="fill:#c9ced6"/><polygon points="60.38 33.8 76.06 33.8 60.38 18.13 60.38 33.8" style="fill:#c9ced6"/><line x1="33.76" y1="46.1" x2="65.57" y2="46.1" style="fill:none;stroke:#c9ced6;stroke-linecap:round;stroke-miterlimit:10;stroke-width:2px"/><line x1="33.76" y1="38.1" x2="65.31" y2="38.1" style="fill:none;stroke:#c9ced6;stroke-linecap:round;stroke-miterlimit:10;stroke-width:2px"/><line x1="33.76" y1="54.47" x2="65.57" y2="54.47" style="fill:none;stroke:#c9ced6;stroke-linecap:round;stroke-miterlimit:10;stroke-width:2px"/><line x1="33.76" y1="62.85" x2="65.57" y2="62.85" style="fill:none;stroke:#c9ced6;stroke-linecap:round;stroke-miterlimit:10;stroke-width:2px"/><rect x="65.91" y="68.6" width="17.33" height="9.21" transform="translate(1.37 147.78) rotate(-90)" style="fill:#fbbd3e"/><path d="M74.14,53.15,64.73,64.56a.57.57,0,0,0,.44.93H84a.57.57,0,0,0,.44-.93L75,53.15A.56.56,0,0,0,74.14,53.15Z" style="fill:#fbbd3e"/></svg>