<svg xmlns="http://www.w3.org/2000/svg" width="84.147" height="146.149" viewBox="0 0 84.147 146.149">
  <g id="g1" data-name="g1" transform="translate(12.028 -3.396) rotate(9)">
    <path id="p1" data-name="p1" d="M1292.434,421.388c-3.63-.591-9.068,4.5-8.057,10.2s3.178,9.319,6.253,9.452,9.156-2.071,9.156-8.621S1298.182,422.324,1292.434,421.388Z" transform="translate(-1262.032 -418.711)" fill="#ffd4b7"/>
    <path id="p2" data-name="p2" d="M1272.381,417.4c-1.326,1.126-4.11.468-4.662,2.272s-1.888,5.264-1.487,6.675a5.493,5.493,0,0,1,.293,2.089s.657-3.77,2.087-5.488,1.786-1.214,1.786-1.214,3.444-1.46,4.218-.391c0,0,3.78-1.069,5.117,3.342s.752,1.424,1.8,4.612a7.3,7.3,0,0,1-1.1,6.081,9.98,9.98,0,0,1,2.049.993,4.375,4.375,0,0,1,1.337,1.682s4-2.406,3.533-4.277a13.637,13.637,0,0,1,2.539,2.139,5.522,5.522,0,0,0,0-4.411c-1.069-2.139-1.136-3.876-2.138-5.748,0,0,2.839,1.938,3.057,2.573a4.427,4.427,0,0,0,1.154,1.4,10.367,10.367,0,0,0-1.938-5.18c-1.738-2.139-3.844-2.54-4.061-3.476s-3.358-3.609-6.432-4.277S1273.717,416.263,1272.381,417.4Z" transform="translate(-1244.451 -416.394)" fill="#333233"/>
    <path id="p3" data-name="p3" d="M1281.552,438.249s-.037-1.178.862-1.315,2.616.4,2.058,2.8-1.53,2.415-1.53,2.415a1.281,1.281,0,0,1-1.214-1.136A18.456,18.456,0,0,1,1281.552,438.249Z" transform="translate(-1245.214 -426.056)" fill="#ffd4b7"/>
    <path id="p4" data-name="p4" d="M1287.135,452.45s.134,4.345-.6,5.08-.668.334-.668.334a37.963,37.963,0,0,0,2.473,3.409,24.4,24.4,0,0,0,4.143-3.342c1.337-1.537,2.005-1.671,2.005-1.671s-.8-.4-1.671-2.874-1.336-4.144-1.336-4.144Z" transform="translate(-1257.401 -431.862)" fill="#ffd4b7"/>
    <path id="p5" data-name="p5" d="M1296.153,664.568l-6.756-1.474-2.12,10.159,5.269,2.891Z" transform="translate(-1261.27 -534.597)" fill="#ffd4b7"/>
    <path id="p6" data-name="p6" d="M1239.071,631.642l5.514,6.316-3.609,4.11-7.218-5.714Z" transform="translate(-1179.93 -517.752)" fill="#ffd4b7"/>
    <path id="p7" data-name="p7" d="M1261.759,526.421a65.839,65.839,0,0,1-9.089,2.406,53.426,53.426,0,0,1-9.357.669s-1.069,6.015-1.47,9.891-1.337,7.218,1.871,14.837,18.045,26.333,18.045,26.333,2.808,8.02,3.743,11.362c0,0,6.55-.669,12.03-9.357,0,0-2.807-3.341-3.743-4.277s-2.673-.4-2.673-.4,0-4.946-2.005-7.352-9.644-16.308-9.644-16.308Z" transform="translate(-1216.92 -468.205)" fill="#e9e8e8"/>
    <path id="p8" data-name="p8" d="M1258.731,594.446s4.946-11.587,6.951-14.452c0,0,2.273-11.836,2.273-14.453s2.673-20.806,4.946-25.415l9.089-13.7s5.213,7.973,6.282,11.338-.8,13.58-1.738,17.94-4.277,17.193-4.277,17.193-4.812,23.173-6.951,29.029c0,0-6.283-3.489-8.822-4.236A76.772,76.772,0,0,1,1258.731,594.446Z" transform="translate(-1237.151 -468.205)" fill="#e9e8e8"/>
    <path id="p9" data-name="p9" d="M1282.733,461.951c2.782-.175,8.322,0,8.322,0s.321,25.664,3.569,36.128l-16.936,3.963-6.149-20.286,4.143-16.147A10.8,10.8,0,0,1,1282.733,461.951Z" transform="translate(-1249.958 -437.81)" fill="#fff"/>
    <path id="p10" data-name="p10" d="M1252.9,460.611s-3.234,1.4-3.822,6.015a44.747,44.747,0,0,0,0,11.295c.347,2.54,9.7,22.59,9.7,22.59l10.694-5.079s-6.149-7.485-9.09-11.9c0,0,.918-13.835-.6-16.508S1258.252,462.415,1252.9,460.611Z" transform="translate(-1212.745 -437.215)" fill="#002466" style="isolation: isolate"/>
    <path id="p11" data-name="p11" d="M1307.224,464.021s-4.959,13.634-3.983,19.65,5.684,20.852,5.684,20.852a74.948,74.948,0,0,1-8.584,1.738c-.134-1.337-.8-21.12-.8-21.12s-1.337-3.208,0-9.491,3.7-9.223,3.7-9.223Z" transform="translate(-1278.761 -438.821)" fill="#002466" style="isolation: isolate"/>
    <path id="p12" data-name="p12" d="M1334.078,516.821c-2.94,4.144-9.49,12.432-11.094,14.3a15.334,15.334,0,0,0-3.208,6.817c-.535,2.54,2.674,3.208,4.411,2.139s2.711-6.817,2.711-6.817,10.162-8.156,11.993-12.432Z" transform="translate(-1319.716 -463.684)" fill="#ffd4b7"/>
    <path id="p13" data-name="p13" d="M1203.726,508.85s9.357,9.425,11.5,11.435,4.277,5.906,6.683,6.535,5.347,1.005,6.683.628,1.554-2.64-3.609-3.9a25.4,25.4,0,0,1,3.208.251c1.6.553,1.638-.616.852-.884-1.265-.432-2.456-.624-3.659-1a14.772,14.772,0,0,1-5.614-3.769c-1.6-1.885-4.946-9.048-10.025-11.938Z" transform="translate(-1148.996 -458.688)" fill="#ffd4b7"/>
    <path id="p14" data-name="p14" d="M1239.021,463.827c1.427-1.047,3.476,1.871,5.28,4.678a105.537,105.537,0,0,0,7.419,9.825c2.406,2.807,4.077,4.678,6.817,7.82,0,0-1.012,3.619-3.007,4.678s-2.74.935-2.74.935-6.483-7.892-9.424-10.563-4.385-2.47-5.1-4.81S1236.013,466.033,1239.021,463.827Z" transform="translate(-1195.719 -438.627)" fill="#002466" style="isolation: isolate"/>
    <path id="p15" data-name="p15" d="M1321.844,468.568s-3.653.969-4.3,2.473-7.861,20.953-7.861,20.953,5.613,4.946,8.872,7.185Z" transform="translate(-1297.364 -440.962)" fill="#002466" style="isolation: isolate"/>
    <path id="p16" data-name="p16" d="M1228.865,639.591l-1.767,6.22a29.561,29.561,0,0,1-1.1,7.72c-1.1,3.409-.6,5.714,2.406,4.211s4.712-8.321,6.115-10.427.05-3.709-1.754-4.611A15.538,15.538,0,0,1,1228.865,639.591Z" transform="translate(-1166.051 -521.495)" fill="#ffd4b7"/>
    <path id="p17" data-name="p17" d="M17.435,6.783s-1.054,4.661-2.658,5.965-5.213-2.306-8.02-3.71S-2,2.555.675.216c1.482-1.3,11.5,3.676,11.5,3.676Z" transform="matrix(0.951, -0.309, 0.309, 0.951, 12.666, 136.228)" fill="#ffd4b7"/>
    <path id="p18" data-name="p18" d="M1231.619,645.881s-2.283,9.282-4.957,10.912-2.205-.3-2.205-.3-1.207,2.707-.536,4.244,2.742.935,4.279,0,4.745-8.874,4.745-8.874,2.072-3.357,1.4-4.159A11.59,11.59,0,0,0,1231.619,645.881Z" transform="translate(-1164.513 -524.457)" fill="#002466" style="isolation: isolate"/>
    <path id="p19" data-name="p19" d="M17.011,9.85a4.223,4.223,0,0,1-1.786,3.073c-1.6.9-3.475-.1-4.612-.9S3.8,7.877,2.126,5.8-.882.828.722.175,5.184.906,5.184.906s-3.326.22-.786,2.76S13.851,10.086,17.011,9.85Z" transform="matrix(0.951, -0.309, 0.309, 0.951, 12.186, 136.2)" fill="#002466" style="isolation: isolate"/>
  </g>
</svg>
