<svg id="main_illustration" xmlns="http://www.w3.org/2000/svg" viewBox="0 0 405.04 215.27"><defs><style>.cls-1{fill:#2e2f2f;}.cls-2{fill:#002466;}.cls-3{fill:#fff;}.cls-4{fill:#fac6a6;}.cls-5{fill:#2a3c68;}.cls-6{fill:#915d45;}.cls-7{fill:#f9c7a4;}.cls-8{fill:#839fa4;}.cls-9{fill:none;stroke:#fff;stroke-miterlimit:10;}.cls-10{fill:#ffd4b7;}.cls-11{fill:#e45764;}.cls-12{fill:#1e3244;}.cls-13{fill:#f5f6f9;}.cls-14{fill:#d8d4d0;}.cls-15{fill:#eae6e4;}.cls-16{fill:#c9c9c9;}.cls-17{fill:#33ccad;}.cls-18{fill:#6875b5;}.cls-19{fill:#e9e8e8;}.cls-20{fill:#bebebd;}.cls-21{fill:#333233;}.cls-22{fill:#0c0f10;}.cls-23{fill:#f8eae0;}.cls-24{fill:#e8d2c3;}.cls-25{fill:#707070;}</style></defs><g id="_117" data-name="117"><g id="_910" data-name="910"><path id="345" data-name="345" class="cls-1" d="M268.33,69.13s8.33.84,9.28,3.38-3.39,36.11-3.39,36.11l-3.1,3.22-4.51-18.46Z"/><path id="324" data-name="324" class="cls-2" d="M272,147.91a31.85,31.85,0,0,1,.18,5.17c-.22,1.38-1.72,2.25-4.43,2.83s-4.88,2.7-8.07,1.83-2.27-3.28,0-4.92,4.51-2.66,7.6-6.17Z"/><path id="325" data-name="325" class="cls-2" d="M285.79,146.84a50.59,50.59,0,0,0-.46,11.2c.41,4.56,6.5,4.93,7.24,1.73a26.07,26.07,0,0,0,.3-10.11c-.85-5.41-2.22-5.92-2.22-5.92Z"/><path id="326" data-name="326" class="cls-1" d="M274.82,94.57c.11,5-.2,27.27-.74,35.81s-.39,18.65-.39,18.65c-2.4.84-9.43-.9-9.43-.9s-.07-4.36.44-12.42-.45-29.44-.3-41.57c.1-8.7.51-21.54,2.71-26.7l8.81.9Z"/><path id="327" data-name="327" class="cls-1" d="M275.94,81.43s4.55,24.78,5.19,32.68,1.47,29.21,2.29,34.91c0,0,4.34,1.82,10.61-.91,0,0-.64-16.34-2-25.85-1.57-10.15-.45-10.71-.64-16.22-.27-7.76.15-19.52-.9-29.67S287.79,65,287.79,65l-11.69,4Z"/><path id="328" data-name="328" class="cls-3" d="M283.28,77.69a102.21,102.21,0,0,1-12.12-.42,17.92,17.92,0,0,1-6.27-1.92s1.65-8.78,2.15-14.63a109.71,109.71,0,0,0-.27-16.3c-.31-5.36-1.36-7.5.34-9.66s6.55-3.57,12.41-3.43,11.69,2,13.32,5.39-.07,11.94-2.53,18.44-1.07,6.44-.41,11.89l1,8.27S288.57,77.69,283.28,77.69Z"/><path id="329" data-name="329" class="cls-4" d="M294.39,50.88s2,7,.78,10.56c-.72,2.08-4.57,2.76-6.67-1.44S294.39,50.88,294.39,50.88Z"/><path id="330" data-name="330" class="cls-3" d="M293,37s2.21,7,3.91,14.75a15.29,15.29,0,0,1-10.15,3.3L285,46.32S288.25,33.36,293,37Z"/><path id="332" data-name="332" class="cls-4" d="M282.31,25.39s-.78,4.41.21,6l1.64.41s-2.38,3.38-5.26,3.18-4.07-.29-5.07-2.24,0-.24,1.32-2.11.76-5,.76-5Z"/><path id="218" data-name="218" class="cls-4" d="M270.62,20.32c.78,7.31,4.89,9.87,9.27,8.76,5.15-1.31,7-7.94,6.28-13.19s-5-7.9-10.25-6.56C273.52,9.94,269.78,12.3,270.62,20.32Z"/><path id="333" data-name="333" class="cls-4" d="M263.54,45.35s-4.37,8-5.09,11c-1.56,6.45,2.39,5.47,4.58,3.62,1.9-1.61,6.71-9.74,5.39-12.55Z"/><path id="334" data-name="334" class="cls-3" d="M270.59,32.55c-3.86.28-6.11,6.71-7.67,9.44a54.16,54.16,0,0,0-2.9,6.17,5,5,0,0,0,3.48,2.69c2.83.82,8.3-3.4,8.3-3.4s.67-9.93.09-11.72A25,25,0,0,0,270.59,32.55Z"/><path id="338" data-name="338" class="cls-4" d="M281.48,46.82c-1.75-1.18-4.21-1.27-6.37-1.88a12.16,12.16,0,0,0-6.58.23c-1.93.62-2.1,1.95-.79,1.93s4.37-.66,4.92-.68c0,0-.76.18-.63,1.5s.88,1.72,2,2.24a2.94,2.94,0,0,0,2.82-.09s1.79.15,3.27.23c0,0,5.95,8.13,8.79,10.87,4.27,4.13,9.56.68,3.48-5.64C285.3,48.16,281.48,46.82,281.48,46.82Z"/><path id="339" data-name="339" class="cls-5" d="M265.49,54l4.4,1.28c.89.26,1.72-.57,1.68-1.66l-.29-8.57a1.67,1.67,0,0,0-1.07-1.57l-4.4-1.29c-.89-.26-1.72.57-1.69,1.67l.3,8.56A1.67,1.67,0,0,0,265.49,54Z"/><path id="340" data-name="340" class="cls-4" d="M265.19,51.68a33.74,33.74,0,0,0,3.89-.27c2-.26,3.27-1.07,2.88.58,0,0,0,.47.14,1.57s.62,1.85-1.1,2.9-3.61.06-4.57.86-4.87,6.87-7,5-.8-4,3.44-8.28c1.41-1.43.53-1.93,1.52-3.49Z"/><path id="342" data-name="342" class="cls-1" d="M276.06,16.58c-4.36-.25-5.75-.2-5.75-.2a13.54,13.54,0,0,1,1.56-6.72c1.82-3.6,14.17-6.72,16.71,3.72s-4.77,12.74-4.77,12.74l.15-8.87S280.61,16.88,276.06,16.58Z"/><path id="343" data-name="343" class="cls-4" d="M283.68,20.34s.22-1.17,1.18-1.12,2.61.93,1.51,3.18-2.11,2.07-2.11,2.07a1.3,1.3,0,0,1-1-1.37A18.22,18.22,0,0,1,283.68,20.34Z"/><path id="344" data-name="344" class="cls-1" d="M287.72,4.13c-.91-4-7.09-4-8.56-1.66s-1.8,8.35,2.68,9.28S288.62,8.17,287.72,4.13Z"/></g></g><g id="_118" data-name="118"><path id="214" data-name="214" class="cls-6" d="M245.63,68.31c-.74-4.87-1.52-4.07-2.38-8.14-.61-2.88,2.43-1,1-8.36-1-5.16-4.18-5.83-4.08-11.71.07-4-2.06-12.14-10.19-12.83a10.33,10.33,0,0,0-10.64,5.64c-1.66,3-2.8,5-1.9,11.13,1.5,2.4-1.27,3.31-2.16,7s1.5,2.39-2.68,7.07-.88,8.59,4.84,15.12,8.86,5.52,15.54,5.58S246.55,74.37,245.63,68.31Z"/><path id="223" data-name="223" class="cls-7" d="M233.07,50.11a24.21,24.21,0,0,1-.22-4.58c-6.18-1.07-6.09,1.06-6.07,4.58a6.08,6.08,0,0,1-.1,1.2A15.75,15.75,0,0,0,233.07,50.11Z"/><g id="823" data-name="823"><g id="822" data-name="822"><path id="215" data-name="215" class="cls-8" d="M214.81,156.67c5.32,0,14.1-1.43,15-6s-8.66-7.19-15-6.82"/><path id="216" data-name="216" class="cls-8" d="M214.81,156.67c-5.31,0-14.1-1.43-15-6s8.66-7.19,15-6.82"/></g><rect id="256" data-name="256" class="cls-8" x="213.11" y="106.78" width="3.41" height="40.15"/></g><path id="217" data-name="217" class="cls-9" d="M218.69,100.61a57.06,57.06,0,0,0-13.31-.75c-7.67.43-9.9,2-9.9,2"/><path id="218-2" data-name="218-2" class="cls-10" d="M226.58,29.45c5.27-.78,9.14,2.18,9.32,7.29s-2.33,11.28-7.47,12c-4.39.64-8.13-2.21-8.13-9.29C220.3,31.7,224.19,29.8,226.58,29.45Z"/><path id="407" data-name="407" class="cls-6" d="M231,32.38s2.85,6,3,9.22a7.49,7.49,0,0,0,2.08,4.95l4-6.5-1.53-6.83Z"/><path id="219" data-name="219" class="cls-10" d="M216.48,56.79c-2,1.22-12.57,9.57-16.2,12.25s-9.95,4.81-15.79,7.74,1.4,4.85,10.34,1.55,20.36-11.49,20.36-11.49,4.42-3,4.18-5.55S218.17,55.77,216.48,56.79Z"/><path id="220" data-name="220" class="cls-11" d="M235.25,87c-2-2.13-7.67-2.87-11.5-3.24s-8.31-.86-10.55.1-3.51,4.21-7.5,7-6.34,1.38-8.89,5.37-3.41,7.19-3,8.42,1.87,5.16,10.7,6.39a101.29,101.29,0,0,0,21.67.32c2.68-.25,5.7-.76,6.13-2.29S237.62,89.47,235.25,87Z"/><path id="221" data-name="221" class="cls-12" d="M219.19,85.32c4.68,1.77,10,4.46,9.85,6.8-.13,2.56-.31,9-5.93,11.37s-26.85-16-26.85-16,13.55,2,16.85-1.57C215.07,83.71,219.19,85.32,219.19,85.32Z"/><path id="222" data-name="222" class="cls-12" d="M238.6,58.31c-1.06-3.41-2.87-3.52-4.47-5.33a5.93,5.93,0,0,1-1.06-2.87h0a15.56,15.56,0,0,1-6.39,1.2c-.45,2.4-2.42,2.71-5.11,3.27a20.35,20.35,0,0,0-6.2,2.91.9.9,0,0,0-.36,1l1,3a13.87,13.87,0,0,0-3.94,6c-1.27,3.84,2.67,5.22,2.71,7.57s-5.23,12.24-5.23,12.24,7,1.17,11.84,2.45a37.58,37.58,0,0,1,7.6,2.9c.75-2.65.57-5.39,1.4-8.76,1.17-4.74,7.34-16.29,7.34-16.29S239.67,61.72,238.6,58.31Z"/><path id="224" data-name="224" class="cls-13" d="M204.13,102c-7.17-1-29.74-3.61-29.81-9.81s15.12-5.34,24.24-4.2,12.29-.36,16,4.13.84,8.23-1.27,9.4S206.38,102.35,204.13,102Z"/><path id="227" data-name="227" class="cls-13" d="M211.48,103.51c-7.83-1.43-32.68-3.4-32.4-10S196,88.67,206,90.39s13.54.3,17.36,5.26,1.77,6.73-.62,7.86S213.94,104,211.48,103.51Z"/><path id="235" data-name="235" class="cls-6" d="M228.2,31.68s4,5.82,4.85,8.3,2.52,1.43,3.81,0,2.28-6.85-.92-8.66-5-2.81-7-3-7.16,1.88-7.84,3.36-3.18,5.35-3.37,7.9.76,3,.76,3L220,36.88s0-.57.88-1.22C223.42,32.34,225.7,31.6,228.2,31.68Z"/><path id="236" data-name="236" class="cls-10" d="M232.35,39.14s0-1.53,1.19-1.65,3.35.69,2.48,3.75-2.14,3-2.14,3a1.66,1.66,0,0,1-1.49-1.54A23.77,23.77,0,0,1,232.35,39.14Z"/><path id="239" data-name="239" class="cls-14" d="M202.4,48.91c-.18-.32-2-1.65-2.17-1.38a10,10,0,0,0,0,3.92l2.17.27Z"/><path id="240" data-name="240" class="cls-15" d="M202.1,50a16.2,16.2,0,0,1,.12-3.41c.26-.95,3,1.74,3.52,3.41a40.92,40.92,0,0,0,3.65,4.45c1.21,1.08,3.51,3.11,4.05,5a28.6,28.6,0,0,0,.94,2.84,9.87,9.87,0,0,1,2.3,3.1A12.22,12.22,0,0,1,218,70.61s2.43,5.67,1.62,9.85a5.77,5.77,0,0,1-4.05,4.87S214.79,87,214,87a1.49,1.49,0,0,1-1.21-.82s.12,1.22-.68.82-1.21-2.16-.4-2.71A10.21,10.21,0,0,0,213.17,83s.14-2.29-1.48-2.56a2.21,2.21,0,0,0-2.29.81l-.82,3a3.78,3.78,0,0,1,0,1.89c-.27.81-1.21,1.25-1.48.89,0,0-.95.47-1.49.13,0,0-2.16.06-1.62-1a3.33,3.33,0,0,1,1.62-1.48s1.62-8.1.95-10.13a26.91,26.91,0,0,0-2.43,3.65c-.81,1.62-1.2,7.56-2,8s-3.11.81-4.19,0,.4-2.56,1.89-2.43c0,0,.95-8,1.62-10.93,0,0-2-4.59-1.35-8.1a16.21,16.21,0,0,1,1.49-4.86l-.95-1.62a17.81,17.81,0,0,1-2.3.27c-.81,0-2.29-1.89-2.43-2.84s1.35-1.76,1.35-1.76.41-2.83,1.35-3.24A19.08,19.08,0,0,1,202.1,50Z"/><path id="241" data-name="241" class="cls-10" d="M199.55,82.08c-1.26-.68-3-2.48-2.29-3.74a6.65,6.65,0,0,1,.92-1.62,4.61,4.61,0,0,1,6.17,2.11l0,0c1.22,2.77-2.67,3.22-2.67,3.22A3.3,3.3,0,0,1,199.55,82.08Z"/><path id="225" data-name="225" class="cls-13" d="M186.38,122.44c-.23-6.7,1.48-13.3-.74-20.1-2.73-8.33-5.41-17.07-11.09-15.66-3.45.86-1.69,8.76-.26,15,1,4.42,3.92,14.72,5.77,21.8A18.37,18.37,0,0,0,186.38,122.44Z"/><path id="229" data-name="229" class="cls-13" d="M207.44,124.45l-.16-.22c-5.2-7.24-5.63-16.36-11.8-23.2S183,87,178.2,90.79c-2.91,2.33,2.16,9.16,6.2,14.54,3.63,4.82,14.18,17.4,18,22.55A8.27,8.27,0,0,0,207.44,124.45Z"/><path id="264" data-name="264" class="cls-16" d="M219.5,86.82H199.06l-3-18a3.06,3.06,0,0,0-2.92-2.32H168.06a2.69,2.69,0,0,0-2.71,2.67,2.84,2.84,0,0,0,.09.72l3.5,18.83h0l.27,1.47,30.53.72h0L219.5,89Z"/><path id="245" data-name="245" class="cls-10" d="M230.56,66c1.61-1.31,5.64-1.35,6.24.42S231.73,83.92,226.94,87s-12.76.66-17.83-1.22-8.36-2.35-9.86-4,.86-3,6-2.45,13.95,2.67,16.23,2.13S228.27,67.88,230.56,66Z"/><path id="226" data-name="226" class="cls-10" d="M186.9,127a26.87,26.87,0,0,1-.51-4.57,18.37,18.37,0,0,1-6.32,1c.76,2.91,1.34,5.28,1.55,6.46.69,4.08,1,4.7.91,8.85a16.34,16.34,0,0,1-1.91,7.5c-.79,1.75-.31,4.12,1.91,4.18s2.83-5.88,4.29-8.1,2.38-.26,2.93-4.1S188.62,135.31,186.9,127Z"/><path id="230" data-name="230" class="cls-10" d="M214.81,133.82c-1.11-3.9-2.31-2.39-7.37-9.37a8.19,8.19,0,0,1-5,3.43c.44.59.8,1.09,1.05,1.46,2.41,3.62,2.73,4.37,2.73,8.31s-1.7,8.73-1.7,10.75,1.07,2.78,3.19,1.87,5.65-8.47,6.08-11.24S215.94,137.75,214.81,133.82Z"/><path id="242" data-name="242" class="cls-12" d="M213.55,131.23a6.13,6.13,0,0,1,1.64,2.23,37,37,0,0,0,2.36,4l-1,1.85s-1.73-1.56-2.37-1.21-.87,4-2.21,7.31-4.46,6.4-6.52,5.66-.6-4.44,0-7.57c0,0-.35,2.83,1.21,1.91S211.53,139.58,213.55,131.23Z"/><path id="243" data-name="243" class="cls-12" d="M189.18,133.3s1.09.21,1.93,2.18a43.83,43.83,0,0,0,2.06,4l-1.48,1.73-1.17-1.11s-1,.44-2,3.92a14.32,14.32,0,0,1-6.09,7.64c-1.7.79-3.37.6-2.85-1.69a39.5,39.5,0,0,1,1.06-3.87s0,3.15,2.73.05S189.18,133.3,189.18,133.3Z"/></g><g id="_119" data-name="119"><path id="_392" data-name="392" class="cls-17" d="M132.76,91.87c9.3-1,21.09,2.77,21.17,18.42s-2.34,54.82-32.52,55-32.33-.23-40.94-8.14-12-29.91-1.6-30.74,28.68-6.29,28.68-6.29S110.64,94.18,132.76,91.87Z"/><path id="_393" data-name="393" class="cls-4" d="M115.79,77.51a10.81,10.81,0,0,0-.54,7.45c1.21,4.1,2.6,8.31,3.92,8.67s4.72-1.63,6.1-2.65,1.27-2.36,1.45-4,2.05-5.26-1.15-8S117.85,75.15,115.79,77.51Z"/><path id="_394" data-name="394" class="cls-4" d="M126.5,85A60.45,60.45,0,0,1,131,91.44s-3.95,2-6.36,2.24-2.82-2.56-2.82-2.56Z"/><path id="_395" data-name="395" class="cls-18" d="M131,90.07c-.93-.13-2.54,1.81-4.95,2.85s-5.27.53-5.84,1.66-13,20.78-15.7,24.08-3.46,4.19-3.46,4.19,10.47,1.53,15,2S123.52,135,123.52,135s9.11-11,10.8-14.17,3.38-22.47,3.38-22.47Z"/><path id="_396" data-name="396" class="cls-18" d="M120.26,96.35s-5.31,1.93-8.45,4.83-7,11-7,11-3.88-1.21-6.4-.87a3.41,3.41,0,0,0-3,2.18l4,7.18H106l15.83-20.11Z"/><path id="_397" data-name="397" class="cls-12" d="M122.56,126.07l3.38,5.55a11.91,11.91,0,0,1-4.81,5.2c-3.53,2.06-5.46,4-10.41,3.5s-12.57-1.57-12.57-1.57,1.45,1.21,1,2.3-1,.85-1,.85a48.26,48.26,0,0,1-1.69,13.52,71.59,71.59,0,0,1-4.83,12,7.12,7.12,0,0,1-4.47,0A8.65,8.65,0,0,1,83.9,165s2.42-33,4.71-36.72,2.59-5.67,10.75-5.07a114.09,114.09,0,0,0,15.47,0Z"/><path id="_398" data-name="398" class="cls-12" d="M97.07,120.69s-20.06-.9-23.44-.78a10,10,0,0,0-7.49,4c-1.21,1.82-.36,3.14,0,7.37s5.08,29.48,5.08,29.48a11.53,11.53,0,0,0,8-.6L78.1,133.56s11.72,3.38,15.59,3.63Z"/><path id="_399" data-name="399" class="cls-19" d="M72.3,160.13s-5.67,4.84-7.37,6.4-2.3,3.75-1.08,4.59,4.95.12,9.42-.84,6.77-1.42,7.25-2.53-2.42-9.07-2.42-9.07Z"/><path id="_400" data-name="400" class="cls-19" d="M91.63,167.38s.6,6.16,0,7.25-8.84,6.28-10.34,6.88-5.72,0-5-4S85,164.36,85,164.36Z"/><path id="_401" data-name="401" class="cls-12" d="M117.77,71.87c-1.58.56-2.1,1.41-3.5,1.33s-2.5-.08-2.46.93.4,1,.4,1a13.64,13.64,0,0,0-1.73,2.66c-.49,1.17-.16,1.61.68,1.81a5,5,0,0,0,2.85.73,2.6,2.6,0,0,0,1.74-1,14.92,14.92,0,0,0,3,.24c.85-.12.85-1,.93-1.29s.2.73.72,1.09,2.3,1.17,2.46,1.65.28,1,1,.6.76-.24,1,.32.86,1.82.86,1.82l3.49,4.79a27.27,27.27,0,0,0,3.42-5c.69-1.77.2-4.63.2-6.4s-2-4.94-3.14-5.79a11.27,11.27,0,0,0-5.71-1.13c-.33,0-1.17-.73-2.06-.48"/><path id="_343-2" data-name="343-2" class="cls-4" d="M125.63,83.24s0-1,.72-1.11,2.2.32,1.74,2.34-1.27,2-1.27,2a1.08,1.08,0,0,1-1-1A15.08,15.08,0,0,1,125.63,83.24Z"/><path id="_406" data-name="406" class="cls-4" d="M97.75,113.51a3.57,3.57,0,0,1,2.09,3.38L92.11,116s-1.45-.26-.6-.8,2.06-.43,2.84-.79a7.38,7.38,0,0,0-1.87-.24c-1.09,0-5,.33-5,.33A5.67,5.67,0,0,1,90,112.62C91.31,112.38,97.75,113.51,97.75,113.51Z"/><path id="_432" data-name="432" class="cls-20" d="M111.65,120.72H97.22L95.1,108A2.15,2.15,0,0,0,93,106.4H75.36a1.89,1.89,0,0,0-1.91,1.89,1.67,1.67,0,0,0,.06.5L76,122.08h0l.19,1,21.54.51h0l13.93-1.36Z"/><path id="_402" data-name="402" class="cls-18" d="M131.09,91.21s7,4.53,9.46,7.31-1.45,14.68-3.46,19.4-17.33,7.12-20.31,6.58-8.55.22-7-3.87,2.1-5.36,6.32-5.87,4.8-1.15,4.8-1.15,1-1.81,2.56-1.71l5.24,0-.29-5.77Z"/><path id="_405" data-name="405" class="cls-4" d="M112.46,119.81l2.37,4.45s-6.13-.25-8.06-.57-5.63-.16-6.84-1.33-4.25-1.7-2.33-2.44,5.47-1.87,7.72-.66,3.29.81,3.29.81Z"/></g><g id="_116" data-name="116"><g id="_938" data-name="938"><path id="_363" data-name="363" class="cls-10" d="M350.17,47.31c-3.72-1.23-10.31,3.23-10.19,9.4s1.79,10.36,5,11,10-.65,11.09-7.55S356.08,49.25,350.17,47.31Z"/><path id="_364" data-name="364" class="cls-21" d="M347.29,45c-1.59,1-3.42.81-5,2.15s-2.91,4-2.71,5.53a24.66,24.66,0,0,0,.49,2.81s.92-3.37,2.71-4.95,1.72-1.31,1.72-1.31,3.88-1,4.51.29c0,0,4.17-.49,4.84,4.38s.56,1.63,1.14,5.17-2.19,6.23-2.19,6.23a10.67,10.67,0,0,1,2,1.39,4.59,4.59,0,0,1,1.13,2s4.62-1.87,4.44-3.92a14.15,14.15,0,0,1,2.32,2.68,5.91,5.91,0,0,0,.74-4.65c-.77-2.44-.55-4.28-1.29-6.42,0,0,2.67,2.52,2.79,3.22a4.82,4.82,0,0,0,1,1.68,11.07,11.07,0,0,0-1.18-5.79c-1.47-2.55-3.63-3.32-3.7-4.35s-2.94-4.37-6.07-5.58S348.89,44,347.29,45Z"/><path id="_236-2" data-name="236-2" class="cls-10" d="M354.74,58.67s.16-1.3,1.17-1.29,2.78.89,1.76,3.41-2.09,2.36-2.09,2.36a1.41,1.41,0,0,1-1.13-1.44A20.58,20.58,0,0,1,354.74,58.67Z"/><path id="_365" data-name="365" class="cls-10" d="M346.09,66.68s-.61,4.76-1.54,5.43-.78.25-.78.25a40.27,40.27,0,0,0,2.11,4.14A26.52,26.52,0,0,0,351,73.58c1.73-1.45,2.48-1.48,2.48-1.48s-.81-.58-1.33-3.42-.74-4.75-.74-4.75Z"/><path id="_366" data-name="366" class="cls-10" d="M332.82,186.82l-7.12-2.77-4.06,10.71,5.25,4.06Z"/><path id="_367" data-name="367" class="cls-10" d="M362,173.48l4.92,7.84-4.64,3.86-6.89-7.48Z"/><path id="_368" data-name="368" class="cls-19" d="M356.06,110.31a71.47,71.47,0,0,1-10.33,1,58.43,58.43,0,0,1-10.31-.88,41.11,41.11,0,0,0-3.31,8.11c-1.11,4.16-.49,6.87,1.69,15.73s12.91,35,12.91,35,1.68,9.23,2.12,13c0,0,7.26.4,14.73-8.13,0,0-2.48-4.12-3.34-5.31s-2.85-.89-2.85-.89.86-5.4-.91-8.37-7.7-19.44-7.7-19.44Z"/><path id="_369" data-name="369" class="cls-19" d="M319,180.46s7.39-11.78,10.07-14.56c0,0,7.46-13.33,7.91-16.18s3.57-21.41,6.84-26l12.42-16.2s4.25,7.22,4.84,11.08-4.44,16.8-6.22,21.39S348.33,161,348.33,161s-9.25,24.43-12.59,30.44c0,0-6.25-4.89-8.89-6.14A84,84,0,0,1,319,180.46Z"/><path id="_370" data-name="370" class="cls-3" d="M348.79,71.08c3.06.29,9.07,1.43,9.07,1.43s-4.08,28-2.34,40l-19.15,1.39-3.2-23.17,7.3-16.89A11.9,11.9,0,0,1,348.79,71.08Z"/><path id="_371" data-name="371" class="cls-2" d="M357,71.54s-3.77,1-5.2,5.9a48.88,48.88,0,0,0-1.95,12.31c-.06,2.83,6.67,26.31,6.67,26.31l12.54-3.7s-5.41-9.22-7.86-14.54c0,0,3.39-14.92,2.19-18.1S362.49,74.43,357,71.54Z"/><path id="_372" data-name="372" class="cls-2" d="M343.91,71.49s-7.77,14-7.74,20.73,2.59,23.72,2.59,23.72a84,84,0,0,1-9.65.41c.08-1.48,2.77-23.16,2.77-23.16s-.9-3.73,1.64-10.35,5.63-9.42,5.63-9.42Z"/><path id="_373" data-name="373" class="cls-10" d="M323.71,99.51c-3.92,4-12.49,11.91-14.57,13.68a16.94,16.94,0,0,0-4.67,6.88c-1,2.67,2.36,4,4.44,3.09s4.13-7,4.13-7,12.49-7.14,15.22-11.49Z"/><path id="_374" data-name="374" class="cls-10" d="M368.24,103.24s8.57,11.88,10.55,14.45,3.65,7.18,6.16,8.28,5.66,2,7.18,1.84,2.15-2.61-3.26-4.87a28.84,28.84,0,0,1,3.45.82c1.65.88,1.89-.39,1.08-.81-1.31-.69-2.57-1.11-3.82-1.72a16.42,16.42,0,0,1-5.47-5.08c-1.42-2.33-3.82-10.72-8.86-14.75Z"/><path id="_375" data-name="375" class="cls-2" d="M360.08,74.05c1.74-.9,3.47,2.64,4.95,6a117.63,117.63,0,0,0,6.39,12c2.14,3.48,3.64,5.81,6.09,9.71,0,0-1.73,3.77-4.09,4.58s-3.15.55-3.15.55-5.7-9.73-8.45-13.15-4.35-3.45-4.73-6.12S356.42,75.93,360.08,74.05Z"/><path id="_376" data-name="376" class="cls-2" d="M339.15,73.42s-4.15.43-5.11,2-12.19,21.48-12.19,21.48,5.27,6.37,8.43,9.37Z"/><path id="_377" data-name="377" class="cls-10" d="M365.32,178.7l-3,6.47a32.86,32.86,0,0,1-2.54,8.23c-1.79,3.53-1.64,6.13,1.9,5s6.57-8.26,8.47-10.31.69-4-1.12-5.33A17.11,17.11,0,0,1,365.32,178.7Z"/><path id="_378" data-name="378" class="cls-10" d="M327.69,194.19s-.34,5.27-1.87,7-6.08-1.61-9.38-2.66-10.67-5.55-8.15-8.56c1.39-1.67,13.16,2,13.16,2Z"/><path id="_384" data-name="384" class="cls-2" d="M369.42,183.07s-4.09,9.72-7.29,11-2.35-.71-2.35-.71-1.78,2.74-1.32,4.54,2.83,1.49,4.67.74,6.71-8.86,6.71-8.86,2.83-3.3,2.24-4.29A12.69,12.69,0,0,0,369.42,183.07Z"/><path id="_385" data-name="385" class="cls-2" d="M327.24,197.5a4.64,4.64,0,0,1-1.42,3.65c-1.59,1.27-3.8.49-5.18-.19s-8.15-3.33-10.33-5.31-4.14-4.9-2.5-5.89,5,0,5,0-3.59.81-.38,3.14S323.84,198.3,327.24,197.5Z"/></g></g><g id="_121" data-name="121"><path id="_348" data-name="348" class="cls-3" d="M26.54,60.42c-4.24-.79-12.76,1.27-15.43,2.68s-2,9-1.93,11.65S7.77,96,7.92,97.83c-.59,2-1.48,2.38-1.93,4.6a12.79,12.79,0,0,0,0,4.45s-.82,4-.52,5.56a7.5,7.5,0,0,0,1.19,2.75S23.58,116.3,29,116s7.27-1.56,7.72-2.38-.3-5.41-1-6.82-.37-4.83-.44-7.94,1-17.07,1.61-22.93,2-9.42,0-11.06A23.11,23.11,0,0,0,26.54,60.42Z"/><path id="_349" data-name="349" class="cls-4" d="M22.09,54.4s.52,4.52-.45,5.18a11.25,11.25,0,0,1-2.53,1.19s2.39,3.06,4.54,3.65,4.6.44,5.71-.59a3.37,3.37,0,0,0,1.11-2.3A7.35,7.35,0,0,1,28.17,60c-.37-.67-.37-4.38-.37-4.38Z"/><path id="_218-3" data-name="218-3" class="cls-4" d="M25.49,39c5.34-.75,9.27,2.14,9.45,7.13s-2.36,11-7.58,11.77c-4.45.62-8.25-2.17-8.25-9.09C19.11,41.18,23.06,39.33,25.49,39Z"/><path id="_350" data-name="350" class="cls-4" d="M41,90.69s-.46,11.71-1.61,16.19-6.08,11.36-6.08,11.36L34,90.68Z"/><path id="_351" data-name="351" class="cls-3" d="M37.48,65.68a41.47,41.47,0,0,1,4.24,10.74c1.44,6.12,2.89,15.36,2.89,15.36a7.16,7.16,0,0,1-4.9,2.27,38.12,38.12,0,0,1-6.23,0s-.56-19.3.67-23.3S37.48,65.68,37.48,65.68Z"/><path id="_352" data-name="352" class="cls-2" d="M19.94,114.08s.48,18.25,1.35,26.41S24,151,23.06,158.89s.89,19.74,1.63,22.56c0,0-1.34,1.78-.89,3a3.14,3.14,0,0,0,.89,1.48,7.32,7.32,0,0,0-.74,2.23c0,.74.74,4.15.74,4.15a8.43,8.43,0,0,0,7-1.48s.3-8.61.74-10.83,1.93-21.6,2.53-26.68,1.18-27.93,0-39.21Z"/><path id="_353" data-name="353" class="cls-2" d="M23.24,114.08s-3.9,30.23-5.12,35.24-1.89,5.9-2,7.79.45,15.69,0,21.26-1,10.24-1,10.24a34.22,34.22,0,0,1-7,0s.44-5,0-6.68-.33-2.11,0-2.78a4.33,4.33,0,0,0-.29-2.56c-.6-1-1.49-12-1.6-17s-2-24.11,1.4-46.37Z"/><path id="_354" data-name="354" class="cls-22" d="M25.13,190.73s-.44,6.67,1.34,7.34,5.34,2.67,8.35,2.67,6-.11,5.79-1.67S30,189.83,30,189.83Z"/><path id="_355" data-name="355" class="cls-22" d="M14.42,187.39s.74,5.34,0,7-4.53,2-7.65,3.23-7.46,2.44-6.68,0,9.8-10.24,9.8-10.24Z"/><path id="_356" data-name="356" class="cls-3" d="M11.11,63.1c-4.34,1.8-5.95,9.27-7.44,14.09A62,62,0,0,0,1.7,85s.24.58,3.23.69a69.79,69.79,0,0,1,8.15,1.15Z"/><rect id="_292" data-name="292" class="cls-2" x="15.35" y="68.7" width="11.88" height="7.09" rx="1" transform="translate(-53.61 80.15) rotate(-79.61)"/><path id="_357" data-name="357" class="cls-12" d="M24.48,35.07a3,3,0,0,1,3.28-.65c2.16.72,6.56,1.53,7.28,5s3.76,8.88,2.56,9.76-5.64,1.2-6.42-1.36-3.66-7.28-5.26-7.36a4.08,4.08,0,0,0-4.25,1.12c-1.84,2-1.44,6.16-1.44,6.16l-2.72-1.44s-.56-6.88,1.2-9.12A6.33,6.33,0,0,1,24.48,35.07Z"/><path id="_236-3" data-name="236-3" class="cls-4" d="M20.78,46.27S21,45,20,44.75s-2.86.12-2.55,2.77,1.35,2.78,1.35,2.78a1.4,1.4,0,0,0,1.45-1.08A20.93,20.93,0,0,0,20.78,46.27Z"/><path id="_358" data-name="358" class="cls-4" d="M14.56,82c.49-.93,1.43-1,2.29-1.58a24.58,24.58,0,0,0,2.26-1.94l1.65-.19a6.74,6.74,0,0,0,2.19.16c.84-.16-.83-1.09-1.31-1.18S19.35,77,19.35,77a15.9,15.9,0,0,1,3.73-1.25c1.36-.31,1.33-1.13.78-1.23a34.64,34.64,0,0,0-4.6.91,16.19,16.19,0,0,0,2.23-.94c.37-.27,3.08-1.1,3-1.49s-1.35-.12-2,0S19,74,19,74a5.74,5.74,0,0,1,1.15-.82c.62-.33,2.35-.89,2.9-1.53s-.65-.5-1.57-.29S17,72.75,16.17,73.51A44.23,44.23,0,0,0,12,78.34l-3.18,2.9c-1.63,1.7-8.19,5.6-7,9.44S9.25,92.11,14.56,82Z"/></g><g id="_120" data-name="120"><path id="_793" data-name="793" class="cls-23" d="M132.22,177.09s.28,3.76-.25,5.38a4.76,4.76,0,0,0-.3,2.47,66.7,66.7,0,0,1,8.65-1.44c2.92-.12,4.68,1.79,3.21,2.9s-14.58,3.83-19.81,2.44S132.22,177.09,132.22,177.09Z"/><path id="_792" data-name="792" class="cls-24" d="M147.72,163.05a20.47,20.47,0,0,1,.28,4.49,4.82,4.82,0,0,0,0,2.07,38.66,38.66,0,0,1,5.72-2.07c2-.4,3.31,1,2.42,2.07s-9.54,4.66-13.19,4S147.72,163.05,147.72,163.05Z"/><path id="_410" data-name="410" class="cls-23" d="M129,177.23s-16.23,4.42-21.11,4.31-9.86-1.35-6.5,1.79,4.43,3,8.37,3.36,10.55-2.08,13.81-4.29S130,178.18,129,177.23Z"/><path id="_409" data-name="409" class="cls-23" d="M147.61,148s-1-4-1.26-4.93-2.49,2.58-1.85,5.72c.27,1,.44,1.65.44,1.65l-1.15,8.16s9.66,7.64,9.82-2c0,0,3.57-.34,5.18-3.21s2.6-3.59,1.37-4.9-2.29-.36-2.81-.16l-1.82.75S149.61,148.09,147.61,148Z"/><path id="_411" data-name="411" class="cls-24" d="M149.56,150.56s1.74-5.61,2.06-6.33,2,2,2,3.42a11.68,11.68,0,0,1-1.24,3.81S150.13,151.57,149.56,150.56Z"/><path id="_412" data-name="412" class="cls-25" d="M160,147.79c-.21,0-.56.67,0,.9s1.44-.1,1.15-.35A2.69,2.69,0,0,0,160,147.79Z"/><g id="_1251" data-name="1251"><path id="_790" data-name="790" class="cls-23" d="M153.55,155.93c-1.5,5.85,1,6.77.77,9.07-.66,6.26-3.88,12.63-8.42,15.09-6.05,3.27-14.05,7.56-19.79,6.23s-10.53-2.93-8.48-9.37,7.49-8.32,18.87-11.29l7.38-7.6S154.93,150.66,153.55,155.93Z"/></g><path id="_791" data-name="791" class="cls-23" d="M154.26,164.18s.89,5.91.67,7.32a4.82,4.82,0,0,0,0,2.07,38.66,38.66,0,0,1,5.72-2.07c2-.4,3.31,1,2.42,2.07s-9.54,4.66-13.19,4S154.26,164.18,154.26,164.18Z"/></g></svg>