<svg xmlns="http://www.w3.org/2000/svg" viewBox="0 0 100 100"><path d="M29.54,58.65v5.52c0,.4-1.36,1.59-3.58,1.59h-.74V25.93l5,2.1H38.7L41,25.36l5.07,3.87a4.25,4.25,0,0,1-2.45,1.19v31.3c-.06.46-2.11,1.6-3.64,1.6h-.69V58.65Zm0-29V42.26h9.73V29.63ZM39.27,57V43.91H29.54V57ZM74.78,28.32a4.28,4.28,0,0,1-2.39,1.14V69.4c0,3.48-.74,5.58-7.17,6.26a4.62,4.62,0,0,0-1.53-3.24c-1-.8-2.68-1.31-5.81-1.76v-.91s7.17.51,8.59.51c1.2,0,1.54-.34,1.54-1.37V55H53.73c-1.37,8-5.18,15.48-15.25,20.77L37.79,75c10.42-7.91,12.3-18,12.3-29.82V24.9L55.21,27H67.44l2.11-2.73ZM68,53.24V41.63H54.41v3.53A62.44,62.44,0,0,1,54,53.24ZM54.41,28.6V40H68V28.6Z" style="fill:#1b3143"/></svg>