<svg xmlns="http://www.w3.org/2000/svg" viewBox="0 0 100 100"><polygon points="17.15 35.21 21.86 35.21 21.86 38.49 17.15 35.21" style="fill:#900"/><polygon points="20.39 84.9 20.39 15.1 62.31 15.1 79.9 32.69 79.9 84.9 20.39 84.9" style="fill:#fff"/><path d="M62.1,15.6,79.4,32.9V84.4H20.9V15.6H62.1m.41-1H19.9V85.4H80.4V32.49L62.51,14.6Z" style="fill:#ced4da"/><polygon points="62.51 32.48 80.4 32.48 62.51 14.6 62.51 32.48" style="fill:#ced4da"/><rect x="17.15" y="21.48" width="30.71" height="13.73" style="fill:#c00"/><path d="M24.5,29.6v2.61H22.64V24.48h2.91c1.78,0,2.93.79,2.93,2.51s-1.13,2.61-2.93,2.61Zm.72-1.55c1,0,1.4-.29,1.4-1.06s-.43-1-1.4-1H24.5v2Z" style="fill:#fff"/><path d="M29.82,32.21V24.48H32.7c1.76,0,3,.86,3,3.3V28.9c0,2.42-1.29,3.31-3,3.31Zm4.07-3.31V27.78c0-1-.23-1.75-1.19-1.75h-1v4.63h1C33.66,30.66,33.89,30,33.89,28.9Z" style="fill:#fff"/><path d="M42.37,24.48V26h-3v1.59H42v1.54H39.35v3.05H37.49V24.48Z" style="fill:#fff"/><line x1="30.67" y1="43.09" x2="69.91" y2="43.09" style="fill:none;stroke:#ced4da;stroke-linecap:round;stroke-miterlimit:10;stroke-width:2px"/><line x1="30.67" y1="52.64" x2="69.91" y2="52.64" style="fill:none;stroke:#ced4da;stroke-linecap:round;stroke-miterlimit:10;stroke-width:2px"/><line x1="30.67" y1="62.2" x2="69.91" y2="62.2" style="fill:none;stroke:#ced4da;stroke-linecap:round;stroke-miterlimit:10;stroke-width:2px"/><line x1="30.67" y1="71.75" x2="69.91" y2="71.75" style="fill:none;stroke:#ced4da;stroke-linecap:round;stroke-miterlimit:10;stroke-width:2px"/></svg>