<svg id="period" xmlns="http://www.w3.org/2000/svg" viewBox="0 0 120 120"><defs><style>.cls-1{fill:#e4e4e4;}.cls-2,.cls-4{fill:#fff;}.cls-3{fill:#ffc02e;}.cls-4{stroke:#e4e4e4;stroke-width:2px;}.cls-5{fill:#1e3244;}.cls-6{fill:none;}.cls-7{fill:#f9b923;}</style></defs><path id="パス_152" data-name="パス 152" class="cls-1" d="M110.1,40.16,90.88,51.33l-.14,49.07L110,89.22Z"/><path id="パス_285" data-name="パス 285" class="cls-2" d="M55.27,30.78l-.14,49.06L90.74,100.4l.14-49.07Z"/><path id="パス_286" data-name="パス 286" class="cls-3" d="M74.5,19.6,55.27,30.78V39.1l35.6,20.56V51.33L110.1,40.16Z"/><path id="パス_287" data-name="パス 287" class="cls-4" d="M40.25,93.89,11.88,78.5l-2-1.33L12,76.07A117.41,117.41,0,0,0,27,66.5C37,58.94,43.2,51.36,45,44.56l.49-1.84,1.61,1L80.47,64.23l1,.63L81,66A56.8,56.8,0,0,1,72.16,79.9a79.76,79.76,0,0,1-8.86,8.77,96.77,96.77,0,0,1-8.5,6.44C49.7,98.56,40.25,93.89,40.25,93.89Z"/><g id="グループ_799" data-name="グループ 799"><path id="パス_157" data-name="パス 157" class="cls-5" d="M55.32,69a11.24,11.24,0,0,1-2.46.07c-.13.35-.13.6,0,.7s.39,0,.95-.43a2.18,2.18,0,0,0,.34,1c-1.07.61-1.6.59-2.36.09a1.32,1.32,0,0,1-.49-1.61,15.58,15.58,0,0,1-3-.78,3.06,3.06,0,0,0,.15-1.13,14.12,14.12,0,0,0,3.25,1,7.41,7.41,0,0,1,.69-1.06l-1.61-.88.67-.74,1.55.86.15-.18L52,65.24l.67-.7,1.13.63L54,65l-1.32-.74a11,11,0,0,1-6.92,2.27,3,3,0,0,0-.2-1.14,7,7,0,0,0,2.87-.3,5,5,0,0,0-.16-.84,4.1,4.1,0,0,1-.7.12,4.61,4.61,0,0,0-.3-1.16A9.32,9.32,0,0,0,50.73,62l-.83-.54.88-.75,3.41,2.24-.75.64,1.27.73c.32-.32.67-.63,1-.93l1.25.83c-.32.26-.66.55-1,.84l.95.55a4.7,4.7,0,0,0-.36-.9h1.24a3.66,3.66,0,0,1,.51,1.2h-.84l.42.24-.68.7-1.95-1.1-.18.18,1.78,1-.66.69-1.75-1-.14.17,2,1.12-.66.71L55,68.24Zm-5.09-5.34-.65.25c.09.22.16.45.23.67q.48-.24,1-.54Zm2,0,.55.58.5-.52L52,62.78l-.55.3.58.38Zm1.54,4-.35.5a9.48,9.48,0,0,0,1.19,0Z"/><path id="パス_158" data-name="パス 158" class="cls-5" d="M62,68c-.49.22-1,.48-1.43.75a4.69,4.69,0,0,1,2.86.63c1.25.82,1.33,2.26-.17,3.56-1.9,1.63-4.34,1.45-7.07.16l.14-1.33c2.19,1.09,3.91,1.57,5.49.22,1-.87,1-1.56.43-2-1-.66-3-.2-3.88.54a6.47,6.47,0,0,0-.59.58l-1.37-.8a8.43,8.43,0,0,1,1-1,20.51,20.51,0,0,1,2.36-1.67,8.44,8.44,0,0,0,.83-.61Z"/><path id="パス_159" data-name="パス 159" class="cls-3" d="M37.18,70.2l.86.56c1.05.7,1.8.74,2.47.17s.57-1,0-1.4a1.8,1.8,0,0,0-2.15.06l-2.6-2c2-1.51,4.18-1.4,6.83.34s3,3.35,1.19,4.87a3.65,3.65,0,0,1-3.12,1c.49,1.2.27,2-.85,2.91-2,1.72-4.28,1.66-7.06-.17-1.77-1.17-2.66-2.3-2.64-3.41a2.6,2.6,0,0,1,1.08-2l3.19,1.7c-.76.83-.71,1.41.15,2a1.75,1.75,0,0,0,2.25-.17c.8-.69.69-1.5-.33-2.17l-1.06-.7Z"/><path id="パス_160" data-name="パス 160" class="cls-3" d="M47.38,75.14,45,74.4l.85-2.2,5.13,1.54,2,1.34-9.59,8.24-3.12-2.06Z"/><path id="パス_161" data-name="パス 161" class="cls-5" d="M57.56,84.52l-5.92,5.09-1.38-.91.44-.38-3.64-2.4-.45.38-1.31-.87,5.92-5.09Zm-5.87,3L53,86.34l-3.65-2.4L48,85.07Zm-.14-5.41-1.23,1L54,85.51l1.23-1.05Z"/></g><line id="線_175" data-name="線 175" class="cls-6" x1="101.25" y1="52.73" x2="103.28" y2="51.55"/><line id="線_176" data-name="線 176" class="cls-6" x1="97.56" y1="54.87" x2="99.37" y2="53.82"/><path id="パス_288" data-name="パス 288" class="cls-1" d="M48.89,92.28a8,8,0,0,0,5.92,2.82s-3.7,3.64-13.3-.65C41.51,94.45,46.41,94.61,48.89,92.28Z"/><g id="gr"><g id="グループ_796-2" data-name="グループ 796-2"><path id="パス_152-2" data-name="パス 152-2" class="cls-7" d="M110.1,40.16,90.88,51.33v8.33L110.1,48.49Z"/></g></g></svg>