<svg xmlns="http://www.w3.org/2000/svg" viewBox="0 0 100 100"><circle cx="50.02" cy="50.02" r="24.75" style="fill:#ffe14c"/><path d="M32.75,32.33a24.86,24.86,0,0,1,35,.45L32.32,67.29A24.86,24.86,0,0,1,32.75,32.33Z" style="fill:#ffd72d"/><path d="M51,30.93h-.72a19.07,19.07,0,0,1-.5,38.12h.7A19.1,19.1,0,0,0,51,30.86Z" style="fill:#ffec91"/><path d="M31.62,49.77A19.09,19.09,0,0,1,50.27,31h-.7a19.1,19.1,0,0,0-1.22,38.18h1.42A19.1,19.1,0,0,1,31.62,49.77Z" style="fill:#e2b815"/><path d="M49.29,55.58V64H43.8V39.6h8.61c6.15,0,9.22,2.58,9.22,7.78A7.47,7.47,0,0,1,59,53.3a10.43,10.43,0,0,1-7,2.26Zm0-11.75v7.59h2.15c2.94,0,4.39-1.28,4.39-3.84s-1.47-3.77-4.39-3.75Z" style="fill:#91715c"/><path d="M48.32,54.63V63H42.83V38.66h8.61c6.15,0,9.22,2.57,9.22,7.77A7.46,7.46,0,0,1,58,52.37a10.43,10.43,0,0,1-7,2.26Zm0-11.75v7.53h2.26c2.94,0,4.39-1.29,4.39-3.84s-1.47-3.76-4.39-3.76Z" style="fill:#fff"/><path d="M13.27,33.43C12,30.31,10.93,29.26,7.82,28c3.11-1.29,4.16-2.34,5.45-5.45,1.29,3.11,2.34,4.16,5.45,5.45-3.11,1.28-4.16,2.33-5.45,5.46" style="fill:#ffc02e"/><path d="M37.38,92.23c-1.3-3.12-2.34-4.16-5.46-5.45,3.12-1.3,4.16-2.34,5.46-5.46,1.29,3.12,2.33,4.16,5.45,5.46-3.12,1.29-4.16,2.33-5.45,5.45" style="fill:#ffc02e"/><path d="M85.68,22.08a6.4,6.4,0,0,0-4.26-4.26,6.37,6.37,0,0,0,4.26-4.25,6.33,6.33,0,0,0,4.25,4.25,6.41,6.41,0,0,0-4.25,4.26" style="fill:#ffc02e"/></svg>