<svg id="present" xmlns="http://www.w3.org/2000/svg" viewBox="0 0 120 120"><defs><style>.cls-1{fill:#ffc02e;}.cls-2{fill:#fff;}.cls-3{fill:#f2b9cd;}.cls-4{fill:#eee;}.cls-5{fill:#ff7e7e;}.cls-6{fill:#f1f1f1;}.cls-7{fill:#f56e6e;}</style></defs><g id="kr"><path id="パス_208" data-name="パス 208" class="cls-1" d="M7.8,59c-1.29-3.12-2.34-4.17-5.45-5.46,3.11-1.29,4.16-2.34,5.45-5.45,1.29,3.11,2.34,4.16,5.45,5.45C10.14,54.82,9.09,55.87,7.8,59"/><path id="パス_291" data-name="パス 291" class="cls-1" d="M32.75,108.88c-1.3-3.12-2.34-4.16-5.46-5.45,3.12-1.3,4.16-2.34,5.46-5.46,1.29,3.12,2.33,4.16,5.45,5.46-3.12,1.29-4.16,2.33-5.45,5.45"/><path id="パス_283" data-name="パス 283" class="cls-1" d="M103.84,108.88c-1.29-3.12-2.33-4.16-5.45-5.45,3.12-1.3,4.16-2.34,5.45-5.46,1.29,3.12,2.34,4.16,5.46,5.46-3.12,1.29-4.17,2.33-5.46,5.45"/><path id="パス_289" data-name="パス 289" class="cls-1" d="M98.32,22C97,18.91,96,17.87,92.86,16.57,96,15.28,97,14.24,98.32,11.12c1.29,3.12,2.33,4.16,5.45,5.45-3.12,1.3-4.16,2.34-5.45,5.46"/><path id="パス_292" data-name="パス 292" class="cls-1" d="M113.4,37.57a6.38,6.38,0,0,0-4.26-4.26,6.39,6.39,0,0,0,4.26-4.25,6.37,6.37,0,0,0,4.25,4.25,6.39,6.39,0,0,0-4.25,4.26"/></g><g id="gg"><g id="グループ_845-2" data-name="グループ 845-2"><path id="パス_266" data-name="パス 266" class="cls-2" d="M61,96.27,29.89,78.2,29.8,46.76,33.69,49l3.89,2.26,3.88,2.26,3.89,2.26,3.89,2.26,3.88,2.25L57,62.57l3.88,2.26v3.93l0,3.93V96.27Z"/></g><g id="グループ_846" data-name="グループ 846"><path id="パス_267" data-name="パス 267" class="cls-3" d="M60.89,64.83,29.8,46.76,63.21,27.48,94.3,45.54Z"/></g><g id="グループ_847" data-name="グループ 847"><path id="パス_268" data-name="パス 268" class="cls-4" d="M94.3,45.54,94.39,77,61,96.27l-.09-31.44Z"/></g><path id="パス_269" data-name="パス 269" class="cls-5" d="M73.3,89.16l8.47-4.89V51.4L73.3,56.29Z"/><path id="パス_270" data-name="パス 270" class="cls-5" d="M49.23,57.14l-7.77-4.51v32.3l7.77,4.51Z"/><g id="グループ_848" data-name="グループ 848"><path id="パス_271" data-name="パス 271" class="cls-2" d="M60.4,73,27.2,53.66l0-8.24,33.2,19.29Z"/></g><g id="グループ_849" data-name="グループ 849"><path id="パス_272" data-name="パス 272" class="cls-6" d="M60.38,64.71,27.18,45.42,63.79,24.28,97,43.58Z"/></g><g id="グループ_850" data-name="グループ 850"><path id="パス_273" data-name="パス 273" class="cls-4" d="M97,43.58l0,8.24L60.4,73l0-8.24Z"/></g><g id="グループ_852" data-name="グループ 852"><path id="パス_274" data-name="パス 274" class="cls-5" d="M74.06,65.15l9-5.23V51.59l-9,5.22Z"/><path id="パス_275" data-name="パス 275" class="cls-5" d="M74.12,56.76l9-5.23L50,32.24l-9,5.22Z"/><path id="パス_276" data-name="パス 276" class="cls-5" d="M48.36,57.72l-8.3-4.82v8.21l8.3,4.82Z"/><path id="パス_277" data-name="パス 277" class="cls-5" d="M85,36.59l-8.3-4.82L40.06,52.9l8.3,4.83Z"/></g><g id="グループ_853" data-name="グループ 853"><path id="パス_278" data-name="パス 278" class="cls-7" d="M48.64,34.18l5.78-3.12a2.56,2.56,0,0,0-1.16,1.35,5.19,5.19,0,0,0,0,3.52,7.41,7.41,0,0,0,2.14,3.36,23.07,23.07,0,0,0,5.68,3c.77.3,1.48.55,2.09.74a4.69,4.69,0,0,0,2.25.36l-5.77,3.13a4.69,4.69,0,0,1-2.25-.37c-.61-.18-1.32-.43-2.09-.73a23.51,23.51,0,0,1-5.69-3,7.58,7.58,0,0,1-2.14-3.36,5.31,5.31,0,0,1,0-3.52A2.65,2.65,0,0,1,48.64,34.18Z"/></g><path id="パス_279" data-name="パス 279" class="cls-5" d="M62.85,38A36.26,36.26,0,0,0,58.43,32a5.08,5.08,0,0,0-1.86-1.09,3,3,0,0,0-1.2-.14,2.5,2.5,0,0,0-1,.28l-5.77,3.13,0,0a2.58,2.58,0,0,0-1.2,1.38,5.21,5.21,0,0,0,0,3.57,7.52,7.52,0,0,0,2.16,3.4,23.15,23.15,0,0,0,5.71,3c.69.27,1.44.54,2.12.75,1.21.37,2.21.55,2.33.26a.2.2,0,0,1-.09.09l5.78-3.12a.24.24,0,0,0,.08-.09C65.7,42.93,64.26,40.32,62.85,38ZM49.14,33.92,49,34ZM59.72,46.4c-.1.23-1,.11-2.32-.3-.61-.18-1.31-.43-2.08-.73a23.33,23.33,0,0,1-5.69-3,7.58,7.58,0,0,1-2.14-3.36,5.19,5.19,0,0,1,0-3.52,2.48,2.48,0,0,1,2.13-1.63A3.14,3.14,0,0,1,50.8,34a5,5,0,0,1,1.84,1.08A36.4,36.4,0,0,1,57,41.19C58.72,43.91,59.84,46.09,59.72,46.4Z"/><path id="パス_280" data-name="パス 280" class="cls-7" d="M75.58,50.37l-.15,0a26.84,26.84,0,0,1-5.5-3.28c-2.36-1.71-4.05-3.23-4.1-3.69,0-.19.28-.45.82-.74l-5.77,3.13c-.54.29-.84.55-.83.73.06.46,1.75,2,4.11,3.69a26.84,26.84,0,0,0,5.5,3.28l.15,0a2.68,2.68,0,0,0,1.93-.19l5.78-3.13A2.67,2.67,0,0,1,75.58,50.37Z"/><path id="パス_281" data-name="パス 281" class="cls-5" d="M79,46.54c-.3-2.58-2.19-5.1-4.29-5.74l-.22-.06c-1.15-.28-3.44.21-5.2.76a16.43,16.43,0,0,0-2.66,1.07l-5.77,3.12h0c-.53.29-.87.56-.84.78.07.61,2.27,2.4,4.14,3.75a26.59,26.59,0,0,0,5.52,3.29l.15,0a2.66,2.66,0,0,0,2-.23l-.06,0,5.78-3.12a2.78,2.78,0,0,0,.68-.55A4,4,0,0,0,79,46.54ZM61.45,45.4l-.05,0Zm1.36-.54-.06,0Zm-.7.26-.07,0Zm7.7,8.37-.15,0a26.84,26.84,0,0,1-5.5-3.28c-2.36-1.71-4-3.23-4.11-3.69s1.42-1.15,3.48-1.79c1.76-.55,4-1,5.19-.76l.21.06c2.07.63,3.94,3.12,4.24,5.67a4,4,0,0,1-.76,3.1,2.49,2.49,0,0,1-2.6.73Zm2.35-.4-.1.08Z"/></g></svg>