<svg xmlns="http://www.w3.org/2000/svg" width="119.997" height="103.998" viewBox="0 0 119.997 103.998">
  <g id="g1" data-name="g1" transform="translate(-182.002 -3148.001)">
    <g id="g2" data-name="g2" transform="translate(141.921 2717.496)">
      <rect id="s1" data-name="s1" width="59.125" height="66.705" rx="6" transform="translate(70.079 452.181)" fill="#fff"/>
      <g id="g3" data-name="g3" transform="translate(70.079 452.18)">
        <rect id="s2" data-name="s2" width="22.678" height="6.479" transform="translate(18.629 0)" fill="#1e3244"/>
        <path id="p1" data-name="p1" d="M124.344,453.747H113.815v6.134h8.909v54.437H76.558V459.881h9.719v-6.134H74.939a4.741,4.741,0,0,0-4.86,4.6v57.5a4.741,4.741,0,0,0,4.86,4.6h49.406a4.74,4.74,0,0,0,4.86-4.6v-57.5A4.74,4.74,0,0,0,124.344,453.747Z" transform="translate(-70.079 -453.747)" fill="#1e3244"/>
      </g>
      <path id="p2" data-name="p2" d="M110.031,449.75h-1.217a4.4,4.4,0,0,0-8.79,0H95.375a2.3,2.3,0,0,0-2.3,2.3v6.748a2.3,2.3,0,0,0,2.3,2.3h18.087a2.3,2.3,0,0,0,2.3-2.3v-6.748a2.3,2.3,0,0,0-2.3-2.3Z" transform="translate(-4.372)" fill="#acb3b9"/>
      <circle id="c1" data-name="c1" cx="2.251" cy="2.251" r="2.251" transform="translate(97.796 447.5)" fill="#fff"/>
      <path id="p3" data-name="p3" d="M83.016,475.619l2.42,2.42,4.134-4.134" transform="translate(-0.863 -4.103)" fill="none" stroke="#ffc02e" stroke-linecap="round" stroke-miterlimit="10" stroke-width="2"/>
      <path id="p4" data-name="p4" d="M83.016,475.619l2.42,2.42,4.134-4.134" transform="translate(-0.863 5.897)" fill="none" stroke="#ffc02e" stroke-linecap="round" stroke-miterlimit="10" stroke-width="2"/>
      <path id="p5" data-name="p5" d="M83.016,475.619l2.42,2.42,4.134-4.134" transform="translate(-0.863 15.897)" fill="none" stroke="#ffc02e" stroke-linecap="round" stroke-miterlimit="10" stroke-width="2"/>
      <path id="p6" data-name="p6" d="M83.016,475.619l2.42,2.42,4.134-4.134" transform="translate(-0.863 25.897)" fill="none" stroke="#ffc02e" stroke-linecap="round" stroke-miterlimit="10" stroke-width="2"/>
      <line id="l1" data-name="l1" x2="25.168" transform="translate(92.736 472.372)" fill="none" stroke="#acb3b9" stroke-linecap="round" stroke-miterlimit="10" stroke-width="1"/>
      <line id="l2" data-name="l2" x2="25.168" transform="translate(92.736 482.372)" fill="none" stroke="#acb3b9" stroke-linecap="round" stroke-miterlimit="10" stroke-width="1"/>
      <line id="l3" data-name="l3" x2="25.168" transform="translate(92.736 492.372)" fill="none" stroke="#acb3b9" stroke-linecap="round" stroke-miterlimit="10" stroke-width="1"/>
      <line id="l4" data-name="l4" x2="25.168" transform="translate(92.736 502.372)" fill="none" stroke="#acb3b9" stroke-linecap="round" stroke-miterlimit="10" stroke-width="1"/>
    </g>
    <g id="m1" data-name="m1" transform="translate(218.002 3251.999) rotate(180)" fill="#fbe6a2">
      <path d="M 17.99920082092285 34.99755859375 C 13.45878028869629 34.99755859375 9.190030097961426 33.22953033447266 5.979310035705566 30.0191593170166 C 2.768349885940552 26.80856895446777 1 22.53964996337891 1 17.998779296875 C 1 14.59872913360596 2.000519990921021 11.31734943389893 3.893379926681519 8.509368896484375 L 4.119229793548584 8.174339294433594 L 4.048940181732178 7.776459217071533 L 3.249143838882446 3.24872612953186 L 7.778870105743408 4.047359466552734 L 8.176509857177734 4.117469310760498 L 8.511349678039551 3.89181923866272 C 11.31865978240967 1.999979257583618 14.59951019287109 0.9999992847442627 17.99920082092285 0.9999992847442627 C 22.54062080383301 0.9999992847442627 26.80997085571289 2.76802921295166 30.02079963684082 5.978409290313721 C 33.231689453125 9.18882942199707 35 13.45774936676025 35 17.998779296875 C 35 22.53981018066406 33.231689453125 26.80872917175293 30.02079963684082 30.01914978027344 C 26.80997085571289 33.22953033447266 22.54062080383301 34.99755859375 17.99920082092285 34.99755859375 Z" stroke="none"/>
      <path d="M 17.99920082092285 2 C 14.79936981201172 2 11.71176910400391 2.940940856933594 9.0701904296875 4.721088409423828 L 8.400520324707031 5.172389984130859 L 7.605239868164063 5.032169342041016 L 4.48240852355957 4.481584548950195 L 5.033700942993164 7.602508544921875 L 5.174270629882813 8.398269653320313 L 4.722579956054688 9.068328857421875 C 2.941448211669922 11.71054840087891 2 14.79864883422852 2 17.998779296875 C 2 22.27251815795898 3.664321899414063 26.29029846191406 6.686370849609375 29.31201934814453 C 9.708229064941406 32.33353805541992 13.72587013244629 33.99755859375 17.99920082092285 33.99755859375 C 22.27352905273438 33.99755859375 26.29179000854492 32.33353042602539 29.31374931335449 29.3120002746582 C 32.33572006225586 26.29044914245605 34 22.27267837524414 34 17.998779296875 C 34 13.72488021850586 32.33572006225586 9.707109451293945 29.31374931335449 6.68556022644043 C 26.29179000854492 3.664028167724609 22.27352905273438 2 17.99920082092285 2 M 17.99920082092285 0 C 27.94123077392578 0 36 8.057069778442383 36 17.998779296875 C 36 27.94049072265625 27.94123077392578 35.99755859375 17.99920082092285 35.99755859375 C 8.0595703125 35.99755859375 0 27.94049072265625 0 17.998779296875 C 0 14.27725982666016 1.129791259765625 10.81999969482422 3.064189910888672 7.950408935546875 L 2.015888214111328 2.015869140625 L 7.952499389648438 3.062549591064453 C 10.82172966003418 1.128978729248047 14.27902984619141 0 17.99920082092285 0 Z" stroke="none" fill="#fbe6a2"/>
    </g>
    <path id="p7" data-name="p7" d="M-1.506-4.715h2.76V-5.2c0-.828.391-1.472,1.5-2.346A12.731,12.731,0,0,0,4.52-9.154a4.13,4.13,0,0,0,1.1-2.944c0-2.944-1.84-4.6-5.129-4.6-3.174,0-4.991,1.564-5.635,4.876l3.289.552c.506-1.909,1.081-2.576,2.277-2.576A1.5,1.5,0,0,1,2.1-12.305c0,.9-.345,1.449-1.518,2.484C-1.138-8.372-1.529-7.59-1.506-5.612ZM-1.805,0H1.552V-3.22H-1.805Z" transform="translate(200 3243)" fill="#1e3244"/>
    <g id="g4" data-name="g4" transform="translate(0 -326)">
      <path id="m2" data-name="m2" d="M10276.438,2094.936l-5.937,1.047,1.048-5.935a17.994,17.994,0,1,1,4.889,4.888Z" transform="translate(-10002.486 1412)" fill="#fff"/>
      <g id="g5" data-name="g5" transform="translate(277.962 3487.379)">
        <line id="l5" data-name="l5" y2="2.637" transform="translate(0 0)" fill="none" stroke="#1e3244" stroke-linecap="round" stroke-width="3"/>
        <line id="l6" data-name="l6" y2="2.637" transform="translate(12.076 0)" fill="none" stroke="#1e3244" stroke-linecap="round" stroke-width="3"/>
      </g>
      <path id="p8" data-name="p8" d="M12.076,4A6.038,6.038,0,0,1,0,4C.087,4.093,12.114,4.093,12.076,4Z" transform="translate(277.962 3490.897)" fill="#ffc02e"/>
    </g>
  </g>
</svg>
