<svg id="seo" xmlns="http://www.w3.org/2000/svg" viewBox="0 0 120 120"><defs><style>.cls-1{isolation:isolate;}.cls-2{fill:#1e3244;}.cls-3{fill:#ffc02e;}.cls-4{fill:none;stroke:#fff;stroke-linecap:round;}</style></defs><g id="g" class="cls-1"><path id="t8" class="cls-2" d="M25,87a6.11,6.11,0,0,0-.43.92,15,15,0,0,1-1.79,3.56c.48.3.92.6,1.25.83l-1.19,1.52c-.31-.27-.73-.58-1.21-.92a12.43,12.43,0,0,1-4.79,3.24l-1.51-1.32a10.94,10.94,0,0,0,4.85-2.91c-.89-.57-1.77-1.1-2.43-1.48l1.1-1.23c.69.35,1.57.84,2.45,1.36a9.74,9.74,0,0,0,1.35-2.77H18.91a15.26,15.26,0,0,1-3.44,3.36l-1.4-1.08a12,12,0,0,0,4.15-4.32,5.68,5.68,0,0,0,.58-1.36l1.89.58c-.31.46-.65,1.05-.81,1.33h2.65a4.1,4.1,0,0,0,1.13-.14Z"/><path id="t7" class="cls-2" d="M33.22,94.17a8.93,8.93,0,0,0,.12,1.7H31.28a15,15,0,0,0,.09-1.7V89.9a24.62,24.62,0,0,1-4.47,1.77L26,90.09a20.12,20.12,0,0,0,5.91-2.36,13.65,13.65,0,0,0,3.39-2.93l1.39,1.26a21,21,0,0,1-3.44,2.79Z"/><path id="t6" class="cls-2" d="M46.34,92.31a37.5,37.5,0,0,0-4.7-1.94v3.68c0,.38.07,1.29.12,1.81h-2a13.65,13.65,0,0,0,.13-1.81V86.59A9.07,9.07,0,0,0,39.73,85h2a14.36,14.36,0,0,0-.12,1.57V88.5a42,42,0,0,1,5.44,2Z"/><path id="t5" class="cls-2" d="M48.42,94.82a6.2,6.2,0,0,0,2.21-3.11A22.65,22.65,0,0,0,51,86.56a5.18,5.18,0,0,0-.11-1.18H52.8a7.35,7.35,0,0,0-.09,1.17,28.77,28.77,0,0,1-.39,5.59A7.53,7.53,0,0,1,50,95.87Zm6,.19a5.06,5.06,0,0,0,.1-1V86.47a6.35,6.35,0,0,0-.1-1.12h1.93a7.14,7.14,0,0,0-.09,1.14v6.8a8.32,8.32,0,0,0,3.21-2.75l1,1.43a14.16,14.16,0,0,1-4.4,3.55,3,3,0,0,0-.58.39Z"/><path id="t4" class="cls-2" d="M64,88.7a1.66,1.66,0,1,1-1.66,1.66A1.68,1.68,0,0,1,64,88.7Z"/><path id="t3" class="cls-2" d="M72.51,87.71H67.68V86.49h4.83ZM78.43,95c.21,0,.26-.23.29-1.84a4.26,4.26,0,0,0,1.3.58c-.12,2.08-.47,2.63-1.42,2.63h-.84c-1.15,0-1.41-.46-1.41-1.78V91.18h-.67c-.16,2.2-.61,4.11-2.65,5.3a4.26,4.26,0,0,0-.9-1.14v.57H69.55v.51h-1.3V92h3.88v3.2c1.61-.91,1.88-2.36,2-4H73V86.64h1a11.26,11.26,0,0,0-.84-1.86l1.35-.44a8.31,8.31,0,0,1,1,2.07l-.66.23h2.74l-.71-.21a13.38,13.38,0,0,0,.76-2.15l1.6.39c-.31.72-.66,1.44-.93,2H79.4v4.54H77.82v3.35c0,.38,0,.43.2.43ZM72,89.5H68.29V88.34H72Zm-3.75.65H72v1.17H68.29ZM72,85.86H68.37V84.69H72Zm-1.22,7.35H69.55v1.48h1.27Zm7-5.24H74.43v1.9h3.38Z"/><path id="t2" class="cls-2" d="M82.61,92.93v1.12H81.18V85h4.53v7.94Zm0-6.54v1.84h1.67V86.39Zm1.67,5.14V89.61H82.61v1.92Zm8.18,3.12c0,.82-.17,1.23-.67,1.48a5.77,5.77,0,0,1-2.34.29,5.53,5.53,0,0,0-.55-1.5c.7,0,1.49,0,1.72,0s.31-.08.31-.3V92.35H87.87a6.58,6.58,0,0,1-2.48,4.17,5.38,5.38,0,0,0-1.16-1c2.19-1.62,2.38-4,2.38-6V84.81h5.85ZM90.93,91V89.29h-2.8v.2c0,.47,0,1-.06,1.47Zm-2.8-4.72V87.9h2.8V86.24Z"/><path id="t1" class="cls-2" d="M103.82,87.85a14.28,14.28,0,0,1-2.84,4.8,12.53,12.53,0,0,0,5,2.23,8.17,8.17,0,0,0-1.11,1.55,12.5,12.5,0,0,1-5.14-2.56,15.47,15.47,0,0,1-5.07,2.6,9.7,9.7,0,0,0-1-1.51,13.57,13.57,0,0,0,4.86-2.25,15.52,15.52,0,0,1-2.77-4.86H93.87V86.34H99v-2h1.57v2h5.17v1.51Zm-6.37,0a11.46,11.46,0,0,0,2.32,3.71A11.58,11.58,0,0,0,102,87.85Z"/></g><g id="gp" class="cls-1"><path id="s" class="cls-3" d="M22.13,63.3c1.6,2.6,3.95,3.75,7.8,3.75s5.6-1.45,5.6-4.25A3.59,3.59,0,0,0,34,59.65c-1-.65-1-.65-6-1.9C20.68,55.9,17.87,53,17.87,47c0-6.8,4.36-10.55,12.16-10.55,5.75,0,9.6,1.9,11.9,5.8l-5.7,3.65a7.09,7.09,0,0,0-6.4-3.3c-2.9,0-4.6,1.45-4.6,3.95,0,2.75,1.5,3.9,6.65,5.2,4.55,1.15,5.7,1.55,7.5,2.7,2.35,1.6,3.5,4.15,3.5,8,0,3.65-1,6.2-3,8-2.2,1.9-5.65,2.9-10,2.9a19.71,19.71,0,0,1-10-2.4A10.44,10.44,0,0,1,16.27,67Z"/><path id="e" class="cls-3" d="M48.47,37H71v6.25h-15v8.3H68.73V57.8H56.08v8.65H71.23V72.7H48.47Z"/><path id="o" class="cls-3" d="M76.67,50.65c0-5.35.8-8.25,3-10.55,2.4-2.6,5.45-3.65,10.5-3.65,5.4,0,8.76,1.25,11.11,4.25,1.75,2.25,2.45,5,2.45,9.95v8.4c0,5.35-.8,8.25-3,10.55-2.41,2.6-5.45,3.65-10.56,3.65-5.35,0-8.7-1.25-11-4.25-1.75-2.2-2.45-5-2.45-10ZM96,51.3c0-6.5-1.46-8.65-5.81-8.65s-5.85,2.15-5.85,8.65v7.1c0,6.5,1.45,8.65,5.8,8.65S96,64.9,96,58.4Z"/></g><path id="p4" class="cls-4" d="M30.89,71.11c.37,0,4.8-.28,7.11-2.31"/><path id="p3" class="cls-4" d="M69,67.3v3.76H63.69"/><path id="p2" class="cls-4" d="M66.89,52.7v3.75H61.61"/><path id="p1" class="cls-4" d="M94.24,71.11a7.33,7.33,0,0,0,6.09-4.7"/></svg>