<svg xmlns="http://www.w3.org/2000/svg" viewBox="0 0 120 120"><rect x="45.1" y="60" width="37.94" height="44.4" rx="2" style="fill:#acb3b9"/><rect x="41.34" y="63.76" width="37.94" height="44.4" rx="2" style="fill:#ced4da"/><rect x="37.45" y="68.02" width="36.94" height="43.4" rx="1.5" style="fill:#fff"/><path d="M72.9,68.52a1,1,0,0,1,1,1v40.41a1,1,0,0,1-1,1H39a1,1,0,0,1-1-1V69.52a1,1,0,0,1,1-1h34m0-1H39a2,2,0,0,0-2,2v40.41a2,2,0,0,0,2,2h34a2,2,0,0,0,2-2V69.52a2,2,0,0,0-2-2Z" style="fill:#ced4da"/><line x1="43.62" y1="85.93" x2="68.23" y2="85.93" style="fill:none;stroke:#ced4da;stroke-linecap:round;stroke-miterlimit:10"/><line x1="43.62" y1="90.54" x2="68.23" y2="90.54" style="fill:none;stroke:#ced4da;stroke-linecap:round;stroke-miterlimit:10"/><line x1="43.62" y1="95.16" x2="68.23" y2="95.16" style="fill:none;stroke:#ced4da;stroke-linecap:round;stroke-miterlimit:10"/><line x1="43.62" y1="99.77" x2="68.23" y2="99.77" style="fill:none;stroke:#ced4da;stroke-linecap:round;stroke-miterlimit:10"/><line x1="43.62" y1="104.39" x2="68.23" y2="104.39" style="fill:none;stroke:#ced4da;stroke-linecap:round;stroke-miterlimit:10"/><path d="M43.08,74.31H68.76v7H43.08Z" style="fill:#ffc02e"/><rect x="6.78" y="8.86" width="27.76" height="32.65" rx="1.5" style="fill:#fff"/><path d="M33,9.36a1,1,0,0,1,1,1V40a1,1,0,0,1-1,1H8.28a1,1,0,0,1-1-1V10.36a1,1,0,0,1,1-1H33m0-1H8.28a2,2,0,0,0-2,2V40a2,2,0,0,0,2,2H33a2,2,0,0,0,2-2V10.36a2,2,0,0,0-2-2Z" style="fill:#ced4da"/><line x1="11.34" y1="22.3" x2="29.99" y2="22.3" style="fill:none;stroke:#ced4da;stroke-linecap:round;stroke-miterlimit:10"/><line x1="11.34" y1="25.8" x2="29.99" y2="25.8" style="fill:none;stroke:#ced4da;stroke-linecap:round;stroke-miterlimit:10"/><line x1="11.34" y1="29.3" x2="29.99" y2="29.3" style="fill:none;stroke:#ced4da;stroke-linecap:round;stroke-miterlimit:10"/><line x1="11.34" y1="32.8" x2="29.99" y2="32.8" style="fill:none;stroke:#ced4da;stroke-linecap:round;stroke-miterlimit:10"/><line x1="11.34" y1="36.3" x2="29.99" y2="36.3" style="fill:none;stroke:#ced4da;stroke-linecap:round;stroke-miterlimit:10"/><path d="M10.93,13.5H30.4v5.31H10.93Z" style="fill:#ffc02e"/><rect x="46.12" y="8.86" width="27.76" height="32.65" rx="1.5" style="fill:#fff"/><path d="M72.38,9.36a1,1,0,0,1,1,1V40a1,1,0,0,1-1,1H47.62a1,1,0,0,1-1-1V10.36a1,1,0,0,1,1-1H72.38m0-1H47.62a2,2,0,0,0-2,2V40a2,2,0,0,0,2,2H72.38a2,2,0,0,0,2-2V10.36a2,2,0,0,0-2-2Z" style="fill:#ced4da"/><line x1="50.67" y1="22.3" x2="69.33" y2="22.3" style="fill:none;stroke:#ced4da;stroke-linecap:round;stroke-miterlimit:10"/><line x1="50.67" y1="25.8" x2="69.33" y2="25.8" style="fill:none;stroke:#ced4da;stroke-linecap:round;stroke-miterlimit:10"/><line x1="50.67" y1="29.3" x2="69.33" y2="29.3" style="fill:none;stroke:#ced4da;stroke-linecap:round;stroke-miterlimit:10"/><line x1="50.67" y1="32.8" x2="69.33" y2="32.8" style="fill:none;stroke:#ced4da;stroke-linecap:round;stroke-miterlimit:10"/><line x1="50.67" y1="36.3" x2="69.33" y2="36.3" style="fill:none;stroke:#ced4da;stroke-linecap:round;stroke-miterlimit:10"/><path d="M50.27,13.5H69.73v5.31H50.27Z" style="fill:#ffc02e"/><rect x="85.46" y="8.86" width="27.76" height="32.65" rx="1.5" style="fill:#fff"/><path d="M111.72,9.36a1,1,0,0,1,1,1V40a1,1,0,0,1-1,1H87a1,1,0,0,1-1-1V10.36a1,1,0,0,1,1-1h24.76m0-1H87a2,2,0,0,0-2,2V40a2,2,0,0,0,2,2h24.76a2,2,0,0,0,2-2V10.36a2,2,0,0,0-2-2Z" style="fill:#ced4da"/><line x1="90.01" y1="22.3" x2="108.66" y2="22.3" style="fill:none;stroke:#ced4da;stroke-linecap:round;stroke-miterlimit:10"/><line x1="90.01" y1="25.8" x2="108.66" y2="25.8" style="fill:none;stroke:#ced4da;stroke-linecap:round;stroke-miterlimit:10"/><line x1="90.01" y1="29.3" x2="108.66" y2="29.3" style="fill:none;stroke:#ced4da;stroke-linecap:round;stroke-miterlimit:10"/><line x1="90.01" y1="32.8" x2="108.66" y2="32.8" style="fill:none;stroke:#ced4da;stroke-linecap:round;stroke-miterlimit:10"/><line x1="90.01" y1="36.3" x2="108.66" y2="36.3" style="fill:none;stroke:#ced4da;stroke-linecap:round;stroke-miterlimit:10"/><path d="M89.6,13.5h19.47v5.31H89.6Z" style="fill:#ffc02e"/><polygon points="62.02 51.88 62.02 45.31 57.98 45.31 57.98 51.88 55.37 51.88 60 56.55 64.63 51.88 62.02 51.88" style="fill:#ffc02e"/><polygon points="28.48 50.17 23.84 45.53 20.98 48.39 25.62 53.03 23.77 54.87 30.35 54.91 30.32 48.32 28.48 50.17" style="fill:#ffc02e"/><polygon points="91.52 50.17 96.16 45.53 99.03 48.39 94.38 53.03 96.23 54.87 89.65 54.91 89.68 48.32 91.52 50.17" style="fill:#ffc02e"/></svg>