<svg xmlns="http://www.w3.org/2000/svg" width="57.98" height="46.706" viewBox="0 0 57.98 46.706">
  <g id="g1" data-name="g1" transform="translate(-602 -1702)">
    <path id="p1" data-name="p1" d="M451.907,464.011l-2.718-.459a10.4,10.4,0,0,0-.81-1.964l1.6-2.244a1.625,1.625,0,0,0-.176-2.092l-1.325-1.326a1.628,1.628,0,0,0-2.093-.176l-2.243,1.6a10.424,10.424,0,0,0-1.964-.81l-.459-2.718a1.626,1.626,0,0,0-1.6-1.355h-1.875a1.627,1.627,0,0,0-1.6,1.355l-.459,2.718a10.4,10.4,0,0,0-1.964.81l-2.244-1.6a1.627,1.627,0,0,0-2.092.176l-1.326,1.326a1.627,1.627,0,0,0-.175,2.092l1.6,2.244a10.4,10.4,0,0,0-.81,1.964l-2.718.459a1.627,1.627,0,0,0-1.355,1.6v1.875a1.626,1.626,0,0,0,1.355,1.6l2.718.459a10.421,10.421,0,0,0,.81,1.964l-1.6,2.243a1.627,1.627,0,0,0,.175,2.092l1.326,1.326a1.625,1.625,0,0,0,2.092.176l2.244-1.6a10.407,10.407,0,0,0,1.964.81l.459,2.718a1.627,1.627,0,0,0,1.6,1.355h1.875a1.626,1.626,0,0,0,1.6-1.355l.459-2.718a10.428,10.428,0,0,0,1.964-.81l2.243,1.6a1.626,1.626,0,0,0,2.093-.176l1.325-1.326a1.625,1.625,0,0,0,.176-2.092l-1.6-2.243a10.419,10.419,0,0,0,.81-1.964l2.718-.459a1.626,1.626,0,0,0,1.355-1.6v-1.875A1.627,1.627,0,0,0,451.907,464.011Zm-12.734,8.158a5.617,5.617,0,1,1,5.618-5.618A5.617,5.617,0,0,1,439.173,472.17Z" transform="translate(176.916 1249.537)" fill="#acb3b9"/>
    <path id="p2" data-name="p2" d="M457.66,466.488l-3.3-.557a12.629,12.629,0,0,0-.984-2.385l1.937-2.726a1.974,1.974,0,0,0-.213-2.541l-1.609-1.61a1.977,1.977,0,0,0-2.542-.213l-2.725,1.938a12.667,12.667,0,0,0-2.385-.984l-.558-3.3a1.975,1.975,0,0,0-1.947-1.646h-2.277a1.975,1.975,0,0,0-1.947,1.646l-.557,3.3a12.642,12.642,0,0,0-2.385.984l-2.726-1.938a1.976,1.976,0,0,0-2.541.213l-1.61,1.61a1.976,1.976,0,0,0-.213,2.541l1.938,2.726a12.629,12.629,0,0,0-.984,2.385l-3.3.557a1.975,1.975,0,0,0-1.646,1.947v2.277a1.975,1.975,0,0,0,1.646,1.947l3.3.558a12.656,12.656,0,0,0,.984,2.385l-1.938,2.725a1.976,1.976,0,0,0,.213,2.541l1.61,1.61a1.973,1.973,0,0,0,2.541.213l2.726-1.937a12.626,12.626,0,0,0,2.385.984l.557,3.3a1.975,1.975,0,0,0,1.947,1.645h2.277a1.975,1.975,0,0,0,1.947-1.645l.558-3.3a12.651,12.651,0,0,0,2.385-.984l2.725,1.937a1.975,1.975,0,0,0,2.542-.213l1.609-1.61a1.974,1.974,0,0,0,.213-2.541l-1.937-2.725a12.655,12.655,0,0,0,.984-2.385l3.3-.558a1.975,1.975,0,0,0,1.645-1.947v-2.277A1.975,1.975,0,0,0,457.66,466.488ZM442.195,476.4a6.822,6.822,0,1,1,6.823-6.823A6.822,6.822,0,0,1,442.195,476.4Z" transform="translate(200.674 1262.021)" fill="#66727d"/>
  </g>
</svg>
