<svg xmlns="http://www.w3.org/2000/svg" width="349.757" height="297.104" viewBox="0 0 349.757 297.104"><defs><clipPath id="a"><path d="M213.542,140.8c-14.013-22.079-31-42.693-52.456-57.61S113.348,59.2,87.315,61.675a26.469,26.469,0,0,0-10.79,2.834c-5.886,3.363-8.968,10.354-9.218,17.127S69.238,95,71.76,101.332c5.7,14.216,13.3,27.575,21.253,40.654,8.891,14.636,19.058,29.677,34.535,36.995,18.015,8.517,39.1,4.765,59.011,5.481,7.271.265,15.01,1.043,21.393-2.429" transform="translate(-67.287 -61.27)" fill="none"/></clipPath><clipPath id="b"><path d="M214.115,128.933c14.013-16.255,27.793-33.18,45.013-46.228,15.337-11.6,39.766-24.04,59.509-16.894,3.114,1.137,6.057,3.114,7.147,6.384,3.223,9.887-9.233,27.668-15.352,36.076-26.812,36.855-72.573,63.013-115.032,79.595" transform="translate(-195.4 -63.71)" fill="none"/></clipPath></defs><g transform="translate(-780 -463.068)"><g transform="translate(780 463.068)"><g transform="translate(25.912 0)"><path d="M365.343,230.32c9.019-19.2,9.4-49.3,3.838-73.524-9.819-42.786-6.253-107.2-52.6-129.334-13.784-6.576-33.789-5.568-48.533-9.6C216.881,4.133,158.5-14.444,131.6,47.815c-6.62,15.345-8.347,32.4-14.312,48-15.256,39.874-55.857,85.956-17.015,125.99,14.6,15.057,35.1,22.865,55.458,27.921s41.337,7.824,61.054,14.993c30.255,11.025,55.138,27.953,87.312,16.529C333.041,271.105,354.149,254.1,365.343,230.32Z" transform="translate(-83.93 -4.178)" fill="#fcf2db"/></g><g transform="translate(20.282 0.191)"><path d="M378.422,100.488c-8.814-19.3-24.393-35.776-46.574-47.159C292.82,33.164,245.84-11.28,198.957,9.877c-13.936,6.293-25.921,16.115-38.492,24.832-43.63,30.247-95.782,69-65.616,129.818,7.432,14.993,19.352,27.336,27.417,42.02,20.6,37.4,29.548,98.3,85.277,94.5,20.961-1.431,40.2-12.05,57.225-24.393s32.7-26.474,50.981-36.9c28-16,51.046-26.182,63.128-58.168C389.756,152.818,389.35,124.441,378.422,100.488Z" transform="translate(-85.892 -4.301)" fill="#fcf2db"/></g><circle cx="129.482" cy="129.482" r="129.482" transform="translate(42.121 14.187)" fill="#ffe9ab"/><g transform="translate(0 88.892)"><path d="M213.542,140.8c-14.013-22.079-31-42.693-52.456-57.61S113.348,59.2,87.315,61.675a26.469,26.469,0,0,0-10.79,2.834c-5.886,3.363-8.968,10.354-9.218,17.127S69.238,95,71.76,101.332c5.7,14.216,13.3,27.575,21.253,40.654,8.891,14.636,19.058,29.677,34.535,36.995,18.015,8.517,39.1,4.765,59.011,5.481,7.271.265,15.01,1.043,21.393-2.429" transform="translate(-67.287 -61.27)" fill="#ffc02e"/></g><g transform="translate(0 88.892)"><g clip-path="url(#a)"><path d="M71.494,67.224c21.44,12.456,42.538,25.5,62.717,39.922a427.7,427.7,0,0,1,56.5,47.629A315.355,315.355,0,0,1,218.15,186.57c.887,1.183,2.912,0,2.009-1.183A340.257,340.257,0,0,0,169.1,131.451,537.3,537.3,0,0,0,108.816,87.17C96.952,79.556,84.869,72.285,72.678,65.216a1.168,1.168,0,0,0-1.183,2.009Z" transform="translate(-65.231 -59.143)" fill="#fff"/><path d="M69.945,101.165a331.738,331.738,0,0,1,56.6-12.456c1.464-.187,1.557-2.522,0-2.336A335.912,335.912,0,0,0,69.322,98.83c-1.432.452-.825,2.709.623,2.258Z" transform="translate(-66.609 -47.292)" fill="#fff"/><path d="M84.6,127.239a714.692,714.692,0,0,1,73.849-19.291c1.464-.3.841-2.554-.623-2.258a718.665,718.665,0,0,0-73.849,19.291C82.561,125.433,83.168,127.69,84.6,127.239Z" transform="translate(-58.439 -36.542)" fill="#fff"/><path d="M115.771,108.611a133.749,133.749,0,0,1,5.325-43.6,1.168,1.168,0,0,0-2.242-.623,135.46,135.46,0,0,0-5.418,44.25,1.168,1.168,0,1,0,2.336,0Z" transform="translate(-41.653 -59.954)" fill="#fff"/><path d="M174.134,121.3c-13.3,3.784-26.563,7.785-39.5,12.643a156.124,156.124,0,0,0-33.04,16.333c-1.23.841,0,2.881,1.183,2.024a153.847,153.847,0,0,1,33.118-16.349c12.736-4.78,25.784-8.673,38.925-12.456a1.171,1.171,0,1,0-.623-2.258Z" transform="translate(-48.463 -27.892)" fill="#fff"/></g></g><g transform="translate(199.473 92.692)"><g transform="translate(0 0)" clip-path="url(#b)"><path d="M214.115,128.933c14.013-16.255,27.793-33.18,45.013-46.228,15.337-11.6,39.766-24.04,59.509-16.894,3.114,1.137,6.057,3.114,7.147,6.384,3.223,9.887-9.233,27.668-15.352,36.076-26.812,36.855-72.573,63.013-115.032,79.595" transform="translate(-195.4 -63.71)" fill="#ffc02e"/><path d="M326.134,67.647c-34.021,19.618-68.151,39.3-99.649,62.872q-13.172,9.856-25.628,20.63c-1.137,1,.529,2.647,1.65,1.65,29.506-25.691,62.608-46.711,96.224-66.531,9.5-5.605,19.027-11.1,28.571-16.613a1.168,1.168,0,0,0-1.168-2.009Z" transform="translate(-192.573 -61.575)" fill="#fff"/><path d="M260.055,62.678a123.659,123.659,0,0,1-3.643,31.249c-.327,1.464,1.915,2.086,2.258.623a126.461,126.461,0,0,0,3.721-31.872,1.168,1.168,0,1,0-2.335,0Z" transform="translate(-161.433 -64.936)" fill="#fff"/><path d="M256.614,84a390.667,390.667,0,0,1,40.669,22.188c1.261.81,2.444-1.214,1.183-2.024a395.491,395.491,0,0,0-40.685-22.188C256.443,81.322,255.26,83.346,256.614,84Z" transform="translate(-161.636 -53.607)" fill="#fff"/><path d="M240.4,106.369a182.95,182.95,0,0,0-6.711-31.14c-.452-1.417-2.709-.81-2.242.623a185.644,185.644,0,0,1,6.711,31.14C238.356,108.548,240.6,107.848,240.4,106.369Z" transform="translate(-175.359 -57.743)" fill="#fff"/><path d="M237.05,97.225,269.187,120.5c1.23.887,2.4-1.137,1.183-2.009L238.233,95.139c-1.214-.888-2.382,1.137-1.183,2.024Z" transform="translate(-172.48 -46.326)" fill="#fff"/><path d="M214.211,112.523a130.292,130.292,0,0,1,36.5,29.163c.981,1.137,2.616-.514,1.65-1.65a127.792,127.792,0,0,0-17.485-16.473,134.249,134.249,0,0,0-19.494-13.048C214.055,109.8,212.872,111.822,214.211,112.523Z" transform="translate(-185.25 -37.724)" fill="#fff"/></g></g><circle cx="11.351" cy="11.351" r="11.351" transform="translate(19.42 34.257)" fill="#ffc02e"/><circle cx="11.351" cy="11.351" r="11.351" transform="translate(327.056 227.747)" fill="#ffc02e"/><circle cx="11.351" cy="11.351" r="11.351" transform="translate(25.912 250.449)" fill="#ffe9ab"/></g><g transform="translate(887.226 536.311)"><g transform="translate(0 0)"><rect width="116.994" height="155.575" rx="0.82" transform="translate(2.123)" fill="#fff" stroke="#e4e4e4" stroke-width="1"/><path d="M10.32,8.24H96.9V29.25H10.32Z" transform="translate(6.967 8.422)" fill="#ffc02e"/><circle cx="9" cy="9" r="9" transform="translate(17.287 49.144)" fill="#ffc02e"/><line x1="56.69" transform="translate(46.494 58.144)" fill="none" stroke="#acb3b9" stroke-linecap="round" stroke-linejoin="round" stroke-width="1.82"/><line x1="86.665" transform="translate(17.287 75.99)" fill="none" stroke="#acb3b9" stroke-linecap="round" stroke-linejoin="round" stroke-width="1.82"/><line x1="86.665" transform="translate(17.287 90.671)" fill="none" stroke="#acb3b9" stroke-linecap="round" stroke-linejoin="round" stroke-width="1.82"/><line x1="86.665" transform="translate(17.287 105.353)" fill="none" stroke="#acb3b9" stroke-linecap="round" stroke-linejoin="round" stroke-width="1.82"/><line x1="57.542" transform="translate(17.287 120.056)" fill="none" stroke="#acb3b9" stroke-linecap="round" stroke-linejoin="round" stroke-width="1.82"/></g><path d="M95.095,66v9.956c0,3.247-7.824,6.279-20.245,7.374v-9.9C87.271,72.338,95.095,69.325,95.095,66Z" transform="translate(71.189 76.333)" fill="#e2b815"/><path d="M112.7,61.316A28.245,28.245,0,0,0,101.373,57.4c10.621-1.956,15.648-5.5,11.325-8.88-5.262-4.088-22.142-6.279-37.693-4.929-12.479,1.1-20.3,4.147-20.206,7.433v9.9a2.543,2.543,0,0,0,.567,1.428A2.484,2.484,0,0,0,54.84,63.8v9.9a2.387,2.387,0,0,0,.293.958,2.523,2.523,0,0,0-.274,1v9.878a2.289,2.289,0,0,0,.352,1.135,2.387,2.387,0,0,0-.333,1.193v9.9a3.267,3.267,0,0,0,1.565,2.5c5.242,4.088,22.123,6.279,37.693,4.929V95.234c15.648-1.369,23.922-5.868,18.66-9.78a25.643,25.643,0,0,0-9.78-3.638c9.585-1.956,13.927-5.379,9.78-8.587a24.489,24.489,0,0,0-8.959-3.423C112.757,67.732,116.709,64.426,112.7,61.316Z" transform="translate(52.021 54.532)" fill="#ffd72d"/><path d="M95.095,59.79v9.956c0,3.247-7.824,6.279-20.245,7.355V67.145C87.271,66.069,95.095,63.037,95.095,59.79Z" transform="translate(71.189 70.396)" fill="#e2b815"/><path d="M95.095,53.73v9.956c0,3.247-7.824,6.279-20.245,7.374V61.1C87.271,60.009,95.095,57,95.095,53.73Z" transform="translate(71.189 64.602)" fill="#e2b815"/><path d="M95.095,47.2v9.956c0,3.247-7.824,6.279-20.245,7.374v-9.9C87.271,53.479,95.095,50.467,95.095,47.2Z" transform="translate(71.189 58.36)" fill="#e2b815"/><path d="M30.33,74.686,29,66.51c1.193,6.983,9.428,12.362,21.516,13.047l1.408,8.176C39.778,87.029,31.523,81.669,30.33,74.686Z" transform="translate(27.356 76.82)" fill="#ffd72d"/><path d="M77.164,61.38l1.408,8.157a11.736,11.736,0,0,1-1.017,6.748c-4.323,9.976-20.538,17.35-36.226,16.45L40,84.481c15.648.88,31.9-6.474,36.226-16.45a11.736,11.736,0,0,0,.939-6.65Z" transform="translate(37.872 71.916)" fill="#e2b815"/><ellipse cx="29.751" cy="17.702" rx="29.751" ry="17.702" transform="translate(53.314 125.905) rotate(-9.73)" fill="#ffe14c"/><ellipse cx="20.245" cy="12.049" rx="20.245" ry="12.049" transform="translate(63.639 129.87) rotate(-9.73)" fill="#e2b815"/><ellipse cx="20.832" cy="4.753" rx="20.832" ry="4.753" transform="translate(115.701 100.689)" fill="#e2b815"/></g></g></svg>
