<svg xmlns="http://www.w3.org/2000/svg" viewBox="0 0 125 33"><rect width="125" height="33" rx="6" style="fill:#fff"/><rect x="1" y="1" width="123" height="31" rx="5" style="fill:none;stroke:#ffc02e;stroke-width:2px"/><path d="M12.71,16.55v2.66c0,3.15.6,3.79,3.69,3.79h.27V21.11h-.19c-1.1,0-1.44-.37-1.44-1.66v-2.9h1.65V14.71H15V12.37H12.85l-.14,2.34h-.9v1.84Zm5.2-2.91h2.33V11.45H17.91Zm0,9.36h2.33V14.71H17.91Zm4.2,3.6h2.34V22.73a3.32,3.32,0,0,0,1.71.45c2.21,0,3.12-1.09,3.12-3.73v-1.2c0-2.63-.91-3.73-3.12-3.73a3,3,0,0,0-2,.64l-.24-.45h-1.8ZM27,19.27c0,1.44-.38,2.05-1.25,2.05s-1.26-.5-1.26-1.58V18c0-1.09.4-1.58,1.26-1.58S27,17,27,18.42Zm3.12,2.21c.56,1.14,1.7,1.7,3.5,1.7,2.45,0,3.57-.84,3.57-2.68s-.7-2.38-3.2-2.62c-1-.1-1.26-.26-1.26-.74s.38-.8,1.07-.8a1.47,1.47,0,0,1,1.49.86l1.73-1a3.52,3.52,0,0,0-3.38-1.71c-2,0-3.1,1-3.1,2.72a2.06,2.06,0,0,0,1.13,2.05,6.68,6.68,0,0,0,2.37.48c.7.06,1,.25,1,.7,0,.61-.46.9-1.47.9a1.64,1.64,0,0,1-1.7-.87ZM38.71,23h2.46V20.76H38.71Zm4.44-8.29v8.13c0,1.52-.43,2-1.84,1.95v1.89c3.43,0,4.23-.75,4.18-4.06v-7.9Zm0-1.07h2.34V11.45H43.15Zm4.21,13H49.7V22.73a3.32,3.32,0,0,0,1.71.45c2.21,0,3.12-1.09,3.12-3.73v-1.2c0-2.63-.91-3.73-3.12-3.73a3.07,3.07,0,0,0-2,.64l-.24-.45H47.36Zm4.85-7.33c0,1.44-.38,2.05-1.25,2.05s-1.26-.5-1.26-1.58V18c0-1.09.4-1.58,1.26-1.58s1.25.62,1.25,2Zm3,4.05h2.3l3.82-12.06H59Zm7.26-9.68h2.34V11.45H62.45Zm0,9.36h2.34V14.71H62.45Zm9.33,0h1.79V11.58H71.23V15l-.14-.08-.29-.16a3.17,3.17,0,0,0-1.33-.24c-2.14,0-3.07,1.12-3.07,3.73v1.2c0,2.64.91,3.73,3.12,3.73a2.75,2.75,0,0,0,2-.6.53.53,0,0,0,.12-.1Zm-3.06-4.58c0-1.42.39-2,1.25-2s1.26.49,1.26,1.58v1.78c0,1.08-.38,1.58-1.24,1.58s-1.27-.61-1.27-2.05Zm5.76,4.9h2.3l3.83-12.06H78.32Z" style="fill:#1e3244"/><line x1="86" y1="6" x2="86" y2="27" style="fill:none;stroke:#acb3b9;stroke-linecap:round"/></svg>