<svg xmlns="http://www.w3.org/2000/svg" xmlns:xlink="http://www.w3.org/1999/xlink" viewBox="0 0 942 471"><defs><clipPath id="a"><rect x="-1293.83" width="942" height="471" style="fill:none"/></clipPath><linearGradient id="b" x1="471" y1="-1.07" x2="471" y2="463.81" gradientUnits="userSpaceOnUse"><stop offset="0" stop-color="#fbca4c"/><stop offset="1" stop-color="#ffbf2e"/></linearGradient><pattern id="c" width="72" height="72" patternTransform="translate(733.79 402) rotate(-28)" patternUnits="userSpaceOnUse" viewBox="0 0 72 72"><rect width="72" height="72" style="fill:none"/><line x1="71.75" y1="68.4" x2="144.25" y2="68.4" style="fill:none;stroke:#231815;stroke-width:2.88px"/><line x1="71.75" y1="54" x2="144.25" y2="54" style="fill:none;stroke:#231815;stroke-width:2.88px"/><line x1="71.75" y1="39.6" x2="144.25" y2="39.6" style="fill:none;stroke:#231815;stroke-width:2.88px"/><line x1="71.75" y1="25.2" x2="144.25" y2="25.2" style="fill:none;stroke:#231815;stroke-width:2.88px"/><line x1="71.75" y1="10.8" x2="144.25" y2="10.8" style="fill:none;stroke:#231815;stroke-width:2.88px"/><line x1="71.75" y1="61.2" x2="144.25" y2="61.2" style="fill:none;stroke:#231815;stroke-width:2.88px"/><line x1="71.75" y1="46.8" x2="144.25" y2="46.8" style="fill:none;stroke:#231815;stroke-width:2.88px"/><line x1="71.75" y1="32.4" x2="144.25" y2="32.4" style="fill:none;stroke:#231815;stroke-width:2.88px"/><line x1="71.75" y1="18" x2="144.25" y2="18" style="fill:none;stroke:#231815;stroke-width:2.88px"/><line x1="71.75" y1="3.6" x2="144.25" y2="3.6" style="fill:none;stroke:#231815;stroke-width:2.88px"/><line x1="-0.25" y1="68.4" x2="72.25" y2="68.4" style="fill:none;stroke:#231815;stroke-width:2.88px"/><line x1="-0.25" y1="54" x2="72.25" y2="54" style="fill:none;stroke:#231815;stroke-width:2.88px"/><line x1="-0.25" y1="39.6" x2="72.25" y2="39.6" style="fill:none;stroke:#231815;stroke-width:2.88px"/><line x1="-0.25" y1="25.2" x2="72.25" y2="25.2" style="fill:none;stroke:#231815;stroke-width:2.88px"/><line x1="-0.25" y1="10.8" x2="72.25" y2="10.8" style="fill:none;stroke:#231815;stroke-width:2.88px"/><line x1="-0.25" y1="61.2" x2="72.25" y2="61.2" style="fill:none;stroke:#231815;stroke-width:2.88px"/><line x1="-0.25" y1="46.8" x2="72.25" y2="46.8" style="fill:none;stroke:#231815;stroke-width:2.88px"/><line x1="-0.25" y1="32.4" x2="72.25" y2="32.4" style="fill:none;stroke:#231815;stroke-width:2.88px"/><line x1="-0.25" y1="18" x2="72.25" y2="18" style="fill:none;stroke:#231815;stroke-width:2.88px"/><line x1="-0.25" y1="3.6" x2="72.25" y2="3.6" style="fill:none;stroke:#231815;stroke-width:2.88px"/><line x1="-72.25" y1="68.4" x2="0.25" y2="68.4" style="fill:none;stroke:#231815;stroke-width:2.88px"/><line x1="-72.25" y1="54" x2="0.25" y2="54" style="fill:none;stroke:#231815;stroke-width:2.88px"/><line x1="-72.25" y1="39.6" x2="0.25" y2="39.6" style="fill:none;stroke:#231815;stroke-width:2.88px"/><line x1="-72.25" y1="25.2" x2="0.25" y2="25.2" style="fill:none;stroke:#231815;stroke-width:2.88px"/><line x1="-72.25" y1="10.8" x2="0.25" y2="10.8" style="fill:none;stroke:#231815;stroke-width:2.88px"/><line x1="-72.25" y1="61.2" x2="0.25" y2="61.2" style="fill:none;stroke:#231815;stroke-width:2.88px"/><line x1="-72.25" y1="46.8" x2="0.25" y2="46.8" style="fill:none;stroke:#231815;stroke-width:2.88px"/><line x1="-72.25" y1="32.4" x2="0.25" y2="32.4" style="fill:none;stroke:#231815;stroke-width:2.88px"/><line x1="-72.25" y1="18" x2="0.25" y2="18" style="fill:none;stroke:#231815;stroke-width:2.88px"/><line x1="-72.25" y1="3.6" x2="0.25" y2="3.6" style="fill:none;stroke:#231815;stroke-width:2.88px"/></pattern><pattern id="d" width="29.17" height="29.17" patternTransform="translate(269.96 299.63) scale(0.95 0.75)" patternUnits="userSpaceOnUse" viewBox="0 0 29.17 29.17"><rect width="29.17" height="29.17" style="fill:none"/><rect x="0.5" y="0.5" width="28.17" height="28.17" style="fill:none;stroke:#b2b2b2;stroke-miterlimit:10"/></pattern></defs><g style="isolation:isolate"><g style="clip-path:url(#a)"><rect x="-2443.23" y="-131.71" width="3345.9" height="552.23" transform="translate(-8.61 -40.12) rotate(-3)" style="fill:#fbf1da"/><rect x="-2404.71" y="342.1" width="3345.9" height="311.54" transform="translate(-27.06 -37.62) rotate(-3)" style="fill:#ffbf2e"/></g><rect width="942" height="471" style="fill:#fff"/><rect y="0.71" width="942" height="470.29" style="fill:url(#b)"/><rect y="0.71" width="942" height="470.29" style="mix-blend-mode:screen;fill:url(#c)"/><path d="M880.39,57.63H712.64C652.44,36,566.47,22.41,471,22.41S289.56,36,229.36,57.63H61.61A29.1,29.1,0,0,0,32.52,86.72V419.49a29.1,29.1,0,0,0,29.09,29.1H880.39a29.1,29.1,0,0,0,29.09-29.1V86.72A29.1,29.1,0,0,0,880.39,57.63Z" style="fill:#fff"/><g style="opacity:0.07"><path d="M880.39,57.63H712.64C652.44,36,566.47,22.41,471,22.41S289.56,36,229.36,57.63H61.61A29.1,29.1,0,0,0,32.52,86.72V419.49a29.1,29.1,0,0,0,29.09,29.1H880.39a29.1,29.1,0,0,0,29.09-29.1V86.72A29.1,29.1,0,0,0,880.39,57.63Z" style="fill:url(#d)"/></g><path d="M941.11.89V470.11H.89V.89H941.11M942,0H0V471H942V0Z" style="fill:#d5d5d5"/><g style="mix-blend-mode:multiply;opacity:0.2"><path d="M139.82,154.53c-.79,1-2.32,2.92-3,4-3.38,5.57-9.68,13.86-15.65,18.17l-8.29-6.63c4.91-3.12,9.48-8.16,10.94-10.94H91.08a77.55,77.55,0,0,0-8.42.53V148.56a57.45,57.45,0,0,0,8.42.73H125.5a45.61,45.61,0,0,0,8-.66Zm-27.32,9c0,15.58.33,29.91-18.37,40.32l-9.35-7.63a25.59,25.59,0,0,0,7.56-4c7.36-5.57,9-11.21,9-22a37.58,37.58,0,0,0-.53-6.63Z" style="fill:#1e3244"/><path d="M202.29,155.26a33.35,33.35,0,0,0-1.72,5.3c-1.59,6.24-4.31,16.32-10,24-6,8-15.32,14.85-27,18.64l-8.76-9.62c13.33-3,20.82-8.82,26.06-15.32a37.17,37.17,0,0,0,7.3-17.11H159c-3.25,0-6.9.2-8.62.33V150.15c2,.27,6.43.6,8.62.6h29.24a26.72,26.72,0,0,0,6.11-.6Z" style="fill:#1e3244"/><path d="M261.51,164.41c-3.11,3.45-8.82,8-14.85,11.87V197.7c0,2.52.07,6.5.53,8H235.25c.2-1.46.4-5.44.4-8V182.32A101.64,101.64,0,0,1,218.14,189l-5.37-9.22a89.05,89.05,0,0,0,23.68-8.95c6.83-4,13.72-9.49,17-13.86Z" style="fill:#1e3244"/><path d="M289.9,147.9c-.13,1.66-.27,2.85-.27,5.24v22.54c0,1.66.14,4.45.27,6.17H278c.07-1.32.33-4.18.33-6.23V153.14a50.85,50.85,0,0,0-.26-5.24Zm30.44-.6c-.14,2-.27,4.25-.27,7.16v14.46c0,13.33-3.12,20-8.16,25.27-4.44,4.64-11.4,8-16.24,9.55l-8.42-8.89c6.89-1.53,12.33-4,16.31-8.09,4.44-4.71,5.37-9.42,5.37-18.57V154.46a53.47,53.47,0,0,0-.46-7.16Z" style="fill:#1e3244"/><path d="M387.58,187.82a42.06,42.06,0,0,0,6.56-.6v11.61a56,56,0,0,0-6.56-.33h-43.7a61.82,61.82,0,0,0-6.9.33V187.22a40.73,40.73,0,0,0,6.9.6h15.85V162.69H348.05c-2.05,0-5,.13-6.69.33V152a51.33,51.33,0,0,0,6.69.46H384a53.58,53.58,0,0,0,6.5-.46v11c-2.13-.2-4.58-.33-6.5-.33H371v25.13Z" style="fill:#1e3244"/><path d="M444.34,193.26c0,3.18.14,7.76.67,9.61H432.27a87.9,87.9,0,0,0,.54-9.61v-20a121.32,121.32,0,0,1-21.69,8.35l-5.7-9.75A97.5,97.5,0,0,0,435.86,160c6.69-4.18,13.52-10.08,17.3-15.12l8.63,7.76a113.36,113.36,0,0,1-17.45,14.19Z" style="fill:#1e3244"/><path d="M516.83,185.23A208.68,208.68,0,0,0,494,175.75v17c0,1.79.4,7,.73,10h-12.6a73.59,73.59,0,0,0,.8-10V154.93a46.38,46.38,0,0,0-.8-8.62h12.54a77.61,77.61,0,0,0-.67,8.62V164c9,2.59,21.82,7.3,27.39,10Z" style="fill:#1e3244"/><path d="M562.45,164a91.17,91.17,0,0,1-5.17,18.56,67.48,67.48,0,0,1,6.56,10.42l-7.69,6.56a53.39,53.39,0,0,0-3.91-7.29,45.15,45.15,0,0,1-12.73,13.06,48.07,48.07,0,0,0-6.44-7.56,35.16,35.16,0,0,0,13.4-13.93c-3.38-4.57-7.1-9.15-10.61-13.06l6.76-5.5c2.52,2.72,5.24,5.77,7.89,8.88a74.36,74.36,0,0,0,2.59-11.47Zm34.29,2.12H590.1v28c0,5.18-.86,7.9-3.64,9.55s-7.1,2.06-12.6,2.06a39.29,39.29,0,0,0-3-10.41c3.45.2,7,.2,8.16.2s1.52-.34,1.52-1.46V166.07H564.77v-4.64H535.06v-8.89h11v-9.75h9.22v9.75H567v4.31h13.52V142.73h9.55v14.12h6.64Zm-25.8,4.31c3,4.24,6.23,9.81,7.29,13.79l-8.29,4.25c-.92-3.85-3.78-9.82-6.69-14.26Z" style="fill:#1e3244"/><path d="M621.93,166.53c0,11.08-1.12,28.39-7.29,39a43.58,43.58,0,0,0-8.35-5.44c5.57-9.55,6-23.81,6-33.56V150H635.6v-7.29h10.08V150H669v9.15H642.76c5,2.46,11,5.84,14.26,8.56l-7,7.16c-3.25-3.12-10.47-7.63-16-10.41l5.37-5.31H621.93Zm-1.92,30c2.52-5.11,3.72-12.54,4.25-20.16l8.68,1.85c-.59,7.9-1.59,16.65-4.37,22.09Zm41.38,3.64a53.76,53.76,0,0,0-2.25-9.28c-.86,10.54-3.25,13.66-9.55,13.66h-6c-7.76,0-9.61-2.85-9.61-11.27V171.57h9.55v21.62c0,2.52.26,2.79,1.72,2.79h3.45c1.59,0,1.92-1.53,2.19-10.28a26.28,26.28,0,0,0,7.82,3.64,95,95,0,0,0-4.84-11.67l8.62-3.31c3.72,7,7.43,15.78,8.43,21.95Z" style="fill:#1e3244"/><path d="M700.24,195a33.37,33.37,0,0,0,4.64-.86c6-1.48,10-5.68,10-11.88s-3-10.46-8.4-11.75a98.85,98.85,0,0,1-2.77,12.32c-2.82,9.45-7.07,15.8-12.65,15.8-5.83,0-10.32-6.35-10.32-14.42,0-11.22,9.7-20.77,22.35-20.77,12,0,19.67,8.31,19.67,19.05,0,9.93-5.87,17.24-18.19,19.29Zm-1.52-24.35c-7,1.91-10.51,8.26-10.51,12.8,0,4.1,1.43,6.25,3.06,6.25,1.91,0,3.34-2.86,5-8.35A69.75,69.75,0,0,0,698.72,170.68Z" style="fill:#1e3244"/><path d="M731.74,153.73h27.79v7.5H731.74Zm24.94,48.61h-13.6v2.39h-8.29v-23h21.89Zm-21.62-39.12h21.82v7.16H735.06Zm0,9.15h21.82v7.16H735.06Zm22-20.56H735.46v-7.16H757Zm-13.93,37.4v5.64h5.17v-5.64Zm39.46,7c2.72,0,3.18-1.46,3.65-9.29a28.66,28.66,0,0,0,8.88,3.78c-1.12,11.21-3.71,14.59-11.73,14.59h-9.75c-9,0-11.81-2.72-11.81-12.4V167.2h20V155H761.92v-9.15h29.57v33.62h-9.68v-3.18H771.53v16.51c0,3,.47,3.39,3.38,3.39Z" style="fill:#1e3244"/><path d="M867.29,187.42h-7V199h-9.82v-2.72h-9.68v.8c0,4.37-1,6.23-3.85,7.56s-6.49,1.32-12.2,1.32a28,28,0,0,0-3.11-7.42c2.71.13,6.63.13,7.69.13,1.26-.07,1.66-.46,1.66-1.59v-.8H811.59v-6.83H831v-2H805.15v-7.23H831V178.4h-19V172h19v-2H813.51V156H831v-2H806.81v-7.49H831v-3.78h9.81v3.78h24.8V154h-24.8v2h18.3v14.06h-18.3v2h19.5v8.15h7ZM831,164.15v-2.26h-8.29v2.26Zm9.81-2.26v2.26h8.42v-2.26Zm0,18.3h9.68V178.4h-9.68Zm9.68,7.23h-9.68v2h9.68Z" style="fill:#1e3244"/></g><path d="M133.82,148.53c-.79,1-2.32,2.92-3,4-3.38,5.57-9.68,13.86-15.65,18.17l-8.29-6.63c4.91-3.12,9.48-8.16,10.94-10.94H85.08a77.55,77.55,0,0,0-8.42.53V142.56a57.45,57.45,0,0,0,8.42.73H119.5a45.61,45.61,0,0,0,8-.66Zm-27.32,9c0,15.58.33,29.91-18.37,40.32l-9.35-7.63a25.59,25.59,0,0,0,7.56-4c7.36-5.57,9-11.21,9-22a37.58,37.58,0,0,0-.53-6.63Z" style="fill:#1e3244"/><path d="M196.29,149.26a33.35,33.35,0,0,0-1.72,5.3c-1.59,6.24-4.31,16.32-10,24-6,8-15.32,14.85-27,18.64l-8.76-9.62c13.33-3,20.82-8.82,26.06-15.32a37.17,37.17,0,0,0,7.3-17.11H153c-3.25,0-6.9.2-8.62.33V144.15c2,.27,6.43.6,8.62.6h29.24a26.72,26.72,0,0,0,6.11-.6Z" style="fill:#1e3244"/><path d="M255.51,158.41c-3.11,3.45-8.82,8-14.85,11.87V191.7c0,2.52.07,6.5.53,8H229.25c.2-1.46.4-5.44.4-8V176.32A101.64,101.64,0,0,1,212.14,183l-5.37-9.22a89.05,89.05,0,0,0,23.68-8.95c6.83-4,13.72-9.49,17-13.86Z" style="fill:#1e3244"/><path d="M283.9,141.9c-.13,1.66-.27,2.85-.27,5.24v22.54c0,1.66.14,4.45.27,6.17H272c.07-1.32.33-4.18.33-6.23V147.14a50.85,50.85,0,0,0-.26-5.24Zm30.44-.6c-.14,2-.27,4.25-.27,7.16v14.46c0,13.33-3.12,20-8.16,25.27-4.44,4.64-11.4,8-16.24,9.55l-8.42-8.89c6.89-1.53,12.33-4,16.31-8.09,4.44-4.71,5.37-9.42,5.37-18.57V148.46a53.47,53.47,0,0,0-.46-7.16Z" style="fill:#1e3244"/><path d="M381.58,181.82a42.06,42.06,0,0,0,6.56-.6v11.61a56,56,0,0,0-6.56-.33h-43.7a61.82,61.82,0,0,0-6.9.33V181.22a40.73,40.73,0,0,0,6.9.6h15.85V156.69H342.05c-2.05,0-5,.13-6.69.33V146a51.33,51.33,0,0,0,6.69.46H378a53.58,53.58,0,0,0,6.5-.46v11c-2.13-.2-4.58-.33-6.5-.33H365v25.13Z" style="fill:#1e3244"/><path d="M438.34,187.26c0,3.18.14,7.76.67,9.61H426.27a87.9,87.9,0,0,0,.54-9.61v-20a121.32,121.32,0,0,1-21.69,8.35l-5.7-9.75A97.5,97.5,0,0,0,429.86,154c6.69-4.18,13.52-10.08,17.3-15.12l8.63,7.76a113.36,113.36,0,0,1-17.45,14.19Z" style="fill:#1e3244"/><path d="M510.83,179.23A208.68,208.68,0,0,0,488,169.75v17c0,1.79.4,7,.73,10h-12.6a73.59,73.59,0,0,0,.8-10V148.93a46.38,46.38,0,0,0-.8-8.62h12.54a77.61,77.61,0,0,0-.67,8.62V158c9,2.59,21.82,7.3,27.39,10Z" style="fill:#1e3244"/><path d="M556.45,158a91.17,91.17,0,0,1-5.17,18.56,67.48,67.48,0,0,1,6.56,10.42l-7.69,6.56a53.39,53.39,0,0,0-3.91-7.29,45.15,45.15,0,0,1-12.73,13.06,48.07,48.07,0,0,0-6.44-7.56,35.16,35.16,0,0,0,13.4-13.93c-3.38-4.57-7.1-9.15-10.61-13.06l6.76-5.5c2.52,2.72,5.24,5.77,7.89,8.88a74.36,74.36,0,0,0,2.59-11.47Zm34.29,2.12H584.1v28c0,5.18-.86,7.9-3.64,9.55s-7.1,2.06-12.6,2.06a39.29,39.29,0,0,0-3-10.41c3.45.2,7,.2,8.16.2s1.52-.34,1.52-1.46V160.07H558.77v-4.64H529.06v-8.89h11v-9.75h9.22v9.75H561v4.31h13.52V136.73h9.55v14.12h6.64Zm-25.8,4.31c3,4.24,6.23,9.81,7.29,13.79l-8.29,4.25c-.92-3.85-3.78-9.82-6.69-14.26Z" style="fill:#1e3244"/><path d="M615.93,160.53c0,11.08-1.12,28.39-7.29,39a43.58,43.58,0,0,0-8.35-5.44c5.57-9.55,6-23.81,6-33.56V144H629.6v-7.29h10.08V144H663v9.15H636.76c5,2.46,11,5.84,14.26,8.56l-7,7.16c-3.25-3.12-10.47-7.63-16-10.41l5.37-5.31H615.93Zm-1.92,30c2.52-5.11,3.72-12.54,4.25-20.16l8.68,1.85c-.59,7.9-1.59,16.65-4.37,22.09Zm41.38,3.64a53.76,53.76,0,0,0-2.25-9.28c-.86,10.54-3.25,13.66-9.55,13.66h-6c-7.76,0-9.61-2.85-9.61-11.27V165.57h9.55v21.62c0,2.52.26,2.79,1.72,2.79h3.45c1.59,0,1.92-1.53,2.19-10.28a26.28,26.28,0,0,0,7.82,3.64,95,95,0,0,0-4.84-11.67l8.62-3.31c3.72,7,7.43,15.78,8.43,21.95Z" style="fill:#1e3244"/><path d="M694.24,189a33.37,33.37,0,0,0,4.64-.86c6-1.48,10-5.68,10-11.88s-3-10.46-8.4-11.75a98.85,98.85,0,0,1-2.77,12.32c-2.82,9.45-7.07,15.8-12.65,15.8-5.83,0-10.32-6.35-10.32-14.42,0-11.22,9.7-20.77,22.35-20.77,12,0,19.67,8.31,19.67,19.05,0,9.93-5.87,17.24-18.19,19.29Zm-1.52-24.35c-7,1.91-10.51,8.26-10.51,12.8,0,4.1,1.43,6.25,3.06,6.25,1.91,0,3.34-2.86,5-8.35A69.75,69.75,0,0,0,692.72,164.68Z" style="fill:#1e3244"/><path d="M725.74,147.73h27.79v7.5H725.74Zm24.94,48.61h-13.6v2.39h-8.29v-23h21.89Zm-21.62-39.12h21.82v7.16H729.06Zm0,9.15h21.82v7.16H729.06Zm22-20.56H729.46v-7.16H751Zm-13.93,37.4v5.64h5.17v-5.64Zm39.46,7c2.72,0,3.18-1.46,3.65-9.29a28.66,28.66,0,0,0,8.88,3.78c-1.12,11.21-3.71,14.59-11.73,14.59h-9.75c-9,0-11.81-2.72-11.81-12.4V161.2h20V149H755.92v-9.15h29.57v33.62h-9.68v-3.18H765.53v16.51c0,3,.47,3.39,3.38,3.39Z" style="fill:#1e3244"/><path d="M861.29,181.42h-7V193h-9.82v-2.72h-9.68v.8c0,4.37-1,6.23-3.85,7.56s-6.49,1.32-12.2,1.32a28,28,0,0,0-3.11-7.42c2.71.13,6.63.13,7.69.13,1.26-.07,1.66-.46,1.66-1.59v-.8H805.59v-6.83H825v-2H799.15v-7.23H825V172.4h-19V166h19v-2H807.51V150H825v-2H800.81v-7.49H825v-3.78h9.81v3.78h24.8V148h-24.8v2h18.3v14.06h-18.3v2h19.5v8.15h7ZM825,158.15v-2.26h-8.29v2.26Zm9.81-2.26v2.26h8.42v-2.26Zm0,18.3h9.68V172.4h-9.68Zm9.68,7.23h-9.68v2h9.68Z" style="fill:#1e3244"/><path d="M483.52,319.93C499,342,509.7,361.65,508,383.71a21,21,0,0,1-1.58,7.3,24.28,24.28,0,0,1-6.83,7.81,188.19,188.19,0,0,1-19.77,14.39,60,60,0,0,1-15.31,7.44c-7.25,2.06-14.83,1.74-22.22.8-16.33-2-33-7.18-43.46-19.12-11.53-13.09-13.53-31.69-14.95-49.22-.56-6.95-1-14.53,2.78-20.72a31.28,31.28,0,0,1,10.43-9.58,62.21,62.21,0,0,1,23.59-9.71c18.3-3,35.69,5.87,51.42,14.65Z" style="fill:#f8cfb4"/><path d="M508.66,459.13,457.81,371c-1.57-2.7-3.17-5.93-1.91-8.69a9.78,9.78,0,0,1,3.47-3.67l29-22a4.24,4.24,0,0,1,3.72-1.24,4.05,4.05,0,0,1,1.74,1.46c23.87,29.56,45.43,58.41,69.3,87.95a2.6,2.6,0,0,1-.75,4.71L512,458.5Z" style="fill:#f8cfb4"/><path d="M346,309.24l-22.13,2.46a79.81,79.81,0,0,0-10.2,1.59c-2.77.67-5.76,1.93-6.8,4.57a6.68,6.68,0,0,0,2.07,7.4,16.17,16.17,0,0,0,7.37,3.33c12.41,2.9,25.38,1.28,38-.32" style="fill:#f8cfb4"/><rect x="355.07" y="250.12" width="110.44" height="177.88" rx="17.38" transform="translate(-114.56 250.57) rotate(-30)" style="fill:#1e3244"/><rect x="360.58" y="255.93" width="98.74" height="165.55" rx="6.95" transform="translate(-114.43 250.35) rotate(-30)" style="fill:#f4f5f8"/><rect x="367.12" y="275.83" width="85.01" height="127.52" rx="10.43" transform="translate(-114.92 250.31) rotate(-30)" style="fill:#fff"/><rect x="367.98" y="276.7" width="83.27" height="125.78" rx="9.56" transform="translate(-114.92 250.31) rotate(-30)" style="fill:none;stroke:#e3e3e3"/><path d="M350,300.42l55.63-32.07a10.44,10.44,0,0,1,14.24,3.82l5,8.69h0L351.17,323.4h0l-5-8.69a10.43,10.43,0,0,1,3.77-14.26Z" style="fill:#ffbf2e"/><circle cx="355.2" cy="308.4" r="6.59" style="fill:#fff"/><path d="M414.29,280.29a1.42,1.42,0,0,1,.54-1.94l0,0a1.42,1.42,0,1,1,1.54,2.38h-.12a1.44,1.44,0,0,1-2-.49Zm-1.87-3.23a1.47,1.47,0,0,1,2.53-1.48,1.42,1.42,0,0,1-.55,1.94h0A1.47,1.47,0,0,1,412.42,277.06Zm-1.86-3.25a1.43,1.43,0,0,1,.62-1.92h0a1.43,1.43,0,0,1,2,.47,1.5,1.5,0,0,1-2.57,1.52Z" style="fill:#66727d"/><path d="M352.21,302.79a6.83,6.83,0,1,0,9.34,2.5h0a6.84,6.84,0,0,0-9.33-2.51Zm1.32,2.29a2.44,2.44,0,1,1-.88,3.33h0a2.4,2.4,0,0,1,.86-3.3Zm4.75,8.21a5.22,5.22,0,0,1-4.43.4,3,3,0,0,1,1.53-2.78l.17-.09a3.43,3.43,0,0,0,1.08-.4,3.81,3.81,0,0,0,.89-.71.4.4,0,0,1,.15-.14,3,3,0,0,1,3.11.05A5.21,5.21,0,0,1,358.28,313.29Z" style="fill:#abb2b8"/><rect x="363.45" y="305.16" width="70.36" height="30.77" transform="translate(-106.87 242.26) rotate(-30)" style="fill:#e3e3e3"/><line x1="382.58" y1="359.62" x2="440.87" y2="325.96" style="fill:none;stroke:#e3e3e3;stroke-linecap:round;stroke-width:2px"/><line x1="386.23" y1="365.41" x2="444.51" y2="331.77" style="fill:none;stroke:#e3e3e3;stroke-linecap:round;stroke-width:2px"/><line x1="389.66" y1="371.33" x2="447.93" y2="337.68" style="fill:none;stroke:#e3e3e3;stroke-linecap:round;stroke-width:2px"/><line x1="393.08" y1="377.24" x2="436.48" y2="352.19" style="fill:none;stroke:#e3e3e3;stroke-linecap:round;stroke-width:2px"/><path d="M390,390.68l73.63-42.5h0l9.44,16.36a10.42,10.42,0,0,1-3.83,14.23l-55.63,32.08A10.43,10.43,0,0,1,399.46,407L390,390.61Z" style="fill:#ffbf2e"/><path d="M407.48,385.64a3.62,3.62,0,0,0-4.05,2.75l-.19.71-.73-.19a3.59,3.59,0,0,0-4.38,2.12,3.64,3.64,0,0,0,2.18,4.68h.27l6.95,1.93a.81.81,0,0,0,1-.56h0l1.74-6.95a3.69,3.69,0,0,0-2.56-4.44Z" style="fill:#f75c4f"/><path d="M424.67,387.47a5.71,5.71,0,1,1,1.18-3.31l1.88,2.23Z" style="fill:#fff"/><path d="M460,353.72l-9.87,5.71L457,371.28l3.79-4.94,6.08-.76Z" style="fill:#fae5a1"/><path d="M395.24,257.46l-48.07,27.82a4,4,0,0,1-4.66-.64l-5.33-5.1L395.26,246l1.74,7.12a4,4,0,0,1-1.74,4.4Z" style="fill:#1e3244"/><path d="M373,375.35c3.91-.31,7.46-2.71,11.16-2.23s4.87-.71,7.31,2.16c1.47,1.74,2.86,3.93,2.22,6.15a13.77,13.77,0,0,1-5,5.53,42.63,42.63,0,0,1-18.44,5.22c-4.23.4-8.69.69-12.54-1.18s-6.39-6.85-4.25-10.43a10.84,10.84,0,0,1,3.68-3.48C359.24,375.68,369.74,375.68,373,375.35Z" style="fill:#f8cfb4"/><path d="M360.66,350.61c3.9-.31,8.59-1.08,12.17-.57a10.23,10.23,0,0,1,7.75,4.29c1.47,1.74,2.87,3.93,2.23,6.16a6.79,6.79,0,0,1-3.6,3.77c-6.14,3.48-13.35,4.21-20.34,4.85-4.22.4-8.69.69-12.53-1.18s-6.4-6.85-4.28-10.52a11.07,11.07,0,0,1,3.69-3.48C348,352.58,357.31,350.89,360.66,350.61Z" style="fill:#f8cfb4"/><path d="M387.45,400a67.86,67.86,0,0,1,12.17-.58,10.14,10.14,0,0,1,7.74,4.28c1.47,1.74,2.88,3.95,2.24,6.17a6.84,6.84,0,0,1-3.6,3.78c-6.14,3.47-13.35,4.2-20.34,4.85-4.24.38-8.69.67-12.53-1.19s-6.31-6.88-4.19-10.62a11,11,0,0,1,3.68-3.48C374.69,401.9,384.18,400.19,387.45,400Z" style="fill:#f8cfb4"/><path d="M539.38,411.48c-10.85-9.72-20.4-36.72-25.84-50.18-2.45-6.1-34-47.34-37.83-52.72a38.18,38.18,0,0,0-15.83-13.39c-8.31-3.67-17.86-6.49-30.22-12.17-1.44-.7-5.44-1.53-6.81-.71-2.42,1.39-1.1,7.72.34,10.1,5.92,9.75,15.65,15.64,28.17,24.34,1.53,1,5.91,6.78,6.27,8.58.28,1.29.46,6.19.72,7.5a74,74,0,0,0,6.59,20c3.12,7,8.43,11.07,12.16,15.64a25.36,25.36,0,0,0,20.71,9.18" style="fill:#f8cfb4"/><path d="M604.43,471H504.31L490.4,446.87l68.36-39.46Z" style="fill:#f7d66c"/><path d="M635.34,263.37c-2.68-19.09-39.93-29.63-83.19-23.55S476,266.3,478.68,285.39c2.26,16.05,29,26.06,63.17,25.21.5,3.75.67,9.48-1.6,14.58a.46.46,0,0,0,.68.58c3.34-2.28,11.64-8.41,16.75-16.29,1.39-.16,2.78-.34,4.19-.54C605.13,302.86,638,282.45,635.34,263.37Z" style="fill:#fff;stroke:#cbcbcb;stroke-linecap:round;stroke-linejoin:round;stroke-width:2px"/><path d="M507.93,287c.4.09.81.21,1.23.35s.85.26,1.29.38a12.21,12.21,0,0,0,1.39.28,6.91,6.91,0,0,0,1.51,0,8.67,8.67,0,0,0,1.85-.42,9.09,9.09,0,0,0,1.79-.84,10.48,10.48,0,0,0,1.62-1.23,10,10,0,0,0,1.37-1.59c.44-.63.81-1.19,1.1-1.7a13.33,13.33,0,0,0,.69-1.33,6.4,6.4,0,0,0,.35-1,2.19,2.19,0,0,0,.06-.69,1.07,1.07,0,0,0-.36-.71,2.18,2.18,0,0,0-.83-.43,4.69,4.69,0,0,0-1.12-.18,7.93,7.93,0,0,0-1.28,0c-.25,0-.56.06-.91.12l-1,.16-1,.15c-.33.05-.62.09-.87.11a5.72,5.72,0,0,1-1.17,0,5.28,5.28,0,0,1-1.22-.29,4.21,4.21,0,0,1-1.15-.67,4.08,4.08,0,0,1-.94-1.13,4.76,4.76,0,0,1-.24-.54,2.71,2.71,0,0,1-.16-.68,5.15,5.15,0,0,1,0-.78c0-.24,0-.48.07-.71a6.5,6.5,0,0,1,.61-1.8,11.07,11.07,0,0,1,1.14-1.84,21.79,21.79,0,0,1,1.5-1.78c.55-.58,1.12-1.13,1.7-1.65s1.17-1,1.75-1.43,1.11-.81,1.62-1.12a9.58,9.58,0,0,1,2.18-1,10.85,10.85,0,0,1,2.27-.49,4.69,4.69,0,0,1,1.3,0,3.7,3.7,0,0,1,1.13.4,2.71,2.71,0,0,1,.82.76,2.42,2.42,0,0,1,.39,1.12,1.85,1.85,0,0,1,0,.63,1.35,1.35,0,0,1-.18.44.83.83,0,0,1-.27.26.92.92,0,0,1-.32.1,3.41,3.41,0,0,1-.85,0q-.39-.06-.75-.15l-.74-.16a2.57,2.57,0,0,0-.79,0,7.24,7.24,0,0,0-2.49.77,14.55,14.55,0,0,0-2.38,1.53,19.81,19.81,0,0,0-2.14,2c-.65.71-1.24,1.39-1.75,2a3.51,3.51,0,0,0-.57,1,2.19,2.19,0,0,0-.12.92,1.13,1.13,0,0,0,.65.92,2.36,2.36,0,0,0,1.35.22l1-.13,1.17-.16,1.16-.18,1-.13a6.93,6.93,0,0,1,2,.09,5.35,5.35,0,0,1,1.8.69,4.26,4.26,0,0,1,1.34,1.3,4.06,4.06,0,0,1,.65,1.9,4.67,4.67,0,0,1-.06,1.39,7.36,7.36,0,0,1-.41,1.45A12.88,12.88,0,0,1,524,283c-.26.48-.53,1-.82,1.44a19.16,19.16,0,0,1-1.8,2.44,15.38,15.38,0,0,1-2.2,2.08,12.15,12.15,0,0,1-2.55,1.51,9.12,9.12,0,0,1-2.85.76,6.54,6.54,0,0,1-1.33,0,9,9,0,0,1-1.37-.2,6.88,6.88,0,0,1-1.3-.45,5.28,5.28,0,0,1-1.11-.67,4,4,0,0,1-.8-.9,2.57,2.57,0,0,1-.38-1.13,1.94,1.94,0,0,1,0-.59C507.54,287.1,507.69,287,507.93,287Z" style="fill:#1e3244"/><path d="M541.11,288.4a1.83,1.83,0,0,1-1.48-.31,1.86,1.86,0,0,1-.52-1.21,5.57,5.57,0,0,1,0-.92c0-.33.06-.67.11-1,.1-.62.21-1.23.35-1.84s.27-1.23.4-1.85.26-1.25.38-1.87.23-1.25.31-1.87a.8.8,0,0,0,0-.22.55.55,0,0,0-.16-.36.48.48,0,0,0-.37-.1,2.62,2.62,0,0,0-.79.24,3.81,3.81,0,0,0-.68.41,22.29,22.29,0,0,0-1.83,1.71,18.49,18.49,0,0,0-1.4,1.72,20.52,20.52,0,0,0-1.16,1.88c-.35.65-.73,1.37-1.11,2.15a16.11,16.11,0,0,0-.68,2,12.38,12.38,0,0,1-.4,1.3,1.83,1.83,0,0,1-.48.74,1.63,1.63,0,0,1-.89.31,1.11,1.11,0,0,1-1-.29,1.71,1.71,0,0,1-.38-1,4.78,4.78,0,0,1,0-1.12l3.23-22.91a1.79,1.79,0,0,1,.13-.46A1.64,1.64,0,0,1,533,263a1.89,1.89,0,0,1,.45-.38,1.34,1.34,0,0,1,.61-.2,5.28,5.28,0,0,1,.58,0,3.2,3.2,0,0,1,.56,0,1,1,0,0,1,.43.21.61.61,0,0,1,.21.42v.28c0,.14,0,.31-.06.49q-.53,3.76-1.14,7.84t-1.26,8.25a22.83,22.83,0,0,1,1.9-2.55,16.26,16.26,0,0,1,2.1-2.06,10.76,10.76,0,0,1,2.3-1.44,8.12,8.12,0,0,1,2.57-.71,1.68,1.68,0,0,1,1.39.41,2.08,2.08,0,0,1,.62,1.34,3.29,3.29,0,0,1,0,.77c-.08.54-.18,1.06-.3,1.58l-.36,1.57c-.13.52-.26,1.06-.38,1.6a15.16,15.16,0,0,0-.3,1.66,13.86,13.86,0,0,0-.16,2.06c0,.65,0,1.16,0,1.54a5.21,5.21,0,0,1,0,1,2.89,2.89,0,0,1-.26.83,1.75,1.75,0,0,1-.52.62A1.46,1.46,0,0,1,541.11,288.4Z" style="fill:#1e3244"/><path d="M556.51,285.07a6.59,6.59,0,0,1,0-1.18,9.54,9.54,0,0,0-.07-1.71c-.34.31-.72.67-1.13,1.09s-.84.82-1.29,1.21a10.77,10.77,0,0,1-1.35,1,3.09,3.09,0,0,1-1.31.48,2.92,2.92,0,0,1-1-.05,2.6,2.6,0,0,1-.82-.32,5.27,5.27,0,0,1-1.44-1.28,3.48,3.48,0,0,1-.57-1.62,5.15,5.15,0,0,1,0-.88,9.87,9.87,0,0,1,.11-1.08,14.9,14.9,0,0,1,1.69-5.17,15.17,15.17,0,0,1,3.47-4.28,4.74,4.74,0,0,1,1.7-1,10,10,0,0,1,1.76-.37c.26,0,.55,0,.87,0H558l.63-.18a3.86,3.86,0,0,1,.51-.09,2.15,2.15,0,0,1,.86.05,1.3,1.3,0,0,1,.57.3,1.38,1.38,0,0,1,.35.49,1.9,1.9,0,0,1,.16.61,2.66,2.66,0,0,1,0,.85c-.07.28-.13.55-.19.83l-1.29,9.14c0,.49,0,.94,0,1.35a5.31,5.31,0,0,1-.09,1.15c0,.1,0,.23-.08.39a1.48,1.48,0,0,1-.2.47,1.67,1.67,0,0,1-.39.41,1.34,1.34,0,0,1-.64.22,5,5,0,0,1-.84,0,1.23,1.23,0,0,1-.5-.15.59.59,0,0,1-.26-.28A1.93,1.93,0,0,1,556.51,285.07Zm-6.14-4.51a6.34,6.34,0,0,0-.08.69,5.27,5.27,0,0,0,0,.89,2.41,2.41,0,0,0,.22.8.57.57,0,0,0,.63.31,2.94,2.94,0,0,0,1.29-.46,6.43,6.43,0,0,0,1.08-.87c.44-.45.89-.94,1.34-1.48a19.16,19.16,0,0,0,1.26-1.7,13.16,13.16,0,0,0,1-1.78,6.84,6.84,0,0,0,.58-1.78,11.48,11.48,0,0,0,.11-1.16,7,7,0,0,0,0-1.15.93.93,0,0,0-.15-.42.39.39,0,0,0-.41-.18,4.79,4.79,0,0,0-1.63.5,7.83,7.83,0,0,0-1.52,1,9.64,9.64,0,0,0-1.34,1.43,11.91,11.91,0,0,0-1.11,1.71,11.25,11.25,0,0,0-.81,1.82A9.11,9.11,0,0,0,550.37,280.56Z" style="fill:#1e3244"/><path d="M565.31,283.12c.06-.8.14-1.68.23-2.65s.19-1.94.29-2.93.2-2,.29-2.92.17-1.83.22-2.62c0-.11,0-.21-.05-.29l0-.28a9.3,9.3,0,0,1,0-1.06,7.27,7.27,0,0,1,.09-1,2,2,0,0,1,.32-.91,1,1,0,0,1,.71-.31,1.42,1.42,0,0,1,.8.11,1.38,1.38,0,0,1,.52.47,2,2,0,0,1,.3.71,7.53,7.53,0,0,1,.14.85c0,.16,0,.33,0,.52s0,.35,0,.46q.42-.54.9-1.11a9.29,9.29,0,0,1,1-1.05,6.48,6.48,0,0,1,1.2-.81,3.55,3.55,0,0,1,1.93-.43,5.77,5.77,0,0,1,.58.08,5.27,5.27,0,0,1,.73.15,2.85,2.85,0,0,1,.74.33,3.78,3.78,0,0,1,1.05.95,2.53,2.53,0,0,1,.52,1.25,1.85,1.85,0,0,1-.05.56,1.78,1.78,0,0,1-.22.57,1.49,1.49,0,0,1-.37.45.9.9,0,0,1-.51.22,2.09,2.09,0,0,1-.71-.07,1.61,1.61,0,0,1-1-.57l-.28-.35-.24-.32a1.66,1.66,0,0,0-.16-.2h-.19l-.19,0a3.28,3.28,0,0,0-1.59.61,7.7,7.7,0,0,0-1.34,1.22,12.89,12.89,0,0,0-1.1,1.48c-.33.52-.61,1-.85,1.4-.13.94-.28,1.93-.45,3s-.32,2.17-.48,3.32l0,.43c0,.33.06.68.07,1a3.15,3.15,0,0,1-.1.95,1.52,1.52,0,0,1-.49.49,1.76,1.76,0,0,1-.78.26,1.28,1.28,0,0,1-1.12-.35,1.81,1.81,0,0,1-.47-1.06A2.05,2.05,0,0,1,565.31,283.12Z" style="fill:#1e3244"/><path d="M579,276.86a2,2,0,0,1,.26-1.28,1.86,1.86,0,0,1,1-.78c.1-.26.25-.62.47-1.07a15.25,15.25,0,0,1,.81-1.48,17.1,17.1,0,0,1,1.16-1.63,11.84,11.84,0,0,1,1.47-1.54,8.89,8.89,0,0,1,1.81-1.2,6,6,0,0,1,2.13-.62,5.41,5.41,0,0,1,1.73.06,3.4,3.4,0,0,1,1.27.53,2.78,2.78,0,0,1,.81.93,3.38,3.38,0,0,1,.37,1.24,3.74,3.74,0,0,1,0,1.11,3.79,3.79,0,0,1-.7,1.75,7.3,7.3,0,0,1-1.38,1.4,10.34,10.34,0,0,1-1.8,1.08,20.61,20.61,0,0,1-2,.81c-.67.23-1.31.42-1.93.57l-1.62.37a3.43,3.43,0,0,0-.18.79,4.07,4.07,0,0,0,0,.92,1.77,1.77,0,0,0,.94,1.44,3.75,3.75,0,0,0,2.2.31,6.26,6.26,0,0,0,1.51-.34,8.83,8.83,0,0,0,1.32-.6,10.93,10.93,0,0,0,1.16-.73c.36-.26.69-.52,1-.76a9.85,9.85,0,0,1,1.09-.81,2.24,2.24,0,0,1,.94-.38c.28,0,.47,0,.56.15a.92.92,0,0,1,.17.44c0,.09,0,.18,0,.26a1.41,1.41,0,0,1,0,.22,2.68,2.68,0,0,1-.24.91,3,3,0,0,1-.56.83,11.69,11.69,0,0,1-3.4,2.35,12.89,12.89,0,0,1-3.88,1c-.27,0-.6,0-1,.05a8.09,8.09,0,0,1-1.17-.09,6.15,6.15,0,0,1-1.21-.31,3.72,3.72,0,0,1-1.1-.65,3.93,3.93,0,0,1-.85-1.09,4.67,4.67,0,0,1-.45-1.65,7.75,7.75,0,0,1,0-1.79.77.77,0,0,1-.44-.19A.79.79,0,0,1,579,276.86ZM589,271.07a.47.47,0,0,0,0-.16s0-.1,0-.15a.77.77,0,0,0-.41-.65,1.35,1.35,0,0,0-.83-.14,3,3,0,0,0-1.42.54,6.86,6.86,0,0,0-1.25,1.11,8.65,8.65,0,0,0-1,1.37,9.56,9.56,0,0,0-.64,1.29,16.33,16.33,0,0,0,2.2-.57,8.17,8.17,0,0,0,1.7-.76,4.54,4.54,0,0,0,1.14-.9A2,2,0,0,0,589,271.07Z" style="fill:#1e3244"/><path d="M601.4,278.32a2.77,2.77,0,0,1-.68,2.12,2.9,2.9,0,0,1-2,1.06,2.11,2.11,0,0,1-2.33-1.89,2.79,2.79,0,0,1,.72-2.15,3,3,0,0,1,2-1.1,1.94,1.94,0,0,1,1.52.47A2.16,2.16,0,0,1,601.4,278.32Zm3.4-21.58a5.69,5.69,0,0,1-.46,2.22c-.28.76-.78,2.58-1.53,5.44s-1.18,4.63-1.34,5.31a17.13,17.13,0,0,0-.36,2.46,1.35,1.35,0,0,1-1.4,1.26,1.48,1.48,0,0,1-1.85-1.48c-.12-1.16.33-3.46,1.37-6.9a59,59,0,0,1,2.47-7.11c.61-1.3,1.27-2,1.95-2.06S604.73,256.1,604.8,256.74Z" style="fill:#1e3244"/><path d="M244.68,89.75h10.64V92.2H244.68Zm9.52,18.62h-5.67v1h-2.68v-8.86h8.35Zm-8.27-15h8.35v2.36h-8.35Zm0,3.56h8.35v2.31h-8.35Zm8.43-8.32h-8.27V86.27h8.27ZM248.53,103v3h3v-3Zm16.15,3.64c1.17,0,1.35-.6,1.53-3.85a9.15,9.15,0,0,0,2.86,1.2c-.39,4.31-1.22,5.56-4.16,5.56h-4.29c-3.22,0-4.24-.86-4.24-4.18V95.13h8.22V89.7h-8.27V86.76H267.7V99.35h-3.1V98.07h-5.07v7.26c0,1.09.21,1.27,1.43,1.27Z" style="fill:#1e3244"/><path d="M316.43,102.52h-2.7V107h-3.15V106H305.9v.8c0,1.54-.36,2.16-1.38,2.6a13.66,13.66,0,0,1-4.6.44,9.4,9.4,0,0,0-1-2.44c1.25.05,2.78.05,3.2.05s.65-.18.65-.65V106h-7.91v-2.24h7.91v-1.22h-10.3v-2.37h10.3V99h-7.7V97h7.7V95.81h-7.05V90.66h7.05V89.6h-9.7V87.15h9.7V85.46h3.14v1.69h9.94V89.6H305.9v1.06h7.39v5.15H305.9V97h7.83v3.2h2.7Zm-13.67-8.66V92.61h-4.09v1.25Zm3.14-1.25v1.25h4.21V92.61Zm0,7.54h4.68V99H305.9Zm4.68,2.37H305.9v1.22h4.68Z" style="fill:#1e3244"/><path d="M358.51,102.8c1.51,2.71,3.46,3.7,6,4.48a7.39,7.39,0,0,0-1.77,2.57,11,11,0,0,1-6.21-5.12c-1.1,2.08-3.18,3.92-7,5.15a11.25,11.25,0,0,0-1.64-2.29c4-1.25,5.72-2.94,6.45-4.79h-4.76V95.63h5.26V94h-3.25V92.64a16.94,16.94,0,0,1-2.14,1.27,11.7,11.7,0,0,0-.75-1.51v1.25h-2.37V94.9c.71.91,2.53,3.69,2.92,4.34l-1.56,2.39c-.29-.75-.81-1.87-1.36-3v11h-2.86v-9.57a20.56,20.56,0,0,1-2.36,5,15.51,15.51,0,0,0-1.41-2.75,25.54,25.54,0,0,0,3.59-8.74h-3V90.79h3.17V85.46h2.86v5.33h2.37V91a16.11,16.11,0,0,0,6-5.48h2.81a16.46,16.46,0,0,0,7.15,5.69,17.82,17.82,0,0,0-1.59,2.71,23.16,23.16,0,0,1-2.05-1.2V94h-3.43v1.67h5.54v7.17Zm-3.74-2.36a8.82,8.82,0,0,0,0-.89V98h-2.58v2.45Zm4.55-9a17.83,17.83,0,0,1-3.15-3.28,16.46,16.46,0,0,1-3,3.28ZM357.58,98v1.64a7.31,7.31,0,0,1,0,.81h2.78V98Z" style="fill:#1e3244"/><path d="M396.49,105a24.11,24.11,0,0,1-6.5,4.57,24.8,24.8,0,0,0-2.37-2.18,17.18,17.18,0,0,0,5.93-3.51Zm4.57-1.41v6.17H398v-6.06c-3.62.1-6.95.18-9.6.23l-.15-2.75c1.63,0,3.64,0,5.85,0,.39-.21.78-.44,1.17-.68a32.16,32.16,0,0,0-4.37-2.73l2-1.76c.33.18.72.36,1.09.57a28.92,28.92,0,0,0,2.44-2.24h-5.2v2.81h-2.94V91.73H398V90.14h-9.41V87.49H398v-2h3v2h9.6v2.65H401v1.59H411v5.38h-3.07V94.3h-8.61l.81.39a49.11,49.11,0,0,1-3.88,3.12c.57.37,1.12.73,1.59,1.07A48.36,48.36,0,0,0,402.88,95l2.76,1.48a73.66,73.66,0,0,1-6.89,4.6l6.11-.07c-.62-.47-1.25-.89-1.85-1.28l2-1.56a42.08,42.08,0,0,1,6.17,4.58L409,104.55a16.7,16.7,0,0,0-1.25-1.17Zm3.85.21a47.5,47.5,0,0,1,6.35,3.95l-2.55,1.75a38.82,38.82,0,0,0-6.14-4.14Z" style="fill:#1e3244"/><path d="M441.64,87.49a22.62,22.62,0,0,0-.63,2.29,67.94,67.94,0,0,0-1.22,10,11.57,11.57,0,0,0,.11,1.66c.33-.91.75-1.77,1.14-2.63l1.59,1.28a61.9,61.9,0,0,0-1.85,6.13,4.82,4.82,0,0,0-.13,1.2c0,.26,0,.7,0,1.07l-2.92.2a31,31,0,0,1-1-8.21,75.12,75.12,0,0,1,1.07-10.74,20.16,20.16,0,0,0,.23-2.52Zm15.81,19.42a27.06,27.06,0,0,0-3.12-2.57c-.16,2.44-1.56,4.21-5.05,4.21s-5.77-1.51-5.77-4.21,2.21-4.42,5.72-4.42a11.3,11.3,0,0,1,1.69.1c-.08-1.58-.16-3.46-.18-5.28-.62,0-1.25,0-1.85,0-1.51,0-3,0-4.5-.16V91.55a44.6,44.6,0,0,0,4.5.23c.6,0,1.23,0,1.82,0,0-1.27,0-2.31,0-2.86a14.21,14.21,0,0,0-.16-1.69h3.7c-.08.5-.13,1.12-.16,1.67S454,90.4,454,91.55c1.41-.16,2.76-.34,4-.6v3.2c-1.25.18-2.6.33-4,.44.05,2.49.18,4.55.28,6.29a16.29,16.29,0,0,1,5,3.33Zm-6.4-4.18a7.68,7.68,0,0,0-2.08-.29c-1.46,0-2.44.6-2.44,1.56s1,1.51,2.39,1.51c1.58,0,2.13-.83,2.13-2.34Z" style="fill:#1e3244"/><path d="M489.7,99.55a11,11,0,0,0-.44,2.6c0,1.64,1.56,2.84,5.28,2.84a36.25,36.25,0,0,0,9-1l0,3.62a39.64,39.64,0,0,1-8.94.88c-5.9,0-8.87-2-8.87-5.51a16.43,16.43,0,0,1,.52-3.72Zm-2.18-10.92a66.56,66.56,0,0,0,7,.32c2.55,0,5.48-.16,7.46-.37V92c-1.79.13-5,.31-7.44.31-2.7,0-4.94-.13-7-.28Z" style="fill:#1e3244"/><path d="M550,92.14c-2.67.42-6.76.91-10.22,1.1a42.27,42.27,0,0,1-1.17,4.44,12.59,12.59,0,0,1,6.4-1.61c4.16,0,6.92,2.24,6.92,5.51,0,5.8-5.57,7.88-13.89,7l-.91-3.33c5.64.91,11.34.23,11.34-3.56,0-1.54-1.35-2.84-3.85-2.84a8.84,8.84,0,0,0-7.12,3,7.48,7.48,0,0,0-.73,1.12l-3-1.09a41.51,41.51,0,0,0,2.93-8.63c-1.63,0-3.14-.13-4.44-.26v-3.2a35.4,35.4,0,0,0,5,.49c0-.39.13-.72.16-1a16.39,16.39,0,0,0,.13-2.6l3.64.16a25.24,25.24,0,0,0-.6,2.63l-.15.78A62,62,0,0,0,549.93,89Z" style="fill:#1e3244"/><path d="M584.92,97.81a12.6,12.6,0,0,1,7.56-2.44c4.53,0,7.15,2.78,7.15,5.9,0,4.71-3.72,8.32-14.43,7.38l-1-3.38c7.73,1.1,11.81-.8,11.81-4.08,0-1.66-1.59-2.88-3.85-2.88a9,9,0,0,0-7.1,3,5.55,5.55,0,0,0-1,1.51l-3-.75a93.55,93.55,0,0,0,1.27-10.74l3.49.47C585.54,93.24,585.1,96.33,584.92,97.81Zm.8-11.18a80.77,80.77,0,0,0,10.3,2l-.78,3.18c-2.6-.34-8.35-1.54-10.35-2.06Z" style="fill:#1e3244"/><path d="M636.59,87c-.15.68-.34,1.48-.47,2.13s-.33,1.72-.52,2.66c.86-.06,1.64-.11,2.16-.11,2.73,0,4.66,1.22,4.66,4.92,0,3-.37,7.15-1.46,9.38-.86,1.8-2.29,2.37-4.24,2.37a14.26,14.26,0,0,1-3.07-.37l-.57-3.4a15.17,15.17,0,0,0,3.15.54,1.87,1.87,0,0,0,1.92-1.11c.73-1.43,1.07-4.5,1.07-7,0-2-.89-2.34-2.52-2.34-.42,0-1,0-1.77.1-1,3.9-2.86,10-5.23,13.76l-3.38-1.35c2.52-3.38,4.27-8.53,5.2-12-.91.1-1.71.21-2.21.28-.73.08-2,.26-2.86.39l-.28-3.48a22.61,22.61,0,0,0,2.73,0c.8,0,2-.1,3.32-.21a28.5,28.5,0,0,0,.55-5.46Zm8.89,2.42A46.29,46.29,0,0,1,650,99l-3.25,1.53c-.67-2.86-2.52-7.51-4.37-9.8Z" style="fill:#1e3244"/><path d="M680.1,97.81a12.63,12.63,0,0,1,7.57-2.44c4.52,0,7.15,2.78,7.15,5.9,0,4.71-3.72,8.32-14.43,7.38l-1-3.38c7.72,1.1,11.81-.8,11.81-4.08,0-1.66-1.59-2.88-3.85-2.88a9,9,0,0,0-7.1,3,5.55,5.55,0,0,0-1,1.51l-3-.75a93.55,93.55,0,0,0,1.27-10.74l3.49.47C680.73,93.24,680.29,96.33,680.1,97.81Zm.81-11.18a80.11,80.11,0,0,0,10.3,2l-.78,3.18c-2.6-.34-8.35-1.54-10.35-2.06Z" style="fill:#1e3244"/></g></svg>