<svg xmlns="http://www.w3.org/2000/svg" xmlns:xlink="http://www.w3.org/1999/xlink" viewBox="0 0 942 471"><defs><linearGradient id="a" x1="375.74" y1="124.52" x2="859.39" y2="688" gradientUnits="userSpaceOnUse"><stop offset="0" stop-color="#f7d66c"/><stop offset="1" stop-color="#ffbf2e"/></linearGradient><linearGradient id="b" x1="643.79" y1="361.24" x2="696.41" y2="361.24" xlink:href="#a"/><linearGradient id="c" x1="690.9" y1="303.25" x2="735.13" y2="303.25" xlink:href="#a"/><linearGradient id="d" x1="743.32" y1="326.53" x2="771.31" y2="326.53" xlink:href="#a"/><linearGradient id="e" x1="782.02" y1="313.66" x2="809.28" y2="313.66" xlink:href="#a"/><linearGradient id="f" x1="813.55" y1="263.6" x2="847.47" y2="263.6" xlink:href="#a"/><linearGradient id="g" x1="182.06" y1="214.36" x2="199.19" y2="246.56" gradientUnits="userSpaceOnUse"><stop offset="0" stop-color="#f8d05b"/><stop offset="1" stop-color="#fda61a"/></linearGradient><linearGradient id="h" x1="202.28" y1="206.39" x2="210.87" y2="222.54" xlink:href="#g"/><linearGradient id="i" x1="209.84" y1="184.5" x2="227.26" y2="217.25" xlink:href="#g"/><linearGradient id="j" x1="178.83" y1="188.38" x2="184.99" y2="199.96" xlink:href="#g"/><linearGradient id="k" x1="194.3" y1="190.97" x2="195.19" y2="192.64" xlink:href="#g"/><linearGradient id="l" x1="186.34" y1="197.35" x2="191.06" y2="206.23" xlink:href="#g"/><linearGradient id="m" x1="263.63" y1="185.54" x2="276.28" y2="209.34" xlink:href="#g"/><linearGradient id="n" x1="297.19" y1="190.28" x2="304.43" y2="203.89" xlink:href="#g"/><linearGradient id="o" x1="291.55" y1="193.27" x2="291.56" y2="193.27" xlink:href="#g"/><linearGradient id="p" x1="272.4" y1="203.45" x2="291.52" y2="239.41" xlink:href="#g"/><linearGradient id="q" x1="259.27" y1="239.32" x2="262.19" y2="244.81" xlink:href="#g"/><linearGradient id="r" x1="352.89" y1="207.3" x2="364.39" y2="228.91" xlink:href="#g"/><linearGradient id="s" x1="349.58" y1="242.17" x2="357" y2="256.12" xlink:href="#g"/><linearGradient id="t" x1="334.04" y1="218.63" x2="347.89" y2="244.67" xlink:href="#g"/><linearGradient id="u" x1="418.33" y1="216.27" x2="432.82" y2="243.52" xlink:href="#g"/><linearGradient id="v" x1="391.88" y1="191.09" x2="406.99" y2="219.5" xlink:href="#g"/><linearGradient id="w" x1="428.97" y1="188.89" x2="438.65" y2="207.09" xlink:href="#g"/><linearGradient id="x" x1="399.25" y1="221.94" x2="403.6" y2="230.11" xlink:href="#g"/><linearGradient id="y" x1="465.75" y1="194.28" x2="466.53" y2="195.75" xlink:href="#g"/><linearGradient id="z" x1="478.29" y1="216.16" x2="501.35" y2="259.51" xlink:href="#g"/><linearGradient id="aa" x1="466.37" y1="198.19" x2="472.23" y2="209.22" xlink:href="#g"/><linearGradient id="ab" x1="486.25" y1="184.88" x2="503.65" y2="217.6" xlink:href="#g"/><linearGradient id="ac" x1="522.06" y1="233.9" x2="523.94" y2="237.44" xlink:href="#g"/><linearGradient id="ad" x1="579.16" y1="250.98" x2="580.03" y2="252.61" xlink:href="#g"/><linearGradient id="ae" x1="556.51" y1="206.66" x2="580.34" y2="251.48" xlink:href="#g"/><linearGradient id="af" x1="584.7" y1="189.79" x2="592.63" y2="204.7" xlink:href="#g"/><linearGradient id="ag" x1="650" y1="213.85" x2="660.22" y2="233.07" xlink:href="#g"/><linearGradient id="ah" x1="626.98" y1="239.58" x2="634.33" y2="253.39" xlink:href="#g"/><linearGradient id="ai" x1="619.32" y1="190.34" x2="639.74" y2="228.74" xlink:href="#g"/><linearGradient id="aj" x1="628.59" y1="230.39" x2="633.6" y2="239.81" xlink:href="#g"/><linearGradient id="ak" x1="812.86" y1="126.97" x2="835.48" y2="126.97" xlink:href="#a"/><linearGradient id="al" x1="404.19" y1="387.45" x2="426.81" y2="387.45" xlink:href="#a"/><linearGradient id="am" x1="66.53" y1="187.03" x2="89.15" y2="187.03" xlink:href="#a"/></defs><rect width="942" height="471" style="fill:url(#a)"/><polygon points="0 0 835.48 0 664.87 471 0 471 0 0" style="fill:#fbf1da"/><rect x="36.63" y="31.17" width="868.74" height="408.65" style="fill:#fff"/><path d="M695.23,269.71c.24.86.41,1.86.62,2.62.37,1.29-1.24,3.84-1.89,6.47a28.49,28.49,0,0,0-.89,6.31,11.86,11.86,0,0,0-2.42,3.83L688.9,293c-.56,3,1,5.9-.72,10.23-2.09,5.36-3.31,8.85-4,10.67-.72,4.86-1.64,10.25-2.62,16.23a22.82,22.82,0,0,1-1.6,5.47l-.44,1.75a22.73,22.73,0,0,0-1.2,5.23l-.74,5.22a19.46,19.46,0,0,0-1.36,8.77c.56,4,.21,4-.07,5.5-.16.27.08,1.95.55,4.84.31,1.9-.25,3.22-1.7,3.87a2.21,2.21,0,0,1,.66,1.09l.12.43a9.57,9.57,0,0,1,.13,3.34,9,9,0,0,0,.13,3.34l.12.43a4.21,4.21,0,0,0,1.37,1.95,6,6,0,0,0-.24,3.68c.16,1.81.11,2.88-.23,3.32s-.33.91-.05,1.88.18,1.46-.25,1.58a5.4,5.4,0,0,1-1,.06c.06.22.23.4.32.73a8.53,8.53,0,0,1,.21,1.57,7.8,7.8,0,0,0,.35,2.46,2.1,2.1,0,0,0,.63,1l-.65.18.12.43a6.43,6.43,0,0,1,.18,1.47,6.92,6.92,0,0,1-.16,1.9c.25,1.68.56,4,.85,7.1a8.72,8.72,0,0,0-.06,4.33l.52,1-.65.18,1.07,5.41-.65.18c.31,1.08,2,7.93,2,7.93l.68-.07.32.72c-1.16.45-1.68,1.06-1.53,1.6a4.38,4.38,0,0,0,1,1.36,4.24,4.24,0,0,1,1,1.57c.15.54-.16,1.09-.82,1.63a1.39,1.39,0,0,0,1.3.1,5.5,5.5,0,0,0,1-.17,5,5,0,0,0,.34,2.46c.31,1.08,0,1.64-.86,1.88.15.54.47,1.26.68,2a31.89,31.89,0,0,1,1.12,3.53l.39,1.4a14.19,14.19,0,0,0,.75,2.23l.65-.18c.75-.21,1.25-.12,1.54.5a8.52,8.52,0,0,0,1,1.57l-2.37-.15.15.54a1.82,1.82,0,0,0,1.1,1.44,8.83,8.83,0,0,1,.3,2.71l-1.41-.88a5,5,0,0,1-.18-1.47A3.57,3.57,0,0,0,686,451a66.7,66.7,0,0,1-4.3-9,69.54,69.54,0,0,1-2.28-6.81A145.67,145.67,0,0,1,675,409c.59-1.22.64-3.1-.06-5.58l-.18-.65c-.82-2.91-.73-5,.37-6.51-.55-1.94-.85-3-.85-3a2.82,2.82,0,0,1,1.19-2.78l.43-.12c.33-.09.37-.34.36-.8s0-.82.11-.85l-.44.13c.24-1.24-.29-4.35-1.32-9.65-.81-4.08-.6-7.05.77-9.18a5.08,5.08,0,0,1-1-1.47l-.12-.43a9.52,9.52,0,0,1-.16-3.45c.42-1.4.62-2.74,1-4a5.33,5.33,0,0,1-.47-1.26,10.23,10.23,0,0,1-.27-4.24,13.56,13.56,0,0,0-.23-4.13c-.1-.32-.3-.61-.36-.83l1.66-3.61a5.27,5.27,0,0,1,0-.57c-.43-2.79-.27-1.79,1.37-8,3.8-14.12,2.57-13.54,2.93-15.15,0,.24.56-1.32,1.3-2.82a3.45,3.45,0,0,0,.76-2.66c-.12-.43-.43-.69-1.09-1a7.21,7.21,0,0,0,.26-4,3.14,3.14,0,0,1,1.22-3.5c6.79-10.18,4.13-22.48,11.14-36.8l-8.17,7.78-2.73,3.92-.82,1.63-5.84,5.72a7.45,7.45,0,0,0-2,5.94l-.76.22c.11.78-1.48,1.35-2.93,2.8s-1.87,2.86-1.64,4.08c-.07.6.52,1.83-.91,3.4,0,0-2.95,4-2.31,6.24-2,2.32-2.94,6.08-4,10.57-1.24,5.12-1.17,8.25-1.49,9.16l1.18-.34c3.78-1.07,10.59-2.53,12.06-2.25.13.43,0,.71-.4,1.05-.8.46-1.09.66-1.06.77l-1.91-1c-.65,1-2.76,2.18-4.81,2.76a11.09,11.09,0,0,1-2.11.36l-.31.56c-.14.74-3.68,2.2-4,4.39-.15,1.09-1,5.77-2,7.57,0,5.92,1.66,10.83-.34,13.61l-3.66-2.23c1-6.45,1-16.13,2.93-21.33a12,12,0,0,0-1.93,1.83,3.65,3.65,0,0,0-1,2.61,7.08,7.08,0,0,0-1.33.26,4.34,4.34,0,0,0-1.45.64l0,.71-1.34-.2-3.17,1.13a44.56,44.56,0,0,1,4.38-5.09A16.32,16.32,0,0,1,654,336c.32-.09.48-.37.69-.43s.14.08.46,0a1.13,1.13,0,0,0,.79-.92l.65-.18c.51-5.62-.37-7.47,2.44-14.43-.52-1.84,1.39-2.49,2.13-4,0,0,2-2.67,1.22-5.58,1.87-2,5-7.47,7-12s2.39-6.38,4.37-8.46c.11-.84,2.71-1.11,3.56-2.64a16.93,16.93,0,0,0,1.53-3.22c1.24-1.4,1.11-.2,3.52-4,2-3.24,10-11,11.75-12.41A3.51,3.51,0,0,1,695.23,269.71Z" style="fill:#f7d66c;stroke-miterlimit:10;stroke:url(#b)"/><path d="M728.8,244.26l-2.71,9.38a67.38,67.38,0,0,0-1.88,9.39,32.09,32.09,0,0,1-2.48,6.05,1.46,1.46,0,0,1,.29.62,5.48,5.48,0,0,1-.66,3.45,24.87,24.87,0,0,0-1.52,4.5c-1.15,4.17-2,6.87-2.36,8.13a9.07,9.07,0,0,1-.11,1.66c-.18,1.45-.64,3.91-1.3,7.35L712.8,305a59,59,0,0,0-2.51,10.49,27.29,27.29,0,0,0-1.77,4.46,30.15,30.15,0,0,1-1.53,4.86c-.86,2.34-1.83,5.06-2.74,8.46-1.55,5.22-2.36,8.12-2.51,8.4.14.08.25.05.46,0a4.92,4.92,0,0,0,1-.52,19.93,19.93,0,0,1,1.7-1.41,6.75,6.75,0,0,1,.85-2.34,2.09,2.09,0,0,0,1.23.23c.32-.09.77-.57,1.37-1.32a3.57,3.57,0,0,1,1.55-1.13,13,13,0,0,0,4.26-5.52c.51.56.92.79,1.24.7a2.48,2.48,0,0,0,1.07-.77l.71-.78.72-1.14a3.53,3.53,0,0,0,1.14-.09,11.18,11.18,0,0,0,1.56-.67,6.78,6.78,0,0,1,1.53-.78,1.87,1.87,0,0,1,1.17,0,6.84,6.84,0,0,1,3-2,4.68,4.68,0,0,1,2.2,0c2.77.73,4.68,3,5.69,6.54a10,10,0,0,1,.38,1.76c0,3.51-2.47,7.33-6.85,11.6l-.58-.41c-1.06,2-3.31,4-6.62,5.83-3.69,2.2-6,3.91-7.07,5.49q-3.93,3.39-4.53,3.73a12.27,12.27,0,0,0-3.17,4.86,1.55,1.55,0,0,1-2.09-.81c-.49-.91-1.06-1.68-1.49-2.38,0-.81.66-1.35,1.85-1.68l.43-.13a1.86,1.86,0,0,0,1.56-1.48c1-.53,4-2.66,8.84-6.23l.69.38c3.12-3.79,5.56-5.88,7.61-6.46a41,41,0,0,1,4-4.63,26.42,26.42,0,0,0,4-4.51,7.36,7.36,0,0,0,.52-3.52,23.55,23.55,0,0,1-.3-3.53c-.46-1.61-1.57-2.23-3.29-1.74l-1.4.39a7.82,7.82,0,0,1-1.27.48,3.36,3.36,0,0,1-2.31.07c-.21.06-.46,0-.67.07s-.4.23-.62.29a3.57,3.57,0,0,1-1.17.8.84.84,0,0,1-.88-.22c-2.3,2.17-5.88,5.16-10.85,9-3.44,3.89-5.77,6.76-7.05,8.4a27.38,27.38,0,0,0-4.56,10.26,37,37,0,0,1-3,6.21,1.8,1.8,0,0,1-2.17-.67,3.9,3.9,0,0,1-.55-1.12c-.1-.32-.08-.68-.2-1.11a91.71,91.71,0,0,0,7.11-16.45c1.81-5.53,3.49-11.13,5.24-16.86,1-3.32,2.8-8.25,5.29-14.66,1.33-5.62,3.66-13.85,6.86-24.77a9.84,9.84,0,0,1,.64-3.91s.79-3.37.56-3.77a3.31,3.31,0,0,0-.49.73c-.72,2.41-1.13,3.81-1.13,3.81,0-.35.35-1.61.84-3.61,0-.11.15-.28.26-.31s1.32-4.8,1.5-5c0,0-.88,3.86-.82,4.08a4.59,4.59,0,0,0,.79-2.56,8.62,8.62,0,0,1,1-3c.91-5.84,3.43-15.87,7.86-30.29Z" style="fill:#f7d66c;stroke-miterlimit:10;stroke:url(#c)"/><path d="M770.79,314.49a48.31,48.31,0,0,1-3.56,15,98.32,98.32,0,0,1-6.29,10.28c-3.84,2.48-6.46,3.92-7.76,4.29a6.43,6.43,0,0,1-6.09-1,9.1,9.1,0,0,1-2.35-3.76c-.23-1.22-.56-2.4-.9-3.59a95.4,95.4,0,0,1,6.49-15.35c3.19-6,7.45-9.91,12.64-11.72a10.29,10.29,0,0,1,4.59,2.19A9.86,9.86,0,0,1,770.79,314.49Zm-5.39-2.2a7.63,7.63,0,0,0-3.62,0c-2,.58-3.67,2.67-5.14,6.12-2,4.63-3.33,7.58-4.41,8.7a2,2,0,0,1-.33-.72c-.27-1,.21-2.16,1.28-3.74a6.94,6.94,0,0,0,1.65-3.62c-3.16,3.23-5,6.09-5.69,8.72l.39-.69,1.52.85-.88,1.41-.69-.38a2.3,2.3,0,0,1-.23,1.23l-.91-.33c-.65.18-.82.81-.48,2l.38-.69,1.5.74a2.82,2.82,0,0,0-.77,2.66,2.26,2.26,0,0,1-.9,2.59l-.66-.28a2.8,2.8,0,0,1-.41-1.05,5.76,5.76,0,0,0,.21,2.39,11,11,0,0,0,1.62,3.27l5.27-1.15a5.92,5.92,0,0,0,3.78-2.7c1.94-.55,3.36-2.11,4.48-4.76,1.42-3.19,2.5-5.13,3.46-5.87a21.91,21.91,0,0,1,1.52-5.32,8.78,8.78,0,0,0,.71-5.33A9.94,9.94,0,0,0,765.4,312.29Z" style="fill:#f7d66c;stroke-miterlimit:10;stroke:url(#d)"/><path d="M805.64,306.73a75.55,75.55,0,0,1-1.87,8.22,7.91,7.91,0,0,1-.79,2.55,10.17,10.17,0,0,0-1.16,2.07,16.6,16.6,0,0,1-5,8.29l-6.11,4.76-.43.12a4,4,0,0,1-3.55-.63l-4-2.49c-1-7.17,1-15.88,6.11-26.18.1,0,.18-.17.29-.2a4.49,4.49,0,0,1,2.52.68c.53,2.3-.35,5.34-2.47,9s-3.17,6.49-3,8.66a8.06,8.06,0,0,1,.2,2.74,8.15,8.15,0,0,0,0,2.56,2.47,2.47,0,0,0,2.48,1.74c.43-.12.89-.13,1.32-.26a11.72,11.72,0,0,0,6.12-4.29c1.18-1.61,2.79-5,4.68-9.82,0-.25.76-3.48,1.89-9.39,1-4.71,2.25-8.09,3.84-10.29,1.22.59,1.94,1.08,2,1.3a7.91,7.91,0,0,1-.32,3C807.39,300.18,806.39,302.79,805.64,306.73Z" style="fill:#f7d66c;stroke-miterlimit:10;stroke:url(#e)"/><path d="M844.72,202.38a4,4,0,0,1,2.09,2.44,10.19,10.19,0,0,1-.24,4.49c-.57,3-1,4.46-1,4.71-.58,2.49-2.12,11.43-4.46,26.65-2.07,13.28-3.67,21.19-4.76,23.94-.74,1.5-2.84,10.13-6,25.8a8.23,8.23,0,0,0,3.61.38c1.55.15,2.41.72,2.78,2a2.31,2.31,0,0,1-1.35,1.43,5,5,0,0,1-2.49-.58,4.24,4.24,0,0,0-2.43-.36c-.11,0-.29.2-.4.23a1.72,1.72,0,0,0-.92,0,1.53,1.53,0,0,0-1,1c-.35.8-.56,1.33-.56,1.33A128.08,128.08,0,0,1,825.32,310c-1.4,6.57-2.29,11.25-2.59,13.9A3.44,3.44,0,0,1,821.4,325c-.54.16-.88-.21-1.12-1.08.13-3.64-.07-9.3-.57-16.84l.55-1.32-.41-.23c.43-.13.74.14.95.89l.15.54a13.43,13.43,0,0,0,.1,4.05c.49,2.54.61,3.79.64,3.9a7.42,7.42,0,0,0,1.3-2.82l.61-3.2a25.61,25.61,0,0,1,.81-3.72,12.65,12.65,0,0,0,.81-3.73l1.39-7a9.78,9.78,0,0,0-4.45.33c-3,1-4.36,1.47-4.15,1.4a23.35,23.35,0,0,1,1.68,4.3,11.84,11.84,0,0,1,.52,4.29,6.52,6.52,0,0,1-.85-1.75,4.35,4.35,0,0,1,.06-2.69l-2.32-2.84a6.06,6.06,0,0,0-2.89-2l-.1-.78,1.4-.4a92.27,92.27,0,0,1,10.67-2.2l1.33-1.89,9.4-40.05c.14-.74,1.22-5.59,3.29-14.33a9.41,9.41,0,0,1,.48-5.72c.82-2.45,1.12-4.28.75-5.57-.12-.43-.38-.94-.5-1.37,1-2.73,2.05-9.2,3.16-19.3Z" style="fill:#f7d66c;stroke-miterlimit:10;stroke:url(#f)"/><path d="M941.11.89V470.11H.89V.89H941.11M942,0H0V471H942V0Z" style="fill:#d5d5d5"/><path d="M195.27,215.11c0,12.15-1.87,18.48-10.14,24.74a29.06,29.06,0,0,1-8.49,4.55l10.5,8.57c14-7.81,18.53-17.59,20-28.43l-7.21-16.88h-5.23A42.12,42.12,0,0,1,195.27,215.11Z" style="fill:url(#g)"/><path d="M207.79,207.66H199.9l7.21,16.88A131.07,131.07,0,0,0,207.79,207.66Z" style="fill:url(#h)"/><path d="M197.77,202.66h22.76c-1.64,3.13-6.78,8.8-12.29,12.3l9.31,7.45c6.71-4.84,13.79-14.16,17.59-20.42.74-1.19,2.46-3.35,3.35-4.47l-7.15-6.63a52.23,52.23,0,0,1-8.94.74h-26l-2.63,1.75Z" style="fill:url(#i)"/><path d="M193.06,191.63h-9.34a64.53,64.53,0,0,1-9.47-.82v12.45c2.14-.21,3.8-.37,5.41-.47l14.14-9.41Z" style="fill:url(#j)"/><polygon points="193.81 193.38 196.43 191.63 193.06 191.63 193.81 193.38" style="fill:url(#k)"/><path d="M179.66,202.79c1.31-.08,2.59-.13,4.06-.13h14.05l-4-9.28Z" style="fill:url(#l)"/><path d="M291.55,193.27H260c-2.46,0-7.38-.37-9.69-.67v12.74c1.94-.14,6-.37,9.69-.37H284.5l7.06-11.7Z" style="fill:url(#m)"/><path d="M299.76,192.6a29.73,29.73,0,0,1-6.86.67h-1.34l15.73,9.1a24,24,0,0,1,1.41-4Z" style="fill:url(#n)"/><polygon points="291.56 193.27 291.55 193.27 291.56 193.27 291.56 193.27" style="fill:url(#o)"/><path d="M284.5,205h8.32c-1,6-3.42,13.34-8.19,19.23a46,46,0,0,1-20.57,14.64l-4.41,7.32,5.52,6.06c13.12-4.24,23.63-11.92,30.34-20.94,6.41-8.64,9.46-20,11.25-27,.15-.55.33-1.22.53-1.93l-15.73-9.1Z" style="fill:url(#p)"/><path d="M255.34,241.42l4.31,4.74,4.41-7.32A66,66,0,0,1,255.34,241.42Z" style="fill:url(#q)"/><path d="M358.56,222c6.78-4.4,13.19-9.47,16.69-13.35l-9-8.42c-3.72,4.92-11.47,11.11-19.15,15.58a78.26,78.26,0,0,1-9,4.4L358.56,232Z" style="fill:url(#r)"/><path d="M346.19,246c0,2.83-.23,7.3-.45,8.94h13.41c-.52-1.64-.59-6.11-.59-8.94v-7l-12.37,5Z" style="fill:url(#s)"/><path d="M338.09,220.18a99.21,99.21,0,0,1-17.62,5.66l6,10.36a113.21,113.21,0,0,0,19.68-7.45V244l12.37-5v-7Z" style="fill:url(#t)"/><path d="M428.54,212.87c0,10.29-1.05,15.58-6,20.87-4.47,4.62-10.58,7.38-18.33,9.09l9.46,10c5.44-1.72,13.27-5.52,18.26-10.73,5.67-6,9.17-13.42,9.17-28.4v-7.88l-12.52,5Z" style="fill:url(#u)"/><path d="M407.15,190.07H393.81a58.55,58.55,0,0,1,.3,5.88v25.27c0,1.07-.07,2.34-.15,3.54l12.89-5.19V196C406.85,193.27,407,191.93,407.15,190.07Z" style="fill:url(#v)"/><path d="M441.36,189.4H428a60.21,60.21,0,0,1,.52,8v13.41l12.52-5v-8.37C441.06,194.17,441.21,191.63,441.36,189.4Z" style="fill:url(#w)"/><path d="M393.73,228.23h13.42c-.15-1.94-.3-5.07-.3-6.94v-1.72L394,224.76C393.88,226.14,393.77,227.43,393.73,228.23Z" style="fill:url(#x)"/><path d="M465,194.69v1.5l2.93-1.18C466.82,194.92,465.78,194.81,465,194.69Z" style="fill:url(#y)"/><path d="M516.92,234.93H498.29V220.44l-12.67-8.18v22.67H467.81a45.77,45.77,0,0,1-7.75-.67v13a72.86,72.86,0,0,1,7.75-.37h49.11a66.14,66.14,0,0,1,7.38.37V237.24l-3.85-2.48C519.34,234.86,518.16,234.93,516.92,234.93Z" style="fill:url(#z)"/><path d="M465,207.06c1.94-.22,5.22-.37,7.53-.37H477l-12-7.76Z" style="fill:url(#aa)"/><path d="M498.29,206.69H512.9c2.16,0,4.92.15,7.3.37V194.69a60.72,60.72,0,0,1-7.3.52H472.51c-1.36,0-3-.08-4.6-.2L465,196.19v2.74l12,7.76h8.62v5.57l12.67,8.18Z" style="fill:url(#ab)"/><path d="M520.45,234.76l3.85,2.48v-3C523.21,234.43,521.9,234.62,520.45,234.76Z" style="fill:url(#ac)"/><path d="M581.27,251l-3.75.86h4C581.4,251.6,581.33,251.31,581.27,251Z" style="fill:url(#ad)"/><path d="M580.72,241V211.31c.69-.45,1.36-.9,2-1.36l-5.16-10.76c-2.09,1.59-4.26,3.1-6.41,4.44A109.6,109.6,0,0,1,537,217.05L543.38,228a135.59,135.59,0,0,0,24.37-9.39V241a103,103,0,0,1-.59,10.81h10.36l3.75-.86A70.29,70.29,0,0,1,580.72,241Z" style="fill:url(#ae)"/><path d="M600.32,195.36l-9.69-8.72a69.29,69.29,0,0,1-13,12.55L582.75,210A131.21,131.21,0,0,0,600.32,195.36Z" style="fill:url(#af)"/><path d="M662.18,232l5.14-12.6c-3.47-1.69-9.47-4.08-15.84-6.36l-11.08,9.71A211.72,211.72,0,0,1,662.18,232Z" style="fill:url(#ag)"/><path d="M623.2,251.78h14.16c-.37-3.36-.82-9.25-.82-11.26v-2.28l-12.45,2.88A86.25,86.25,0,0,1,623.2,251.78Z" style="fill:url(#ah)"/><path d="M636.54,221.37c1.23.44,2.53.91,3.86,1.41l11.08-9.71c-5.11-1.83-10.46-3.6-14.94-4.89V198a88,88,0,0,1,.75-9.69H623.2a51.75,51.75,0,0,1,.89,9.69v39.09l12.45-10.9Z" style="fill:url(#ai)"/><path d="M624.09,237.06v4.06l12.45-2.88V226.16Z" style="fill:url(#aj)"/><path d="M696.71,232.72c-1-1.8-2.62-4.42-3.36-5.57v-1.59h3.32v-4.67a35.75,35.75,0,0,1,2.74,2.83c-.78,1.18-1.56,2.33-2.29,3.31l-1.19.08.78,4.3c2.21-.25,4.58-.53,7-.86,0,.22,0,.42,0,.61l15.35-3.53L713.52,215c-.26.69-.53,1.38-.81,2l-.45-.37-1.06,1.63c-.05-2.08,0-4.21,0-6.38h-5.16c0,2,0,4,0,6l-2.7-1.31c-.49,1.06-1.11,2.29-1.8,3.52-.21-.21-.41-.45-.61-.66,1-1.64,2.12-3.81,3.31-5.77l-4.38-1.64a42.48,42.48,0,0,1-1.76,5l-.49-.37-2.13,3.23.29.25h-2.5v-8.27h-5.28v8.27h-4v5.4h3.61a46.42,46.42,0,0,1-3.09,10l12.44-2.87Zm21.07-8.14a8.25,8.25,0,0,1,.45,1.18l-1.43.13C717.13,225.48,717.46,225,717.78,224.58Zm-3.84-.9c-.62.94-1.27,1.84-1.89,2.61l-.53.05c-.12-1.76-.2-3.56-.28-5.41A24.86,24.86,0,0,1,713.94,223.68Zm-7.74-3.32c.08,2.09.17,4.13.33,6.1-.25-.78-.53-1.6-.82-2.33L703,225C704.07,223.51,705.18,221.92,706.2,220.36Zm-3.6,5.2c.12.33.21.65.33,1l-1.19.08Z" style="fill:#1e3244"/><polygon points="721.96 232.72 721.42 232.72 721.96 233.92 721.96 232.72" style="fill:#1e3244"/><path d="M720.46,230.56l2.48-1a17.69,17.69,0,0,0-.61-2.68l-3.18.74Z" style="fill:#1e3244"/><path d="M717.83,224.53c1.43-2,2.86-4.09,4.17-6l-4-1.92c-.49,1.06-1.15,2.25-1.84,3.47-.21-.2-.41-.45-.66-.65,1-1.6,2.21-3.77,3.44-5.77l-4.42-1.6c-.25.89-.6,1.93-1,3l5.63,12.61,3.18-.74a30.35,30.35,0,0,0-1.31-3.54Z" style="fill:#1e3244"/><path d="M703.8,231.16a4.46,4.46,0,0,1,0,.5l3.07-1.11c.08.74.16,1.47.24,2.17H697.06l-12.44,2.87a21.64,21.64,0,0,1-1.54,2.82,32.77,32.77,0,0,1,2.42,5.07,28.28,28.28,0,0,0,2.57-5.81v13.1h5.28v-16.5c.62,1.52,1.19,3.07,1.56,4.18l1.8-2.66v1.47h2.37c-.41,3.73-1.35,7.2-4.91,9.54a13.68,13.68,0,0,1,3.28,3.93,14.06,14.06,0,0,0,5.48-7.25,19.38,19.38,0,0,1,2.45,2.46l3.11-4a30.08,30.08,0,0,0-4.37-3.6l.12-1.11h3.64a39.81,39.81,0,0,0,1.84,6.47,24.23,24.23,0,0,1-6.42,3.19,22.11,22.11,0,0,1,3.07,3.81A26.82,26.82,0,0,0,712,247.9a6.86,6.86,0,0,0,5.49,2.87c3.43,0,4.79-1.15,5.64-5.9a13.11,13.11,0,0,1-3.76-2.66c-.2,3-.57,3.65-1.47,3.65a2.6,2.6,0,0,1-2-1.11,23.23,23.23,0,0,0,4.5-6.14l-3.56-1.35H722v-3.34l-.54-1.2H719l.7-.61a14.4,14.4,0,0,0-2.54-2.34l2.05-.32a12.91,12.91,0,0,1,.24,1.51l1-.4-1.31-2.93Zm9.89,8.72c-.24-.82-.49-1.68-.69-2.62h2.33A15.37,15.37,0,0,1,713.69,239.88Zm-.24-8.18c.36.28.77.65,1.18,1h-2.41c-.12-.74-.21-1.47-.29-2.21l3.44-.49Z" style="fill:#1e3244"/><path d="M730.92,250.73h5.48v-7.45h4.67v1.59c0,.49-.17.62-.66.62a30.44,30.44,0,0,1-3.23,0,21.23,21.23,0,0,1,1.88,5.23c2.42,0,4.34-.08,5.9-1s2-2.29,2-4.7V226.79h-16Zm5.48-19.12h4.67V233H736.4Zm0,5.73h4.67v1.6H736.4Z" style="fill:#1e3244"/><path d="M761.41,250.52c4.21,0,5.73-1.72,6.34-7.65a16.87,16.87,0,0,1-5.2-2.17c-.2,3.93-.45,4.66-1.72,4.66h-.27l-.43,5.16Z" style="fill:#1e3244"/><path d="M755.72,243.65v-2.42c1.75-.58,3.57-1.23,5.34-1.94l.3-3.67L759.94,234c-1.29.73-2.73,1.47-4.22,2.13v-4.87h-5.89v12.4c0,5.15,1.31,6.83,6.58,6.83h3.72l.43-5.16h-3.2C756,245.36,755.72,245.2,755.72,243.65Z" style="fill:#1e3244"/><path d="M761.57,233.05c-.51.32-1.05.65-1.63,1l1.42,1.59Z" style="fill:#1e3244"/><path d="M762.66,219.8c1-.42,2.05-.86,3-1.32l-1.14-1.32-1.67.39Z" style="fill:#1e3244"/><path d="M763.64,238.18c.83-.37,1.63-.76,2.39-1.16l-3.89-4.34-.57.37-.21,2.57Z" style="fill:#1e3244"/><path d="M748.94,221.66c-.11-.27-.22-.54-.35-.82l-.31.07Z" style="fill:#1e3244"/><path d="M767.5,223.59a16.12,16.12,0,0,1-5-2l-.75,9C765.47,230.48,766.92,228.83,767.5,223.59Z" style="fill:#1e3244"/><path d="M748.59,220.84a52.62,52.62,0,0,0-3.39-6.29l-1.94.72,5,5.64Z" style="fill:#1e3244"/><polygon points="764.52 217.16 763.02 215.44 762.85 217.55 764.52 217.16" style="fill:#1e3244"/><path d="M763,215.43l-1.08-1.25a51.37,51.37,0,0,1-6.18,3.11v-5.2h-5.93v8.46l13-3Z" style="fill:#1e3244"/><path d="M761.77,230.62l.75-9a1.56,1.56,0,0,1-.25-.17c-.17,3.36-.41,3.93-1.6,3.93h-3.36c-1.35,0-1.55-.16-1.55-1.67V222.2c2.27-.67,4.65-1.48,6.9-2.4l.19-2.25-13,3v2.1l7.09,8h4.85Z" style="fill:#1e3244"/><path d="M761.06,239.29c.87-.35,1.74-.72,2.58-1.11l-2.28-2.56Z" style="fill:#1e3244"/><path d="M743.26,215.27l-3.13,1.16c.53.9,1,1.88,1.51,2.87l-3.85.16c1-2.05,1.89-4.34,2.75-6.59l-6.22-1.27a54.54,54.54,0,0,1-2.62,8.11l-3.2.12.45,5.54,19.33-4.46Z" style="fill:#1e3244"/><path d="M749.83,223.76v.41a22,22,0,0,0-.89-2.51l-.66-.75L729,225.37v.07l14.85-1a16.18,16.18,0,0,1,.57,2.05l5.45-2.13c.12,4.75,1.47,6.3,6.58,6.3h.51l-7.09-8Z" style="fill:#1e3244"/><path d="M308.53,359.92v14.41c0,4.69-11.32,9.08-29.3,10.67V370.67C297.21,369.09,308.53,364.73,308.53,359.92Z" style="fill:#e1b715"/><path d="M306.27,321.59a41,41,0,0,0-16.39-5.67c15.37-2.83,22.64-8,16.39-12.85-7.62-5.91-32-9.08-54.55-7.13-18.06,1.59-29.38,6-29.24,10.76V321a3.66,3.66,0,0,0,.82,2.07,3.55,3.55,0,0,0-.76,2.1v14.32a3.41,3.41,0,0,0,.42,1.39,3.64,3.64,0,0,0-.39,1.45v14.29a3.2,3.2,0,0,0,.51,1.64,3.53,3.53,0,0,0-.49,1.73v14.33a4.72,4.72,0,0,0,2.27,3.61c7.58,5.92,32,9.09,54.54,7.14V370.67c22.65-2,34.62-8.49,27-14.15a37.14,37.14,0,0,0-14.16-5.26c13.88-2.83,20.16-7.79,14.16-12.43a35.46,35.46,0,0,0-13-4.95C306.35,330.88,312.07,326.09,306.27,321.59Z" style="fill:#ffd62d"/><path d="M308.53,342.34v14.41c0,4.7-11.32,9.08-29.3,10.64V353C297.21,351.43,308.53,347,308.53,342.34Z" style="fill:#e1b715"/><path d="M308.53,325.19v14.4c0,4.7-11.32,9.09-29.3,10.67V335.85C297.21,334.27,308.53,329.92,308.53,325.19Z" style="fill:#e1b715"/><path d="M308.53,306.7v14.41c0,4.7-11.32,9.09-29.3,10.67V317.45C297.21,315.79,308.53,311.43,308.53,306.7Z" style="fill:#e1b715"/><path d="M151.38,373.19l-1.93-11.83c1.73,10.11,13.64,17.89,31.14,18.88l2,11.83C165.05,391.05,153.1,383.3,151.38,373.19Z" style="fill:#ffd62d"/><path d="M234.37,346.84l2,11.8a17,17,0,0,1-1.48,9.77c-6.25,14.44-29.72,25.11-52.42,23.8l-1.92-11.94c22.64,1.27,46.16-9.37,52.42-23.8a17.05,17.05,0,0,0,1.36-9.63Z" style="fill:#e1b715"/><ellipse cx="191.81" cy="354.12" rx="43.05" ry="25.62" transform="translate(-57.09 37.51) rotate(-9.73)" style="fill:#ffe04c"/><ellipse cx="191.81" cy="354.12" rx="29.3" ry="17.44" transform="translate(-57.09 37.51) rotate(-9.73)" style="fill:#e1b715"/><ellipse cx="265.48" cy="306.53" rx="30.15" ry="6.88" style="fill:#e1b715"/><rect x="171.28" y="75.72" width="599.44" height="67.06" rx="33.53" style="fill:#ffc02e"/><path d="M222.24,98.69H237v4H222.24Zm13.23,25.81h-7.21v1.27h-4.4V113.55h11.61ZM224,103.73h11.58v3.8H224Zm0,4.86h11.58v3.8H224Zm11.65-10.92H224.21v-3.8h11.44Zm-7.39,19.86v3H231v-3Zm20.94,3.69c1.45,0,1.69-.77,1.94-4.92a15.07,15.07,0,0,0,4.72,2c-.6,6-2,7.75-6.23,7.75h-5.18c-4.79,0-6.27-1.45-6.27-6.59V105.84h10.64V99.36H238.25V94.51H254v17.84h-5.13v-1.69h-5.46v8.77c0,1.58.25,1.79,1.79,1.79Z" style="fill:#fff"/><path d="M294.19,116.58h-3.7v6.12h-5.21v-1.44h-5.14v.42c0,2.33-.53,3.31-2,4s-3.45.71-6.48.71a14.78,14.78,0,0,0-1.65-3.94c1.44.07,3.52.07,4.08.07s.88-.25.88-.85v-.42H264.62v-3.63h10.31v-1H261.2v-3.84h13.73v-.95H264.86v-3.38h10.07v-1.06h-9.29V99.89h9.29v-1H262.08v-4h12.85v-2h5.21v2h13.17v4H280.14v1h9.72v7.46h-9.72v1.06h10.35v4.33h3.7Zm-19.26-12.36V103h-4.4v1.2Zm5.21-1.2v1.2h4.47V103Zm0,9.72h5.14v-.95h-5.14Zm5.14,3.84h-5.14v1h5.14Z" style="fill:#fff"/><path d="M310.46,119.45c.05-.58.09-1.45.12-2.32-1.46.84-2.09,1.6-2.09,2.53s.72,1.39,2.91,1.39a34.44,34.44,0,0,0,6.76-.73L318,124a61.86,61.86,0,0,1-6.71.4c-3.83,0-6.57-1-6.57-4.09s2.76-5,5.35-6.33a1.78,1.78,0,0,0-1.27-.47,5.56,5.56,0,0,0-3.43,1.55,27.76,27.76,0,0,0-2.16,2.63l-3-2.26a21.26,21.26,0,0,0,5-6c-1,0-2.65,0-3.87-.17V106a29.94,29.94,0,0,0,4.18.28h.91a13,13,0,0,0,.4-2.53l3.71.3a21.16,21.16,0,0,1-.51,2.12,54.53,54.53,0,0,0,6.26-.66l0,3.26c-2.19.28-5,.49-7.51.59a13.75,13.75,0,0,1-.89,1.64,11.25,11.25,0,0,1,2.3-.23,3.37,3.37,0,0,1,3.09,1.64c.94-.45,1.69-.75,2.52-1.13,1-.44,2-.89,2.95-1.36l1.39,3.24c-.83.23-2.28.77-3.17,1.13s-2,.77-3.24,1.31c0,1.27.07,2.84.09,3.87Z" style="fill:#fff"/><path d="M358.12,94.4s0,1.2-.07,1.76c-.14,7.29-.35,10.49-1.27,11.65a4,4,0,0,1-2.89,1.59,32.27,32.27,0,0,1-4.43.17,11.21,11.21,0,0,0-1.48-4.71c1.41.14,2.78.14,3.49.14a1.46,1.46,0,0,0,1.16-.39c.38-.46.52-2,.67-5.53h-4.23c-.7,4.79-2.39,8.8-7.81,11.44a13.53,13.53,0,0,0-2.93-3.83,23.67,23.67,0,0,1,1.8,5.24l-3.56,1.59a9.35,9.35,0,0,0-.35-1.59l-1.16.07v2.54l3-1A54.23,54.23,0,0,1,340.2,120l-3.73,1.33c-.28-1.33-.85-3.2-1.41-5v10h-4.43V116a32.79,32.79,0,0,1-1.83,7.82A27.17,27.17,0,0,0,325,122a26.73,26.73,0,0,0,1.62-8.13l4.05.7v-2.25l-4.9.32-.42-4.41,2.67-.1c.43-.53.85-1.09,1.27-1.69a31,31,0,0,0-3.94-4.68l2.39-3.52.64.6a45.39,45.39,0,0,0,2.32-6l4.4,1.62c-1.3,2.46-2.71,5.17-3.94,7.14.24.28.49.6.7.88a57.7,57.7,0,0,0,2.92-5.38L338.86,99c-1.34,2-2.88,4.3-4.43,6.41l2.71-1.13c.42.74.81,1.55,1.19,2.36A9,9,0,0,0,344,99.08h-4.26V94.4Zm-23.27,13.48c-.28-.63-.56-1.3-.84-1.9-.53.71-1.06,1.37-1.55,2Zm6.12,3.17h16.44v15h-4.92v-1.19h-6.83v1.33H341Zm4.69,4.47v4.89h6.83v-4.89Z" style="fill:#fff"/><path d="M383.35,92.71a28.58,28.58,0,0,0,14.79,12.43,27.62,27.62,0,0,0-3.38,4.71,38.29,38.29,0,0,1-5.32-3.2v19.64h-5.35V106h4.47A32.75,32.75,0,0,1,380.78,98a32.14,32.14,0,0,1-7.88,8.27h4.57v4c0,5-.7,11.58-7.53,16a20.17,20.17,0,0,0-4.33-3.66c5.95-3.66,6.58-8.59,6.58-12.49v-3.38a39.9,39.9,0,0,1-5.17,3.16,19,19,0,0,0-3.17-4.25,31.78,31.78,0,0,0,13.94-13Z" style="fill:#fff"/><path d="M411.19,104.22c-.16,1.1-.3,2.51-.35,3.52-.12,2.44-.28,7.46-.28,10,0,2.23,1.29,2.94,2.86,2.94,3.62,0,6.06-2.12,7.75-4.72l2.56,3.14a12.34,12.34,0,0,1-10.33,5.42c-4.06,0-6.6-1.83-6.6-5.89,0-2.93.22-9.15.22-10.91a16.74,16.74,0,0,0-.36-3.57Z" style="fill:#fff"/><path d="M431.84,106.43c2.19-.19,5.71-.47,10-.85,2.33-.18,5.07-.33,6.76-.4l0,3.62a28.5,28.5,0,0,0-4.46.28,6.46,6.46,0,0,0-4.67,6c0,3.43,3.21,4.77,7.23,5L445.36,124c-5.19-.4-9.62-3.22-9.62-8.17a9.49,9.49,0,0,1,2.93-6.78c-2,.21-6.08.68-8.87,1.29l-.35-3.83C430.39,106.52,431.4,106.47,431.84,106.43Z" style="fill:#fff"/><path d="M465.28,101.69h5.56V106h-2.46l1.16.28c-.56,1.23-1,2.36-1.44,3.31h2.18v4.26h-5v2.11h4.65v4.26h-4.65v6h-4.72v-6h-4.92v-4.26h4.92V113.8h-5.21v-4.26h2.26a18.91,18.91,0,0,0-1-3.31l1.13-.28h-3.24v-4.26h6.05v-1.8h-4.78V95.7h4.78V93h4.72V95.7h4.3v4.19h-4.3Zm-1.09,7.57c.35-1,.74-2.22,1-3.31h-4.5a14.83,14.83,0,0,1,1,3.31l-1,.28h4.54Zm23.16-1.87a37.86,37.86,0,0,1-3.41,11.44,16.55,16.55,0,0,0,4.57,3.52,18.58,18.58,0,0,0-3.3,4A18.27,18.27,0,0,1,481.3,123a19.6,19.6,0,0,1-3.35,3.34,14.26,14.26,0,0,0-2.11-2.42v2.32h-4.61v-32h15.28v6.58c0,2.08-.42,3.31-2,4s-3.49.7-6,.7a17,17,0,0,0-1.38-4.36c1.45.07,3.45.07,3.95.07s.7-.11.7-.49v-2h-6v7.78h7.68l.81-.17Zm-11.51,14.5a20.11,20.11,0,0,0,2.57-2.88,36.59,36.59,0,0,1-2.57-5.74Zm3.24-11.4a23.21,23.21,0,0,0,1.76,4,24.37,24.37,0,0,0,1.27-4Z" style="fill:#fff"/><path d="M525.68,93.77v32.49h-4.22V112.11l-.91.53a23,23,0,0,0-.67-2.57v15h-4V112.32l-1,.53a22.65,22.65,0,0,0-.63-2.93c-.07,5.92-.56,11.83-2.82,16.51a17.23,17.23,0,0,0-3.73-2.53c1.8-3.73,2.32-8.24,2.47-12.92a17,17,0,0,1-.92,2.64l-2-1.79v13.65h-3.56V124h-6.4v2H494V100.91h3.2V98.1h-3.62V94.15h14.11V98.1H504v2.81h3.35v9.16a31.26,31.26,0,0,0,1.05-6.55l1.87.53V93.8h4v10.74l1-.6c.18.39.39.81.56,1.23V94.47h4v9.61l.74-.42c.28.53.56,1.09.84,1.65V93.77Zm-25.52,14.32c0,1.83-.24,4.26-1.58,5.88a7.18,7.18,0,0,0-1.23-1.09v2h6.4v-2.53h-.7c-1.69,0-2.15-.56-2.15-2.82V105h-.74ZM497.35,105v6.86a7.73,7.73,0,0,0,.7-3.8V105Zm6.4,15.17v-1.73h-6.4v1.73Zm-3.59-19.26h.74V98.1h-.74Zm3.59,4.09h-.67v4.5c0,.5.07.53.29.53h.38Z" style="fill:#fff"/><path d="M542.18,104.57c-.17.71-.35,1.58-.5,2.23s-.25,1.27-.39,1.88c.61-.05,1.15-.07,1.57-.07,2.67,0,4.43,1.27,4.43,4.74,0,2.72-.3,6.45-1.29,8.52-.79,1.67-2.16,2.25-4.06,2.25a13.59,13.59,0,0,1-2.81-.33l-.61-3.7a15,15,0,0,0,2.84.49,1.59,1.59,0,0,0,1.57-.89,16.5,16.5,0,0,0,.87-6c0-1.69-.71-1.9-2.16-1.9l-1.08,0c-.94,3.62-2.68,9.2-4.65,12.39l-3.68-1.47c2.2-3,3.7-7.33,4.57-10.5l-1.45.22c-.75.09-2.09.28-2.86.42l-.31-3.78c.89.07,1.78,0,2.7,0,.68,0,1.64-.09,2.67-.16a23.1,23.1,0,0,0,.45-4.86Zm8.26,2.49a42.76,42.76,0,0,1,3.75,8.36l-3.59,1.66a25.61,25.61,0,0,0-3.8-9l2-.84a28.72,28.72,0,0,0-1.59-2.86l2.2-.9c.59.87,1.41,2.4,1.83,3.22Zm1.55-.56a25.56,25.56,0,0,0-1.86-3.24l2.21-.89a33.18,33.18,0,0,1,1.85,3.19Z" style="fill:#fff"/><path d="M585.32,107.25c2.25,3.1,3.27,5.56,3.27,8.52,0,5.31-4.78,9.43-12.81,9.43-5.95,0-9.86-2.53-9.86-8.45a30.78,30.78,0,0,1,.22-3.23,41.63,41.63,0,0,1-6.31-1.1l.29-5.1a29.46,29.46,0,0,0,6.58,1.37l.49-3.9a43.81,43.81,0,0,1-6.62-1.24l.25-4.86a30,30,0,0,0,6.93,1.31c.11-.88.18-1.66.22-2.33a22.52,22.52,0,0,0,.07-3.45l5.91.32c-.35,1.48-.53,2.5-.7,3.49-.07.45-.18,1.19-.32,2.14a42.18,42.18,0,0,0,6-.45l-.17,5a52.3,52.3,0,0,1-6.48.36c-.18,1.26-.35,2.6-.49,3.87h0c2,0,4.65-.18,6.83-.42l-.14,5c-1.72.17-3.69.31-5.77.31h-1.45c-.07.81-.1,1.52-.1,2,0,2.6,1.65,3.87,4.79,3.87,4.61,0,6.9-2.18,6.9-4.65s-1.34-4.43-3.45-6.54Z" style="fill:#fff"/><path d="M607,108.94a17.59,17.59,0,0,1,9.64-2.82c6.55,0,10.1,4.09,10.1,8.35,0,6.47-4.75,11.72-20.1,10.38L605,119.32c10.17,1.52,15.8-.7,15.8-5,0-2-1.9-3.45-4.68-3.45a11.69,11.69,0,0,0-9,3.8,9.17,9.17,0,0,0-1.44,2.18l-4.83-1.19a134.5,134.5,0,0,0,1.73-14.82l5.67.77A59,59,0,0,0,607,108.94Zm.45-14.65A108.18,108.18,0,0,0,621.64,97l-1.26,5.21c-3.66-.5-11.55-2.15-14.29-2.86Z" style="fill:#fff"/><path d="M658.92,107.67c-1.73,1.44-4.65,4.08-5.21,4.72a3.76,3.76,0,0,1,1.34.39,3.58,3.58,0,0,1,1.79,2.28c.32.88.6,2,.88,2.75a2,2,0,0,0,2.15,1.48,41,41,0,0,0,7-.56l-.35,5.52a60.82,60.82,0,0,1-7,.46c-3.55,0-5.42-.74-6.3-3-.38-1-.74-2.43-.95-3.24-.39-1.23-1.13-1.59-1.72-1.59s-1.24.6-2.08,1.48c-1.16,1.23-3.1,3.42-5.74,6.76l-5-3.45a36,36,0,0,0,2.78-2.5c2-2,7.81-7.78,10.84-11.09-2.25,0-5.46.32-7.39.5a30.12,30.12,0,0,0-3.13.45l-.5-5.8c.81.07,2.22.14,3.56.14s9.26-.25,12.32-.64a12.43,12.43,0,0,0,2.11-.42l3.06,3.45C660.33,106.51,659.66,107.07,658.92,107.67Zm1-12-.67,4.93c-3.77-.28-10.49-1-14.61-1.65l.81-4.9C649.38,94.75,656.1,95.46,659.87,95.7Z" style="fill:#fff"/><path d="M700.74,99c-.92.56-1.8,1.09-2.68,1.69-2,1.33-5,3.83-6.93,5.31a12.07,12.07,0,0,1,2.42-.21c6,0,10.71,3.84,10.71,9.08,0,5.46-4,10.21-13,10.21-4.93,0-9-2.29-9-6.12,0-3.07,2.82-5.92,6.76-5.92,4.26,0,7,2.47,7.6,5.78a4.66,4.66,0,0,0,2-4c0-3-3.06-4.86-6.9-4.86-5.1,0-8.76,3.07-12.11,7.15l-3.83-4c2.25-1.76,6.3-5.21,8.38-6.9,1.93-1.62,5.17-4.12,6.86-5.63-1.76,0-5.35.18-7.22.32-1,.07-2.28.17-3.13.31l-.18-5.45a29.61,29.61,0,0,0,3.56.21c1.87,0,8.84-.11,10.91-.28a18.64,18.64,0,0,0,3.1-.42Zm-9,21.22c-.17-1.93-1.23-3.16-2.71-3.16-1.12,0-1.79.66-1.79,1.37,0,1.09,1.16,1.86,2.92,1.86C690.77,120.27,691.3,120.24,691.79,120.2Z" style="fill:#fff"/><path d="M725.23,119.5a4.17,4.17,0,0,1,8.31,0,4.17,4.17,0,0,1-8.31,0Zm.53-17-.21-5.84h7.71l-.21,5.84-1.45,11.13h-4.4Z" style="fill:#fff"/><path d="M578.93,393.77c2.21,0,3.29,1,3.29,2.29a3.66,3.66,0,0,1-.65,1.91,18.55,18.55,0,0,1-4,4.38,1.78,1.78,0,0,1-1.05.4,1.37,1.37,0,0,1-1.36-1.38,1.67,1.67,0,0,1,.7-1.29,13,13,0,0,0,2.64-2.79.75.75,0,0,0,.18-.45c0-.2-.18-.3-.58-.3l-14.28.1a1.31,1.31,0,0,1-1.34-1.39,1.33,1.33,0,0,1,1.34-1.38Zm-8.35,5.89a1.48,1.48,0,0,1,2.92,0v1.18a13.18,13.18,0,0,1-6.64,11.92,1.85,1.85,0,0,1-1,.3,1.42,1.42,0,0,1-1.45-1.41,1.65,1.65,0,0,1,.93-1.38,10.13,10.13,0,0,0,5.2-9.43Z" style="fill:none;stroke:#fff;stroke-linecap:round;stroke-linejoin:round;stroke-width:6px"/><path d="M601.11,394.43c2.64,0,3.67.93,3.67,2.61a5.89,5.89,0,0,1-.18,1.43,21.3,21.3,0,0,1-11.69,14,1.83,1.83,0,0,1-.83.2,1.47,1.47,0,0,1-1.46-1.49,1.51,1.51,0,0,1,.88-1.33c5.56-2.89,8.7-6.92,10-11.42a2.05,2.05,0,0,0,.08-.5c0-.48-.33-.65-1.06-.65l-12.12.15a1.42,1.42,0,0,1-1.46-1.49,1.31,1.31,0,0,1,1.33-1.38Z" style="fill:none;stroke:#fff;stroke-linecap:round;stroke-linejoin:round;stroke-width:6px"/><path d="M616.85,404.13a31.29,31.29,0,0,1-5.05,3.27,1.36,1.36,0,0,1-.68.18,1.28,1.28,0,0,1-1.23-1.29,1.3,1.3,0,0,1,.75-1.15,29.88,29.88,0,0,0,10-8.45,1.15,1.15,0,0,1,1-.53,1.39,1.39,0,0,1,1.38,1.28,1.24,1.24,0,0,1-.25.73,29.49,29.49,0,0,1-4.22,4.58,1.06,1.06,0,0,1,.9,1v9.05a1.15,1.15,0,0,1-1.28,1.08,1.17,1.17,0,0,1-1.31-1.08Z" style="fill:none;stroke:#fff;stroke-linecap:round;stroke-linejoin:round;stroke-width:6px"/><path d="M633.15,404a1.53,1.53,0,0,1-3,0V394.1a1.52,1.52,0,0,1,3,0Zm6.64-10.31a1.37,1.37,0,0,1,1.53-1.28,1.35,1.35,0,0,1,1.48,1.28v7.47c0,6.36-2.71,10.21-7.56,12.52a1.83,1.83,0,0,1-.76.2,1.5,1.5,0,0,1-1.48-1.48,1.48,1.48,0,0,1,.93-1.31c4.2-2.06,5.86-5.1,5.86-10.13Z" style="fill:none;stroke:#fff;stroke-linecap:round;stroke-linejoin:round;stroke-width:6px"/><path d="M661.41,407.75h8a1.41,1.41,0,0,1,0,2.82H650.5a1.41,1.41,0,0,1,0-2.82h7.9V398h-5.64a1.41,1.41,0,0,1,0-2.81H667.5a1.41,1.41,0,0,1,0,2.81h-6.09Z" style="fill:none;stroke:#fff;stroke-linecap:round;stroke-linejoin:round;stroke-width:6px"/><path d="M683.39,401.34a44.4,44.4,0,0,1-6.36,4.23,1.74,1.74,0,0,1-.88.22,1.4,1.4,0,0,1-1.38-1.41,1.58,1.58,0,0,1,1-1.4,38.76,38.76,0,0,0,12.22-10.31,1.58,1.58,0,0,1,1.26-.66,1.41,1.41,0,0,1,1.18,2.34,39.35,39.35,0,0,1-5.33,5.61,1.31,1.31,0,0,1,1.31,1.31v11a1.34,1.34,0,0,1-1.48,1.31,1.36,1.36,0,0,1-1.49-1.31Z" style="fill:none;stroke:#fff;stroke-linecap:round;stroke-linejoin:round;stroke-width:6px"/><path d="M702.68,400a1.43,1.43,0,0,1,1.23-.78,1.58,1.58,0,0,1,.66.15,30.13,30.13,0,0,1,5.33,3.22,1.63,1.63,0,0,1,.7,1.31,1.46,1.46,0,0,1-1.43,1.49,1.75,1.75,0,0,1-1.06-.38,43.16,43.16,0,0,0-4.7-3,1.83,1.83,0,0,1-.73-.7v10.83a1.34,1.34,0,0,1-1.48,1.31,1.36,1.36,0,0,1-1.49-1.31V393a1.39,1.39,0,0,1,1.49-1.34,1.37,1.37,0,0,1,1.48,1.34Z" style="fill:none;stroke:#fff;stroke-linecap:round;stroke-linejoin:round;stroke-width:6px"/><path d="M718.78,393a1.32,1.32,0,0,1,1.43,1.56,52.19,52.19,0,0,0-1.16,11.12,48.8,48.8,0,0,0,.46,5.91,1.36,1.36,0,0,1-1.44,1.53,1.38,1.38,0,0,1-1.46-1.23,50.87,50.87,0,0,1-.42-6.21,56.65,56.65,0,0,1,1.18-11.62A1.35,1.35,0,0,1,718.78,393Zm11.41,15.47a20.81,20.81,0,0,0,3.8-.38,1.34,1.34,0,0,1,1.63,1.38,1.3,1.3,0,0,1-1.1,1.34,22.14,22.14,0,0,1-4.35.42c-4.65,0-6.59-1.4-6.87-4.45a1.41,1.41,0,0,1,1.46-1.53,1.23,1.23,0,0,1,1.28,1.08C726.27,407.88,727.05,408.46,730.19,408.46Zm4-11.92a1.39,1.39,0,0,1-1.29,1.38,64.08,64.08,0,0,1-7.09.55,1.32,1.32,0,0,1-1.46-1.35,1.33,1.33,0,0,1,1.36-1.36,61.56,61.56,0,0,0,6.92-.55A1.32,1.32,0,0,1,734.17,396.54Z" style="fill:none;stroke:#fff;stroke-linecap:round;stroke-linejoin:round;stroke-width:6px"/><path d="M753.41,395.78c4.5,0,7.54,2.42,7.54,6.26,0,4.81-3.57,8.18-10.49,9.16a1.41,1.41,0,1,1-.42-2.79c5.88-1,7.94-3.05,7.94-6.37,0-1.93-1.46-3.59-4.57-3.59s-7.15,1-11.65,3a2,2,0,0,1-.73.15,1.37,1.37,0,0,1-1.4-1.38,1.49,1.49,0,0,1,1-1.38A33.28,33.28,0,0,1,753.41,395.78Z" style="fill:none;stroke:#fff;stroke-linecap:round;stroke-linejoin:round;stroke-width:6px"/><path d="M768.64,394.05a1.36,1.36,0,0,1,1.49,1.41c0,.78-.1,1.38-.1,2.29,0,8.8,1.78,11.11,2.84,11.11.6,0,1.13-.4,1.63-2.29a1.3,1.3,0,0,1,1.29-1.08,1.39,1.39,0,0,1,1.43,1.36,1.3,1.3,0,0,1-.05.43c-.93,3.37-2.54,4.6-4.23,4.6-3.64,0-5.85-4.5-5.85-14.06,0-1.16,0-1.91.1-2.57A1.37,1.37,0,0,1,768.64,394.05Zm19,10.66a2,2,0,0,1,.11.53,1.36,1.36,0,0,1-1.41,1.33,1.41,1.41,0,0,1-1.34-.95,21.82,21.82,0,0,0-4.35-6.84,1.33,1.33,0,0,1-.42-.93,1.39,1.39,0,0,1,1.43-1.29,1.68,1.68,0,0,1,1.11.48A20.12,20.12,0,0,1,787.6,404.71Z" style="fill:none;stroke:#fff;stroke-linecap:round;stroke-linejoin:round;stroke-width:6px"/><path d="M804.28,397c-3,.4-7,1-10.64,1.53a1.39,1.39,0,0,1-1.66-1.4,1.35,1.35,0,0,1,1.31-1.39c5.23-.68,11.72-1.38,17-1.86a1.33,1.33,0,0,1,1.51,1.34,1.35,1.35,0,0,1-1.16,1.35,8.57,8.57,0,0,0-2.77,1c-3.92,2.24-4.75,4.85-4.75,7.24,0,2.79,1.94,4.5,5.46,4.93a1.49,1.49,0,1,1-.28,3c-4.75-.36-8.1-3.55-8.1-7.82a10.16,10.16,0,0,1,4.13-7.85Z" style="fill:none;stroke:#fff;stroke-linecap:round;stroke-linejoin:round;stroke-width:6px"/><path d="M816.15,398c-.66,0-1-.63-1-1.26a1.12,1.12,0,0,1,1-1.25h7.69a1.28,1.28,0,0,1,0,2.51ZM819,413.81c-1.91,0-2.54-.75-2.54-2.31v-3c0-1.56.63-2.32,2.54-2.32h2.62c1.93,0,2.56.76,2.56,2.32v3c0,1.79-.85,2.29-2.56,2.31Zm-1.43-19.51a1.06,1.06,0,0,1-1-1.18c0-.61.33-1.18,1-1.18h5.28a1,1,0,0,1,1,1.18,1.06,1.06,0,0,1-1,1.18Zm0,7.19a1.06,1.06,0,0,1-1-1.18c0-.6.33-1.18,1-1.18h5.28a1.05,1.05,0,0,1,1,1.18,1.06,1.06,0,0,1-1,1.18Zm0,3.52a1.06,1.06,0,0,1-1-1.18c0-.6.33-1.18,1-1.18h5.28a1.05,1.05,0,0,1,1,1.18,1.06,1.06,0,0,1-1,1.18Zm3.54,6.54c.4,0,.53-.15.53-.58V409c0-.43-.13-.58-.53-.58h-1.58c-.43,0-.56.15-.56.58V411c0,.4.13.58.56.58Zm5.46-13.15a1,1,0,0,1-1-1.13,1,1,0,0,1,1-1.13h5a29.1,29.1,0,0,0,1.84-4.2,1.19,1.19,0,0,1,1.21-.86,1.26,1.26,0,0,1,1.33,1.13,1.41,1.41,0,0,1-.08.43,22.39,22.39,0,0,1-1.63,3.5h3a1,1,0,0,1,1,1.13,1,1,0,0,1-1,1.13h-4.27v2.19h3.29a1,1,0,0,1,1,1.13,1,1,0,0,1-1,1.13h-3.29v2.57h4.8a1.17,1.17,0,0,1,0,2.31h-4.8v5.56c0,.67-.66,1-1.31,1s-1.31-.36-1.31-1v-5.56h-4.27a1.17,1.17,0,0,1,0-2.31h4.27v-2.57h-3.09a1,1,0,0,1-1-1.13,1,1,0,0,1,1-1.13h3.09V398.4Zm4.12-4.78a1.56,1.56,0,0,1,.15.63,1.25,1.25,0,0,1-1.3,1.18,1.19,1.19,0,0,1-1.08-.65c-.31-.63-.68-1.23-1-1.81a1.11,1.11,0,0,1-.2-.63,1.19,1.19,0,0,1,1.26-1.06,1.27,1.27,0,0,1,1,.51A8.83,8.83,0,0,1,830.73,393.62Z" style="fill:none;stroke:#fff;stroke-linecap:round;stroke-linejoin:round;stroke-width:6px"/><path d="M845.07,393.27a1.35,1.35,0,0,1,1.46-1.26,1.31,1.31,0,0,1,1.45,1.38c-.27,3.73-.52,8.5-.52,12.38,0,3.37,1,4.27,2.81,4.27,2.34,0,4.53-1,6.84-3.82a1.55,1.55,0,0,1,1.21-.63A1.44,1.44,0,0,1,859.8,407a1.46,1.46,0,0,1-.35.93c-2.86,3.57-5.91,4.93-9.18,4.93-3.74,0-5.73-1.86-5.73-7.09C844.54,401.74,844.79,397,845.07,393.27Z" style="fill:none;stroke:#fff;stroke-linecap:round;stroke-linejoin:round;stroke-width:6px"/><path d="M873.13,391.53a1.48,1.48,0,0,1,1.51,1.41,1.78,1.78,0,0,1-.3.91,61.12,61.12,0,0,1-5.71,7.09,1.59,1.59,0,0,0-.53,1.1,1.74,1.74,0,0,0,.61,1.19,75.84,75.84,0,0,1,6.38,7.82,1.93,1.93,0,0,1,.38,1,1.54,1.54,0,0,1-1.58,1.46,1.62,1.62,0,0,1-1.41-.83,71.74,71.74,0,0,0-6-7.85,4.09,4.09,0,0,1-1.34-2.79,3.59,3.59,0,0,1,1.19-2.61,49.25,49.25,0,0,0,5.58-7.25A1.39,1.39,0,0,1,873.13,391.53Z" style="fill:none;stroke:#fff;stroke-linecap:round;stroke-linejoin:round;stroke-width:6px"/><path d="M578.93,393.77c2.21,0,3.29,1,3.29,2.29a3.66,3.66,0,0,1-.65,1.91,18.55,18.55,0,0,1-4,4.38,1.78,1.78,0,0,1-1.05.4,1.37,1.37,0,0,1-1.36-1.38,1.67,1.67,0,0,1,.7-1.29,13,13,0,0,0,2.64-2.79.75.75,0,0,0,.18-.45c0-.2-.18-.3-.58-.3l-14.28.1a1.31,1.31,0,0,1-1.34-1.39,1.33,1.33,0,0,1,1.34-1.38Zm-8.35,5.89a1.48,1.48,0,0,1,2.92,0v1.18a13.18,13.18,0,0,1-6.64,11.92,1.85,1.85,0,0,1-1,.3,1.42,1.42,0,0,1-1.45-1.41,1.65,1.65,0,0,1,.93-1.38,10.13,10.13,0,0,0,5.2-9.43Z" style="fill:#324759"/><path d="M601.11,394.43c2.64,0,3.67.93,3.67,2.61a5.89,5.89,0,0,1-.18,1.43,21.3,21.3,0,0,1-11.69,14,1.83,1.83,0,0,1-.83.2,1.47,1.47,0,0,1-1.46-1.49,1.51,1.51,0,0,1,.88-1.33c5.56-2.89,8.7-6.92,10-11.42a2.05,2.05,0,0,0,.08-.5c0-.48-.33-.65-1.06-.65l-12.12.15a1.42,1.42,0,0,1-1.46-1.49,1.31,1.31,0,0,1,1.33-1.38Z" style="fill:#324759"/><path d="M616.85,404.13a31.29,31.29,0,0,1-5.05,3.27,1.36,1.36,0,0,1-.68.18,1.28,1.28,0,0,1-1.23-1.29,1.3,1.3,0,0,1,.75-1.15,29.88,29.88,0,0,0,10-8.45,1.15,1.15,0,0,1,1-.53,1.39,1.39,0,0,1,1.38,1.28,1.24,1.24,0,0,1-.25.73,29.49,29.49,0,0,1-4.22,4.58,1.06,1.06,0,0,1,.9,1v9.05a1.15,1.15,0,0,1-1.28,1.08,1.17,1.17,0,0,1-1.31-1.08Z" style="fill:#324759"/><path d="M633.15,404a1.53,1.53,0,0,1-3,0V394.1a1.52,1.52,0,0,1,3,0Zm6.64-10.31a1.37,1.37,0,0,1,1.53-1.28,1.35,1.35,0,0,1,1.48,1.28v7.47c0,6.36-2.71,10.21-7.56,12.52a1.83,1.83,0,0,1-.76.2,1.5,1.5,0,0,1-1.48-1.48,1.48,1.48,0,0,1,.93-1.31c4.2-2.06,5.86-5.1,5.86-10.13Z" style="fill:#324759"/><path d="M661.41,407.75h8a1.41,1.41,0,0,1,0,2.82H650.5a1.41,1.41,0,0,1,0-2.82h7.9V398h-5.64a1.41,1.41,0,0,1,0-2.81H667.5a1.41,1.41,0,0,1,0,2.81h-6.09Z" style="fill:#324759"/><path d="M683.39,401.34a44.4,44.4,0,0,1-6.36,4.23,1.74,1.74,0,0,1-.88.22,1.4,1.4,0,0,1-1.38-1.41,1.58,1.58,0,0,1,1-1.4,38.76,38.76,0,0,0,12.22-10.31,1.58,1.58,0,0,1,1.26-.66,1.41,1.41,0,0,1,1.18,2.34,39.35,39.35,0,0,1-5.33,5.61,1.31,1.31,0,0,1,1.31,1.31v11a1.34,1.34,0,0,1-1.48,1.31,1.36,1.36,0,0,1-1.49-1.31Z" style="fill:#324759"/><path d="M702.68,400a1.43,1.43,0,0,1,1.23-.78,1.58,1.58,0,0,1,.66.15,30.13,30.13,0,0,1,5.33,3.22,1.63,1.63,0,0,1,.7,1.31,1.46,1.46,0,0,1-1.43,1.49,1.75,1.75,0,0,1-1.06-.38,43.16,43.16,0,0,0-4.7-3,1.83,1.83,0,0,1-.73-.7v10.83a1.34,1.34,0,0,1-1.48,1.31,1.36,1.36,0,0,1-1.49-1.31V393a1.39,1.39,0,0,1,1.49-1.34,1.37,1.37,0,0,1,1.48,1.34Z" style="fill:#324759"/><path d="M718.78,393a1.32,1.32,0,0,1,1.43,1.56,52.19,52.19,0,0,0-1.16,11.12,48.8,48.8,0,0,0,.46,5.91,1.36,1.36,0,0,1-1.44,1.53,1.38,1.38,0,0,1-1.46-1.23,50.87,50.87,0,0,1-.42-6.21,56.65,56.65,0,0,1,1.18-11.62A1.35,1.35,0,0,1,718.78,393Zm11.41,15.47a20.81,20.81,0,0,0,3.8-.38,1.34,1.34,0,0,1,1.63,1.38,1.3,1.3,0,0,1-1.1,1.34,22.14,22.14,0,0,1-4.35.42c-4.65,0-6.59-1.4-6.87-4.45a1.41,1.41,0,0,1,1.46-1.53,1.23,1.23,0,0,1,1.28,1.08C726.27,407.88,727.05,408.46,730.19,408.46Zm4-11.92a1.39,1.39,0,0,1-1.29,1.38,64.08,64.08,0,0,1-7.09.55,1.32,1.32,0,0,1-1.46-1.35,1.33,1.33,0,0,1,1.36-1.36,61.56,61.56,0,0,0,6.92-.55A1.32,1.32,0,0,1,734.17,396.54Z" style="fill:#324759"/><path d="M753.41,395.78c4.5,0,7.54,2.42,7.54,6.26,0,4.81-3.57,8.18-10.49,9.16a1.41,1.41,0,1,1-.42-2.79c5.88-1,7.94-3.05,7.94-6.37,0-1.93-1.46-3.59-4.57-3.59s-7.15,1-11.65,3a2,2,0,0,1-.73.15,1.37,1.37,0,0,1-1.4-1.38,1.49,1.49,0,0,1,1-1.38A33.28,33.28,0,0,1,753.41,395.78Z" style="fill:#324759"/><path d="M768.64,394.05a1.36,1.36,0,0,1,1.49,1.41c0,.78-.1,1.38-.1,2.29,0,8.8,1.78,11.11,2.84,11.11.6,0,1.13-.4,1.63-2.29a1.3,1.3,0,0,1,1.29-1.08,1.39,1.39,0,0,1,1.43,1.36,1.3,1.3,0,0,1-.05.43c-.93,3.37-2.54,4.6-4.23,4.6-3.64,0-5.85-4.5-5.85-14.06,0-1.16,0-1.91.1-2.57A1.37,1.37,0,0,1,768.64,394.05Zm19,10.66a2,2,0,0,1,.11.53,1.36,1.36,0,0,1-1.41,1.33,1.41,1.41,0,0,1-1.34-.95,21.82,21.82,0,0,0-4.35-6.84,1.33,1.33,0,0,1-.42-.93,1.39,1.39,0,0,1,1.43-1.29,1.68,1.68,0,0,1,1.11.48A20.12,20.12,0,0,1,787.6,404.71Z" style="fill:#324759"/><path d="M804.28,397c-3,.4-7,1-10.64,1.53a1.39,1.39,0,0,1-1.66-1.4,1.35,1.35,0,0,1,1.31-1.39c5.23-.68,11.72-1.38,17-1.86a1.33,1.33,0,0,1,1.51,1.34,1.35,1.35,0,0,1-1.16,1.35,8.57,8.57,0,0,0-2.77,1c-3.92,2.24-4.75,4.85-4.75,7.24,0,2.79,1.94,4.5,5.46,4.93a1.49,1.49,0,1,1-.28,3c-4.75-.36-8.1-3.55-8.1-7.82a10.16,10.16,0,0,1,4.13-7.85Z" style="fill:#324759"/><path d="M816.15,398c-.66,0-1-.63-1-1.26a1.12,1.12,0,0,1,1-1.25h7.69a1.28,1.28,0,0,1,0,2.51ZM819,413.81c-1.91,0-2.54-.75-2.54-2.31v-3c0-1.56.63-2.32,2.54-2.32h2.62c1.93,0,2.56.76,2.56,2.32v3c0,1.79-.85,2.29-2.56,2.31Zm-1.43-19.51a1.06,1.06,0,0,1-1-1.18c0-.61.33-1.18,1-1.18h5.28a1,1,0,0,1,1,1.18,1.06,1.06,0,0,1-1,1.18Zm0,7.19a1.06,1.06,0,0,1-1-1.18c0-.6.33-1.18,1-1.18h5.28a1.05,1.05,0,0,1,1,1.18,1.06,1.06,0,0,1-1,1.18Zm0,3.52a1.06,1.06,0,0,1-1-1.18c0-.6.33-1.18,1-1.18h5.28a1.05,1.05,0,0,1,1,1.18,1.06,1.06,0,0,1-1,1.18Zm3.54,6.54c.4,0,.53-.15.53-.58V409c0-.43-.13-.58-.53-.58h-1.58c-.43,0-.56.15-.56.58V411c0,.4.13.58.56.58Zm5.46-13.15a1,1,0,0,1-1-1.13,1,1,0,0,1,1-1.13h5a29.1,29.1,0,0,0,1.84-4.2,1.19,1.19,0,0,1,1.21-.86,1.26,1.26,0,0,1,1.33,1.13,1.41,1.41,0,0,1-.08.43,22.39,22.39,0,0,1-1.63,3.5h3a1,1,0,0,1,1,1.13,1,1,0,0,1-1,1.13h-4.27v2.19h3.29a1,1,0,0,1,1,1.13,1,1,0,0,1-1,1.13h-3.29v2.57h4.8a1.17,1.17,0,0,1,0,2.31h-4.8v5.56c0,.67-.66,1-1.31,1s-1.31-.36-1.31-1v-5.56h-4.27a1.17,1.17,0,0,1,0-2.31h4.27v-2.57h-3.09a1,1,0,0,1-1-1.13,1,1,0,0,1,1-1.13h3.09V398.4Zm4.12-4.78a1.56,1.56,0,0,1,.15.63,1.25,1.25,0,0,1-1.3,1.18,1.19,1.19,0,0,1-1.08-.65c-.31-.63-.68-1.23-1-1.81a1.11,1.11,0,0,1-.2-.63,1.19,1.19,0,0,1,1.26-1.06,1.27,1.27,0,0,1,1,.51A8.83,8.83,0,0,1,830.73,393.62Z" style="fill:#324759"/><path d="M845.07,393.27a1.35,1.35,0,0,1,1.46-1.26,1.31,1.31,0,0,1,1.45,1.38c-.27,3.73-.52,8.5-.52,12.38,0,3.37,1,4.27,2.81,4.27,2.34,0,4.53-1,6.84-3.82a1.55,1.55,0,0,1,1.21-.63A1.44,1.44,0,0,1,859.8,407a1.46,1.46,0,0,1-.35.93c-2.86,3.57-5.91,4.93-9.18,4.93-3.74,0-5.73-1.86-5.73-7.09C844.54,401.74,844.79,397,845.07,393.27Z" style="fill:#324759"/><path d="M873.13,391.53a1.48,1.48,0,0,1,1.51,1.41,1.78,1.78,0,0,1-.3.91,61.12,61.12,0,0,1-5.71,7.09,1.59,1.59,0,0,0-.53,1.1,1.74,1.74,0,0,0,.61,1.19,75.84,75.84,0,0,1,6.38,7.82,1.93,1.93,0,0,1,.38,1,1.54,1.54,0,0,1-1.58,1.46,1.62,1.62,0,0,1-1.41-.83,71.74,71.74,0,0,0-6-7.85,4.09,4.09,0,0,1-1.34-2.79,3.59,3.59,0,0,1,1.19-2.61,49.25,49.25,0,0,0,5.58-7.25A1.39,1.39,0,0,1,873.13,391.53Z" style="fill:#324759"/><polyline points="514.67 417.32 523.83 402.89 514.67 388.46" style="fill:none;stroke:#ffc02e;stroke-linecap:round;stroke-linejoin:round;stroke-width:4px"/><polyline points="531.1 417.32 540.25 402.89 531.1 388.46" style="fill:none;stroke:#ffc02e;stroke-linecap:round;stroke-linejoin:round;stroke-width:4px"/><path d="M450.75,300.15c-1.83,1.1-3.72,2.1-5.82,3.15a139.67,139.67,0,0,0-13.75,7.24c-4,2.62-6.92,5.4-6.92,8.81s3.3,5,10,5a88.4,88.4,0,0,0,17.15-2l-.1,9.08a98.63,98.63,0,0,1-16.84,1.31c-10.71,0-18.94-2.88-18.94-12.48,0-5.93,3.67-10.18,8.44-13.8-2.41-4.46-4.82-9.76-7.13-15.21l7.92-3.2A111,111,0,0,0,431,301.94c3.83-2.21,7.77-4.25,10-5.56a36.81,36.81,0,0,0,5.41-3.52Z" style="fill:#1e3244"/><path d="M475.56,289.71a51.46,51.46,0,0,0-1.41,5.3c-.63,2.68-2.42,14.79-2.42,19.62a8.52,8.52,0,0,0,.06,1.21c.63-1.52,1.26-2.52,1.94-4l3.83,3c-1.58,4.67-3.15,9.92-3.78,12.91a15.42,15.42,0,0,0-.31,2.46c0,.58,0,1.52,0,2.36l-7.08.47a59.31,59.31,0,0,1-2.15-16.62,158.59,158.59,0,0,1,2-21.57c.21-1.57.53-3.93.58-5.87Zm30.9,40A57.69,57.69,0,0,0,500.9,325c-.68,4.87-3.88,7.92-10.7,7.92-7.29,0-12.12-3.15-12.12-9s4.78-9.54,12-9.54c.9,0,1.79.05,2.63.1-.16-2.73-.32-5.93-.37-9.18-1,.05-2,.05-2.94.05-3.09,0-6.19-.1-9.28-.31l-.05-7.5a91.37,91.37,0,0,0,9.28.47c1,0,1.94,0,2.94-.05-.05-2.42-.05-4.36-.11-5.3a24.9,24.9,0,0,0-.42-3.57h9c-.15,1-.26,2.31-.31,3.46-.05,1-.1,2.73-.16,4.88,2.63-.26,5.2-.68,7.56-1.15V304c-2.31.32-4.88.63-7.61.84.11,4.72.37,8.45.52,11.49a33,33,0,0,1,10,6.72ZM493,320.87a13.38,13.38,0,0,0-3.51-.47c-2.42,0-4,1-4,2.57,0,1.84,1.83,2.47,4,2.47,2.51,0,3.51-1.37,3.51-4.2Z" style="fill:#1e3244"/><path d="M539.77,302.2c0-2.89-2.46-4.2-5.92-4.2a9.7,9.7,0,0,0-7.51,3.78l-5.14-4.72A17.75,17.75,0,0,1,535,290.45c7.71,0,13.74,3.41,13.74,10.91s-10.86,8.08-10.38,15h-8.19C529.28,308.39,539.77,306.81,539.77,302.2Zm-5.56,17.21c3.62,0,6.19,2.36,6.19,5.71s-2.57,5.83-6.19,5.83-6.19-2.47-6.19-5.83S530.59,319.41,534.21,319.41Z" style="fill:#1e3244"/><path d="M835.48,127a19,19,0,0,0-11.33,11.64A18.93,18.93,0,0,0,812.86,127a19.08,19.08,0,0,0,11.29-11.69A19.17,19.17,0,0,0,835.48,127Z" style="fill:url(#ak)"/><path d="M426.81,387.48a19,19,0,0,0-11.33,11.64,19,19,0,0,0-11.29-11.64,19.08,19.08,0,0,0,11.29-11.69A19.17,19.17,0,0,0,426.81,387.48Z" style="fill:url(#al)"/><path d="M89.15,187.06a19,19,0,0,0-11.33,11.63,18.94,18.94,0,0,0-11.29-11.63,19.07,19.07,0,0,0,11.29-11.7A19.16,19.16,0,0,0,89.15,187.06Z" style="fill:url(#am)"/></svg>