<svg xmlns="http://www.w3.org/2000/svg" xmlns:xlink="http://www.w3.org/1999/xlink" viewBox="0 0 942 471"><defs><clipPath id="a"><rect x="-1293.83" y="-657.39" width="942" height="471" style="fill:none"/></clipPath><clipPath id="b"><rect x="354.87" y="235.5" width="232.59" height="176.38" style="fill:none"/></clipPath><clipPath id="c"><path d="M405.93,363.74c-12.54,2.17-29.58,8.59-35,22.28a8.23,8.23,0,0,0-.12,6.83c3.34,6.55,17.57,8.92,24.41,9.93,30,4.41,63.26-6.24,90.44-19.91l-37-19.47c-8.07-.45-16.21-1.07-24.31-1.07a107.88,107.88,0,0,0-18.39,1.41" style="fill:none"/></clipPath><clipPath id="d"><rect x="354.87" y="243.77" width="232.59" height="176.38" style="fill:none"/></clipPath><clipPath id="e"><path d="M416.06,324.13a15.25,15.25,0,0,0-6.13,1.61c-3.33,1.91-5.08,5.88-5.22,9.72s1.09,7.58,2.52,11.14a159.64,159.64,0,0,0,12.06,23.07c5,8.29,10.81,16.83,19.59,21,7.5,3.54,15.93,3.35,24.34,3.15,3.06-.08,6.13-.15,9.14,0,4.13.15,8.52.59,12.14-1.38L487.67,369c-8-12.52-17.59-24.22-29.76-32.71C447.1,328.77,434.1,323.9,421,323.9c-1.64,0-3.27.08-4.91.23" style="fill:none"/></clipPath></defs><g style="isolation:isolate"><rect width="942" height="471" style="fill:#fff"/><path d="M941.11.89V470.11H.89V.89H941.11M942,0H0V471H942V0Z" style="fill:#d5d5d5"/><g style="clip-path:url(#a)"><rect x="-2404.71" y="-315.29" width="3345.9" height="311.54" transform="translate(7.35 -38.52) rotate(-3)" style="fill:#ffbf2e"/></g><path d="M325.94,48.19h-5.4V45h14.71v3.2h-5.46v16h-3.85Z" style="fill:#1e3244"/><path d="M344.42,45.25a2.28,2.28,0,1,1,2.29,2.08A2.12,2.12,0,0,1,344.42,45.25Zm.36,4.42h3.8V64.23h-3.8Z" style="fill:#1e3244"/><path d="M359.41,49.67h3.12l.26,1.51h.1a6.9,6.9,0,0,1,4.29-1.87c3.59,0,5.72,2.94,5.72,7.41,0,5-3,7.88-6.19,7.88A5.44,5.44,0,0,1,363.1,63l.1,2.39v4.42h-3.79Zm9.56,7.1c0-2.78-.88-4.32-2.88-4.32A4.14,4.14,0,0,0,363.2,54v6.4a4.11,4.11,0,0,0,2.65,1.09C367.62,61.45,369,59.94,369,56.77Z" style="fill:#1e3244"/><path d="M381.49,62.54l1.74-2.39a6.36,6.36,0,0,0,3.91,1.59c1.45,0,2.1-.63,2.1-1.54,0-1.09-1.51-1.58-3-2.18-1.85-.7-4-1.82-4-4.24,0-2.63,2.13-4.47,5.41-4.47a8.18,8.18,0,0,1,5,1.79l-1.72,2.32a5.61,5.61,0,0,0-3.15-1.25c-1.3,0-1.92.57-1.92,1.4,0,1.07,1.43,1.46,3,2,1.93.73,4.06,1.69,4.06,4.39,0,2.55-2,4.61-5.8,4.61A9.16,9.16,0,0,1,381.49,62.54Z" style="fill:#1e3244"/><path d="M422.69,46a20.64,20.64,0,0,1-6,6,37.17,37.17,0,0,0,9.2,2.65,14.62,14.62,0,0,0-2,2.89c-.83-.16-1.61-.37-2.42-.57v9.46h-3.33v-.86h-9.41v1h-3.15V57c-1,.29-2,.55-3,.76a12.34,12.34,0,0,0-1.51-2.79,42.27,42.27,0,0,0,9.57-3,25.42,25.42,0,0,1-3.12-2.73A25.78,25.78,0,0,1,403.92,52a20,20,0,0,0-2.29-2.31A20.94,20.94,0,0,0,409.9,42l2.94,1c-.37.57-.73,1.17-1.15,1.74h8.25l.52-.15ZM420.77,56.8a33.33,33.33,0,0,1-7.18-3,38.63,38.63,0,0,1-7.44,3Zm-2.63,6.05V59.6h-9.41v3.25Zm-8.53-15.49a21.92,21.92,0,0,0,4,3.07,19.5,19.5,0,0,0,4-3.07Z" style="fill:#1e3244"/><path d="M456.84,58.69a14.81,14.81,0,0,1-2.94,4,2.22,2.22,0,0,0,1.75,1.2c.65,0,.88-.49,1-2.55a7.41,7.41,0,0,0,2,1.41c-.46,2.93-1.19,3.71-3.22,3.71a4.26,4.26,0,0,1-3.56-2.08A18.83,18.83,0,0,1,448,66.47a11.84,11.84,0,0,0-1.61-2,16.23,16.23,0,0,0,4.34-2.34,24.84,24.84,0,0,1-1.2-4.37h-2.93c0,.34-.08.68-.13,1a21.66,21.66,0,0,1,3.09,2.39l-1.66,2.06a16.61,16.61,0,0,0-2-1.77,8.9,8.9,0,0,1-3.46,5,7.43,7.43,0,0,0-1.74-2c2.28-1.53,2.93-4,3.19-6.63h-1.61V56.61l-1,1.54c-.26-.78-.78-2-1.3-3.12V66.47h-2.76v-9.6a21.89,21.89,0,0,1-2.08,4.89,16.82,16.82,0,0,0-1.3-2.62,27.25,27.25,0,0,0,3.18-8.77h-2.58V47.56h2.78V42.21h2.76v5.35h2.31c-.18-.18-.39-.33-.57-.49l1.15-1.69.44.34a27.91,27.91,0,0,0,1.27-3.36l2.29.89c-.73,1.25-1.48,2.68-2.11,3.72.24.23.47.46.65.67a26.07,26.07,0,0,0,1.33-2.52l1.74.86c0-1.22-.05-2.47-.05-3.75h2.73c0,1.46,0,2.87,0,4.24l.75-1.09.42.31a26.5,26.5,0,0,0,1.28-3.35l2.31.88c-.73,1.3-1.48,2.71-2.13,3.72l.67.68c.5-.86,1-1.74,1.33-2.5l2.11,1c-1,1.64-2.29,3.54-3.44,5.07l1.56-.1a11.4,11.4,0,0,0-.44-1.07l1.74-.62a16,16,0,0,1,1.36,3.85l-1.85.77a8.74,8.74,0,0,0-.21-1l-1.92.26a10.05,10.05,0,0,1,2,1.64l-.49.44h2v2.39h-3.63Zm-7.77-3.3c-.05-.54-.13-1.12-.21-1.69l-1.77.7c0-.23,0-.49-.1-.78-1.69.18-3.3.39-4.76.55l-.42-2.29.81-.05c.49-.68,1-1.46,1.56-2.29a16.55,16.55,0,0,0-1.92-1.92v2.75h-2.37v1.12c.55.81,1.8,2.81,2.42,3.9Zm-1.3-5.56a15.23,15.23,0,0,1,1,2.91c-.18-1.9-.31-3.9-.36-6-1,1.61-2.26,3.43-3.38,4.89l1.4-.11c-.13-.41-.26-.8-.41-1.17Zm4.11,1.58c.41-.54.85-1.19,1.3-1.87a18.71,18.71,0,0,0-2.08-2.11c0,1.41.1,2.74.21,4Zm2.08,4a14.3,14.3,0,0,0-1.25-1l1.17-1c-.81.07-1.56.18-2.29.26l-.15-.73c.07.85.18,1.66.31,2.44Zm-1.8,2.39c.19.86.39,1.67.6,2.37a10.71,10.71,0,0,0,1.51-2.37Z" style="fill:#1e3244"/><path d="M476.75,43.93a25.34,25.34,0,0,1,3.14,6l-2.83,1.14a10.27,10.27,0,0,0-.47-1.38c-3.43.24-7,.45-9.62.6l-.26-2.94c.62,0,1.3,0,2-.05a42,42,0,0,0,1.9-5.23l3.22.66c-.6,1.5-1.3,3.06-1.95,4.44l3.46-.15c-.39-.73-.81-1.46-1.22-2.14Zm1.3,19.42c0,1.35-.26,2.1-1.12,2.55a7.77,7.77,0,0,1-3.64.52,11.43,11.43,0,0,0-1-2.73c.91.05,1.95,0,2.29,0s.41-.08.41-.39V61.55h-3.9v4.92h-2.86V51.54h9.81Zm-6.95-9.26v1.35H475V54.09Zm3.9,5.17V57.73h-3.9v1.53Zm8.87-5.38c-3,0-3.77-.91-3.77-3.77V42.29h3.07V46a42.24,42.24,0,0,0,4.68-2.16l2,2.23a47.72,47.72,0,0,1-6.65,2.45v1.53c0,.94.15,1,1.14,1h2.84c.83,0,1-.39,1.12-2.65A8.38,8.38,0,0,0,491,49.59c-.33,3.33-1.14,4.29-3.53,4.29Zm3.43,9.73c.89,0,1.07-.5,1.2-3.12a9.67,9.67,0,0,0,2.7,1.14c-.34,3.67-1.12,4.68-3.61,4.68H483.9c-3,0-3.8-.88-3.8-3.74V54.4h3v3.51A29.25,29.25,0,0,0,488,55.47l2.05,2.26a39.53,39.53,0,0,1-6.94,2.76v2.08c0,.91.18,1,1.2,1Z" style="fill:#1e3244"/><path d="M510.82,62.26a22.91,22.91,0,0,0,2.39-.42c3.3-.78,5.85-3.15,5.85-6.89,0-3.56-1.92-6.22-5.38-6.81a56.82,56.82,0,0,1-1.53,7c-1.54,5.2-3.77,8.37-6.58,8.37s-5.25-3.14-5.25-7.49c0-5.92,5.17-11,11.85-11,6.37,0,10.4,4.45,10.4,10.06,0,5.41-3.33,9.26-9.83,10.25Zm-2-7.8a42.19,42.19,0,0,0,1.38-6.24,8.06,8.06,0,0,0-6.53,7.46c0,2.6,1,3.87,2,3.87S507.78,57.94,508.82,54.46Z" style="fill:#1e3244"/><path d="M549.39,57A12.34,12.34,0,0,1,548,61.5a26.09,26.09,0,0,0,8.89,2.19A12.71,12.71,0,0,0,555,66.44a23.74,23.74,0,0,1-8.89-2.73,13.22,13.22,0,0,1-5.33,2.78,16.91,16.91,0,0,0-1.93-2.57,11.93,11.93,0,0,0,4.73-2A14.91,14.91,0,0,1,540.4,58l2.52-.78a10.41,10.41,0,0,0,2.42,2.68,8.51,8.51,0,0,0,1-3h-5.8V49.39h6V47.56H540V45.17c-.46,1-1,2-1.56,3V66.55h-2.93v-14A29.32,29.32,0,0,1,533.32,55a20,20,0,0,0-1.63-3.18A27.66,27.66,0,0,0,538,42.16l2.86.93c-.24.55-.47,1.09-.7,1.67h6.34V42.39h3.07v2.37h6.89v2.8h-6.89v1.83h6.19V57Zm-2.91-2.5V51.91h-3.2v2.57Zm3.07-2.57v2.57h3.22V51.91Z" style="fill:#1e3244"/><path d="M570.52,48.84c0,1.66,0,3.61.15,5.46.37,3.72,1.15,6.24,2.76,6.24,1.22,0,2.23-3,2.73-5l2.6,3.12c-1.72,4.47-3.33,6.05-5.41,6.05-2.81,0-5.28-2.54-6-9.46-.23-2.37-.28-5.36-.28-6.94a15.51,15.51,0,0,0-.18-2.6l4,0A20.66,20.66,0,0,0,570.52,48.84ZM588.4,59.42l-3.4,1.3c-.39-4.13-1.77-10.19-4.58-13.36l3.28-1.1C586.14,49.26,588.12,55.47,588.4,59.42Z" style="fill:#1e3244"/><path d="M608.88,49.31c-.08,1.12-.16,2.26-.29,3.38h10s0,.93-.1,1.35c-.47,7.07-1,10-2.06,11.13a3.82,3.82,0,0,1-2.81,1.19,34,34,0,0,1-4.44,0,7.23,7.23,0,0,0-1.09-3c1.79.18,3.61.18,4.36.18a1.69,1.69,0,0,0,1.25-.33c.68-.58,1.15-2.84,1.51-7.57H608.1c-1,4.39-3.15,8.45-8.35,11.08a9.8,9.8,0,0,0-2.18-2.63c7-3.25,7.62-9.18,7.9-14.74H598v-3h10V42.1h3.19v4.24h10.27v3Z" style="fill:#1e3244"/><g style="clip-path:url(#b)"><path d="M412.57,375.37c9.36-1.64,18.53,6,18.53,6s-6,10.31-15.38,11.95-18.53-6-18.53-6,6-10.31,15.38-11.95" style="fill:#ffd673"/><path d="M488.48,393c-34.83,1.52-89.09,11.16-112.6-22.45-9.09-13-11.74-31.07-4.91-45.6a42.91,42.91,0,0,1,26.61-22.55c11.21-3.33,24.11-4,31.55-14.42,2.93-4.12,4.12-13.31,5.3-18.22,8.62-35.75,52.75-44.18,78.35-22,16.82,14.59,19.37,46.6,19.22,67.43" style="fill:#ffd66c"/></g><g style="clip-path:url(#c)"><path d="M448.63,363.4c-14.21-.8-28.62-2.09-42.7.34-12.54,2.16-29.58,8.59-35,22.28-.86,2.18-1.25,4.63-.12,6.83,3.34,6.55,17.57,8.92,24.41,9.93,30,4.41,63.26-6.24,90.44-19.91" style="fill:#f8e2a4"/><path d="M368.6,394.74c24.61-7.75,49.32-15.53,74.76-20.13q10.84-2,21.81-3.05c.84-.08.85-1.41,0-1.32-25.84,2.49-51,9.13-75.81,16.65-7.05,2.14-14.08,4.36-21.11,6.57-.81.26-.47,1.54.35,1.28" style="fill:#f4f5f8"/><path d="M378.9,372.28A87,87,0,0,0,396,386.07c.72.46,1.39-.69.67-1.15a85.36,85.36,0,0,1-16.83-13.58c-.58-.63-1.51.31-.94.93" style="fill:#f4f5f8"/><path d="M396,385.08A291.38,291.38,0,0,0,388.42,417c-.14.84,1.14,1.2,1.28.35a293.66,293.66,0,0,1,7.56-31.89.66.66,0,0,0-.5-.79.65.65,0,0,0-.77.44" style="fill:#f4f5f8"/><path d="M420.94,378.29a135.1,135.1,0,0,1-12.11-18.87c-.39-.75-1.54-.08-1.15.67A135.1,135.1,0,0,0,419.79,379c.51.67,1.66,0,1.15-.67" style="fill:#f4f5f8"/><path d="M419.6,379.73l-3.18,28c-.1.85,1.22.84,1.32,0q1.59-14,3.19-28c.09-.85-1.23-.84-1.33,0" style="fill:#f4f5f8"/><path d="M447.25,373.06a99.62,99.62,0,0,0-2.46,16.48,97.54,97.54,0,0,0,.12,17.09c.08.84,1.41.85,1.32,0a96.25,96.25,0,0,1-.14-16.72,98.78,98.78,0,0,1,2.44-16.5c.2-.83-1.08-1.18-1.28-.35" style="fill:#f4f5f8"/></g><g style="clip-path:url(#d)"><path d="M487.67,369c-8-12.53-17.59-24.22-29.75-32.71s-27.09-13.59-41.86-12.19a15.25,15.25,0,0,0-6.13,1.61c-3.33,1.91-5.08,5.88-5.22,9.71s1.09,7.59,2.52,11.15a159.64,159.64,0,0,0,12.06,23.07c5,8.29,10.81,16.82,19.59,21,10.23,4.83,22.18,2.7,33.48,3.11,4.13.15,8.52.59,12.14-1.38" style="fill:#ffbf2e"/></g><g style="clip-path:url(#e)"><path d="M408.26,328.49c12.16,7.06,24.13,14.47,35.57,22.65a241.84,241.84,0,0,1,32.06,27,179.27,179.27,0,0,1,15.56,18c.51.67,1.66,0,1.14-.67a193.37,193.37,0,0,0-29-30.61,308,308,0,0,0-34.21-25.12c-6.73-4.31-13.58-8.44-20.49-12.45a.66.66,0,0,0-.91.24.65.65,0,0,0,.24.9h0" style="fill:#f8e2a4"/><path d="M406.59,354.47a187.61,187.61,0,0,1,32.11-7.06c.83-.11.85-1.44,0-1.33a190.47,190.47,0,0,0-32.46,7.11c-.81.25-.47,1.53.35,1.28" style="fill:#f8e2a4"/><path d="M419.54,375.36a406.15,406.15,0,0,1,41.9-10.94c.83-.18.48-1.45-.36-1.28a406.63,406.63,0,0,0-41.89,10.94c-.81.25-.46,1.54.35,1.28" style="fill:#f8e2a4"/><path d="M446.75,351.51a75.61,75.61,0,0,1,3-24.75.66.66,0,0,0-1.28-.35,77.17,77.17,0,0,0-3.07,25.1c0,.85,1.36.85,1.33,0" style="fill:#f8e2a4"/><path d="M476,376.9c-7.54,2.15-15.07,4.39-22.41,7.17a88.37,88.37,0,0,0-18.74,9.27c-.7.48,0,1.63.67,1.14a87.81,87.81,0,0,1,18.79-9.27c7.22-2.71,14.62-4.92,22-7a.66.66,0,0,0,.44-.83.65.65,0,0,0-.79-.45" style="fill:#f8e2a4"/></g><g style="clip-path:url(#d)"><path d="M533.17,416.34c0,2.1-9.1,3.8-20.32,3.8s-20.32-1.7-20.32-3.8,9.1-3.8,20.32-3.8,20.32,1.7,20.32,3.8" style="fill:#9f711d;mix-blend-mode:multiply;opacity:0.2"/><path d="M546.81,408.43H478.89a8.83,8.83,0,0,1-8.83-8.83V279.41a8.83,8.83,0,0,1,8.83-8.83h67.92a8.83,8.83,0,0,1,8.83,8.83V399.6a8.83,8.83,0,0,1-8.83,8.83" style="fill:#1e3244"/><path d="M474.59,400.12V278.89a3.53,3.53,0,0,1,3.53-3.53h69.46a3.54,3.54,0,0,1,3.54,3.53V400.12a3.54,3.54,0,0,1-3.54,3.53H478.12a3.53,3.53,0,0,1-3.53-3.53" style="fill:#f4f5f8"/><path d="M474.59,400.12V278.89a3.53,3.53,0,0,1,3.53-3.53h69.46a3.54,3.54,0,0,1,3.54,3.53V400.12a3.54,3.54,0,0,1-3.54,3.53H478.12a3.53,3.53,0,0,1-3.53-3.53" style="fill:none"/><path d="M534.35,278.88h-43a3,3,0,0,1-2.88-2.23l-1.61-5.45h52l-1.6,5.45a3,3,0,0,1-2.89,2.23" style="fill:#1e3244"/><path d="M576.82,364.06c-5.57,3.68-13.62,1.33-13.62,1.33s1-8.34,6.54-12S583.37,352,583.37,352s-1,8.34-6.55,12" style="fill:#ffbf2e"/><path d="M451.22,309.26c-5.65-3.74-6.63-12.19-6.63-12.19s8.16-2.38,13.81,1.36S465,310.62,465,310.62s-8.16,2.38-13.8-1.36" style="fill:#fbf1da"/><path d="M587.46,326.92a5.27,5.27,0,1,1-5.27-5.27h0a5.27,5.27,0,0,1,5.27,5.27h0" style="fill:#f7d66c"/><path d="M540.78,259.57a5.27,5.27,0,1,1-5.27-5.27h0a5.27,5.27,0,0,1,5.27,5.27" style="fill:#f7d66c"/><path d="M365.41,354.59a5.27,5.27,0,1,1-5.27-5.27h0a5.27,5.27,0,0,1,5.27,5.27" style="fill:#ffbf2e"/></g><path d="M612,356.69c-1.4-.46-3.88,1.22-3.84,3.54s.67,3.9,1.89,4.14a3.52,3.52,0,0,0,4.18-2.84C614.64,358.93,614.22,357.42,612,356.69Z" style="fill:#ffd3b6"/><path d="M610.91,355.8c-.59.37-1.28.31-1.89.82a2.92,2.92,0,0,0-1,2.08,9.6,9.6,0,0,0,.18,1.05,4.5,4.5,0,0,1,1-1.86c.67-.59.64-.49.64-.49s1.46-.36,1.7.11a1.68,1.68,0,0,1,1.82,1.54v.11a18.38,18.38,0,0,0,.43,1.94,2.93,2.93,0,0,1-.82,2.34,3.91,3.91,0,0,1,.75.53,1.7,1.7,0,0,1,.42.75s1.74-.7,1.67-1.48a5.65,5.65,0,0,1,.88,1,2.2,2.2,0,0,0,.27-1.75c-.29-.92-.2-1.61-.48-2.42,0,0,1,.95,1,1.22a1.84,1.84,0,0,0,.37.63,4.11,4.11,0,0,0-.45-2.18c-.55-1-1.36-1.25-1.39-1.64a4.38,4.38,0,0,0-2.28-2.1A3.68,3.68,0,0,0,610.91,355.8Z" style="fill:#333233"/><path d="M613.72,361s.06-.49.44-.49,1,.34.66,1.28-.79.9-.79.9a.55.55,0,0,1-.43-.55A7.23,7.23,0,0,1,613.72,361Z" style="fill:#ffd3b6"/><path d="M610.46,364s-.23,1.79-.57,2-.3.1-.3.1a16.3,16.3,0,0,0,.79,1.56,10.73,10.73,0,0,0,1.92-1.1c.65-.54.93-.56.93-.56s-.3-.21-.5-1.29-.28-1.78-.28-1.78Z" style="fill:#ffd3b6"/><path d="M605.47,409.19l-2.68-1-1.53,4,2,1.52Z" style="fill:#ffd3b6"/><path d="M616.46,404.17l1.86,2.95-1.75,1.45L614,405.76Z" style="fill:#ffd3b6"/><path d="M614.21,380.4a28,28,0,0,1-3.88.4,22,22,0,0,1-3.88-.34,14.79,14.79,0,0,0-1.25,3.06c-.41,1.56-.19,2.58.64,5.92s4.86,13.17,4.86,13.17.63,3.47.79,4.9c0,0,2.73.15,5.55-3.05,0,0-.94-1.56-1.26-2a1.24,1.24,0,0,0-1.07-.34,5.81,5.81,0,0,0-.35-3.15c-.66-1.11-2.89-7.31-2.89-7.31Z" style="fill:#e8e7e7"/><path d="M600.25,406.8a60.33,60.33,0,0,1,3.79-5.48s2.81-5,3-6.09,1.34-8.06,2.57-9.8l4.68-6.1a17.32,17.32,0,0,1,1.82,4.17c.22,1.45-1.67,6.32-2.34,8.05s-2.45,7.93-2.45,7.93-3.48,9.2-4.73,11.46a29.72,29.72,0,0,0-3.35-2.31A34.81,34.81,0,0,1,600.25,406.8Z" style="fill:#e8e7e7"/><path d="M611.48,365.64c1.15.11,3.41.54,3.41.54s-1.53,10.55-.88,15.05l-7.21.53L605.6,373l2.75-6.35A4.45,4.45,0,0,1,611.48,365.64Z" style="fill:#fff"/><path d="M614.56,365.81a3.08,3.08,0,0,0-2,2.22,18.65,18.65,0,0,0-.74,4.63c0,1.07,2.52,9.9,2.52,9.9l4.71-1.39s-2-3.47-3-5.47c0,0,1.27-5.61.82-6.81S616.63,366.9,614.56,365.81Z" style="fill:#002466"/><path d="M609.64,365.79s-2.92,5.27-2.91,7.8,1,8.93,1,8.93a31.65,31.65,0,0,1-3.64.15c0-.55,1-8.71,1-8.71a7.25,7.25,0,0,1,.61-3.9,9.84,9.84,0,0,1,2.12-3.54Z" style="fill:#002466"/><path d="M602,376.34c-1.47,1.5-4.7,4.48-5.48,5.14a6.47,6.47,0,0,0-1.76,2.59c-.38,1,.89,1.49,1.67,1.17s1.56-2.63,1.56-2.63,4.7-2.68,5.72-4.32Z" style="fill:#ffd3b6"/><path d="M618.8,377.74s3.22,4.47,4,5.44,1.37,2.7,2.32,3.11a6.66,6.66,0,0,0,2.7.69c.57-.06.81-1-1.23-1.83a11.69,11.69,0,0,1,1.3.31c.62.34.71-.14.41-.3-.49-.26-1-.42-1.44-.65a6.28,6.28,0,0,1-2.06-1.91c-.53-.88-1.44-4-3.34-5.55Z" style="fill:#ffd3b6"/><path d="M615.73,366.76c.65-.34,1.3,1,1.86,2.26a43.36,43.36,0,0,0,2.41,4.51c.8,1.31,1.36,2.19,2.28,3.65,0,0-.65,1.42-1.53,1.73a2.31,2.31,0,0,1-1.19.2s-2.15-3.66-3.18-4.94-1.64-1.3-1.78-2.31S614.35,367.46,615.73,366.76Z" style="fill:#002466"/><path d="M607.85,366.52s-1.56.16-1.92.74-4.59,8.08-4.59,8.08,2,2.39,3.17,3.52Z" style="fill:#002466"/><path d="M617.7,406.13l-1.13,2.44a12.11,12.11,0,0,1-1,3.1c-.67,1.32-.61,2.3.72,1.88s2.47-3.11,3.18-3.88.27-1.52-.42-2A6.34,6.34,0,0,1,617.7,406.13Z" style="fill:#ffd3b6"/><path d="M603.54,412a6.15,6.15,0,0,1-.7,2.62c-.58.64-2.29-.6-3.53-1s-4-2.09-3.07-3.22c.52-.63,5,.76,5,.76Z" style="fill:#ffd3b6"/><path d="M619.24,407.78s-1.54,3.66-2.74,4.15-.89-.26-.89-.26a2.87,2.87,0,0,0-.49,1.7c.17.68,1.06.56,1.75.28s2.53-3.33,2.53-3.33,1.07-1.24.84-1.62A4.62,4.62,0,0,0,619.24,407.78Z" style="fill:#002466"/><path d="M603.37,413.21a1.76,1.76,0,0,1-.53,1.37,1.85,1.85,0,0,1-2-.07,21.91,21.91,0,0,1-3.89-2c-.82-.74-1.56-1.84-.94-2.21s1.88,0,1.88,0-1.35.3-.15,1.18S602.09,413.51,603.37,413.21Z" style="fill:#002466"/><path d="M338.52,369.08a12.73,12.73,0,0,0-5.81,1c-1,.54-.76,3.38-.73,4.39s-.53,8-.47,8.68c-.23.76-.56.89-.73,1.73a4.74,4.74,0,0,0,0,1.68,8.14,8.14,0,0,0-.19,2.09,2.62,2.62,0,0,0,.44,1s6.37.42,8.41.31,2.73-.58,2.9-.89a5.64,5.64,0,0,0-.39-2.57,10.23,10.23,0,0,1-.17-3c0-1.17.38-6.42.61-8.62s.75-3.55,0-4.16A8.62,8.62,0,0,0,338.52,369.08Z" style="fill:#fff"/><path d="M336.84,366.81s.19,1.7-.17,1.95a4.34,4.34,0,0,1-.95.45,4.45,4.45,0,0,0,1.7,1.37,2.5,2.5,0,0,0,2.15-.22,1.29,1.29,0,0,0,.42-.87s-.72-.33-.86-.59a7,7,0,0,1-.14-1.64Z" style="fill:#f9c5a5"/><path d="M338.12,361c2-.28,3.49.8,3.56,2.68s-.89,4.15-2.86,4.43c-1.67.23-3.1-.82-3.1-3.42C335.72,361.84,337.2,361.14,338.12,361Z" style="fill:#f9c5a5"/><path d="M344,380.46a45.64,45.64,0,0,1-.6,6.1,18,18,0,0,1-2.29,4.27l.23-10.37Z" style="fill:#f9c5a5"/><path d="M342.63,371.05a15.52,15.52,0,0,1,1.59,4.05c.55,2.3,1.09,5.78,1.09,5.78a2.69,2.69,0,0,1-1.84.85,13.06,13.06,0,0,1-2.34,0s-.21-7.26.25-8.77A3.15,3.15,0,0,1,342.63,371.05Z" style="fill:#fff"/><path d="M336,389.27s.18,6.86.51,9.93,1,4,.66,6.93a31.35,31.35,0,0,0,.62,8.48s-.5.67-.34,1.12a1.2,1.2,0,0,0,.34.56,2.77,2.77,0,0,0-.28.84c0,.28.28,1.56.28,1.56a3.15,3.15,0,0,0,2.62-.56s.11-3.24.28-4.07.73-8.13.95-10a106.92,106.92,0,0,0,0-14.76Z" style="fill:#002466"/><path d="M337.27,389.27s-1.46,11.37-1.92,13.26a26.87,26.87,0,0,0-.76,2.93c0,.71.17,5.9,0,8s-.37,3.85-.37,3.85a12.94,12.94,0,0,1-2.64,0,13.16,13.16,0,0,0,0-2.51c-.17-.63-.13-.8,0-1.05a1.66,1.66,0,0,0-.11-1,40.82,40.82,0,0,1-.6-6.41,82.19,82.19,0,0,1,.53-17.45Z" style="fill:#002466"/><path d="M338,418.11s-.17,2.51.5,2.76a9.58,9.58,0,0,0,3.14,1c1.13,0,2.26,0,2.18-.63s-4-3.48-4-3.48Z" style="fill:#0c0f10"/><path d="M334,416.85a8.09,8.09,0,0,1,0,2.64c-.28.63-1.7.75-2.87,1.21s-2.81.93-2.52,0,3.69-3.85,3.69-3.85Z" style="fill:#0c0f10"/><path d="M332.71,370.09c-1.64.67-2.24,3.48-2.8,5.3a24.35,24.35,0,0,0-.75,2.94s.1.21,1.22.26a24.38,24.38,0,0,1,3.07.43Z" style="fill:#fff"/><rect x="334.3" y="372.19" width="4.47" height="2.67" rx="0.64" transform="translate(-91.57 637.15) rotate(-79.61)" style="fill:#002466"/><path d="M337.74,359.53a1.12,1.12,0,0,1,1.23-.24c.81.27,2.47.58,2.74,1.87s1.42,3.34,1,3.68-2.12.45-2.42-.51-1.37-2.74-2-2.78a1.53,1.53,0,0,0-1.59.43,3.58,3.58,0,0,0-.54,2.32l-1-.55s-.21-2.59.45-3.43A2.4,2.4,0,0,1,337.74,359.53Z" style="fill:#1e3244"/><path d="M336.35,363.75s.07-.47-.29-.57-1.08,0-1,1,.51,1,.51,1a.54.54,0,0,0,.54-.41A8,8,0,0,0,336.35,363.75Z" style="fill:#f9c5a5"/><path d="M334,377.19c.18-.35.54-.37.86-.6a8.4,8.4,0,0,0,.85-.73l.62-.07a2.53,2.53,0,0,0,.82.07c.32-.06-.31-.41-.49-.45l-.86-.1a6.23,6.23,0,0,1,1.4-.47c.51-.12.5-.42.3-.46a12.31,12.31,0,0,0-1.73.34,6.65,6.65,0,0,0,.83-.35c.14-.1,1.16-.41,1.12-.56s-.51-.05-.75,0-1.32.38-1.32.38a2.61,2.61,0,0,1,.43-.31,4.6,4.6,0,0,0,1.1-.57c.2-.25-.25-.19-.59-.11a7.28,7.28,0,0,0-2,.8,15.79,15.79,0,0,0-1.56,1.82l-1.2,1.09c-.61.63-3.08,2.11-2.64,3.55S332,381,334,377.19Z" style="fill:#f9c5a5"/><path d="M404.35,398.31c3.5-.37,7.94,1,8,6.93s-.88,20.63-12.24,20.71-12.17-.09-15.41-3.06-4.52-11.26-.6-11.57A70.11,70.11,0,0,0,394.86,409S396,399.18,404.35,398.31Z" style="fill:#33cbac"/><path d="M398,392.9a4.12,4.12,0,0,0-.21,2.81c.46,1.54,1,3.13,1.48,3.26s1.77-.61,2.29-1,.48-.88.55-1.5.77-2-.44-3S398.74,392,398,392.9Z" style="fill:#f9c5a5"/><path d="M402,395.71a21.62,21.62,0,0,1,1.69,2.44,9.56,9.56,0,0,1-2.39.84c-.91.1-1.06-1-1.06-1Z" style="fill:#f9c5a5"/><path d="M403.69,397.63c-.35-.05-.95.68-1.86,1.08s-2,.19-2.2.62-4.91,7.82-5.91,9.06-1.3,1.58-1.3,1.58,3.94.57,5.64.75,2.81,3.82,2.81,3.82a65,65,0,0,0,4.07-5.33c.63-1.21,1.27-8.46,1.27-8.46Z" style="fill:#6875b4"/><path d="M399.65,400a11.2,11.2,0,0,0-3.19,1.81,18.47,18.47,0,0,0-2.63,4.15,7.06,7.06,0,0,0-2.41-.33,1.28,1.28,0,0,0-1.14.82l1.5,2.7h2.5l6-7.56Z" style="fill:#6875b4"/><path d="M400.51,411.18l1.28,2.09a4.55,4.55,0,0,1-1.81,2c-1.33.78-2.06,1.5-3.92,1.32s-4.73-.59-4.73-.59.55.45.36.86-.36.32-.36.32a17.86,17.86,0,0,1-.64,5.09,27,27,0,0,1-1.81,4.5,2.71,2.71,0,0,1-1.69,0,3.21,3.21,0,0,1-1.22-.91s.91-12.4,1.77-13.81,1-2.14,4.05-1.92a40.38,40.38,0,0,0,5.82,0Z" style="fill:#1e3244"/><path d="M390.92,409.15s-7.55-.34-8.82-.29a3.73,3.73,0,0,0-2.82,1.5c-.45.68-.13,1.18,0,2.77s1.91,11.09,1.91,11.09a4.31,4.31,0,0,0,3-.22l-.4-10a48.2,48.2,0,0,0,5.86,1.36Z" style="fill:#1e3244"/><path d="M381.6,424s-2.13,1.81-2.77,2.4-.86,1.41-.41,1.73,1.86.05,3.55-.32,2.54-.53,2.72-.95-.91-3.41-.91-3.41Z" style="fill:#e8e7e7"/><path d="M388.88,426.72a11.19,11.19,0,0,1,0,2.73A21.66,21.66,0,0,1,385,432c-.56.22-2.15,0-1.88-1.5s3.28-5,3.28-5Z" style="fill:#e8e7e7"/><path d="M398.71,390.78c-.59.21-.79.53-1.32.5s-.94,0-.92.35.15.38.15.38a4.64,4.64,0,0,0-.65,1c-.19.44-.06.61.25.68a1.84,1.84,0,0,0,1.07.27,1,1,0,0,0,.66-.39,5.24,5.24,0,0,0,1.12.09c.32,0,.32-.39.35-.48s.07.27.27.41.86.44.93.62.1.39.36.22.29-.09.36.13.32.68.32.68L403,397a10.52,10.52,0,0,0,1.29-1.89,7.81,7.81,0,0,0,.07-2.41,3.77,3.77,0,0,0-1.18-2.18,4.22,4.22,0,0,0-2.15-.43c-.12,0-.44-.27-.77-.18" style="fill:#1e3244"/><path d="M401.67,395.06s0-.37.27-.42.83.12.65.88-.48.77-.48.77a.4.4,0,0,1-.38-.36A6.36,6.36,0,0,1,401.67,395.06Z" style="fill:#f9c5a5"/><path d="M391.18,406.45a1.35,1.35,0,0,1,.79,1.27l-2.91-.33s-.55-.1-.23-.3.77-.16,1.07-.3a2.82,2.82,0,0,0-.71-.09c-.4,0-1.89.13-1.89.13a2.14,2.14,0,0,1,1-.71A20.25,20.25,0,0,1,391.18,406.45Z" style="fill:#f9c5a5"/><path d="M396.41,409.17H391l-.8-4.78a.79.79,0,0,0-.77-.61h-6.66a.71.71,0,0,0-.72.71.68.68,0,0,0,0,.19l.92,5h0l.07.39,8.1.2h0l5.25-.51Z" style="fill:#bdbdbc"/><path d="M403.72,398.06a22.68,22.68,0,0,1,3.56,2.75c.91,1.05-.54,5.53-1.3,7.3s-6.52,2.68-7.64,2.48-3.22.08-2.64-1.46.79-2,2.37-2.21,1.81-.43,1.81-.43.37-.68,1-.65h2l-.11-2.17Z" style="fill:#6875b4"/><path d="M396.71,408.82l.9,1.67s-2.31-.09-3-.21-2.13-.06-2.58-.5-1.6-.63-.88-.91,2.06-.71,2.91-.25,1.24.3,1.24.3Z" style="fill:#f9c5a5"/><path d="M404.15,430.38a7.61,7.61,0,0,1-.09,2,1.86,1.86,0,0,0-.12.93,25.48,25.48,0,0,1,3.26-.54c1.09-.05,1.76.67,1.21,1.09s-5.49,1.44-7.46.92S404.15,430.38,404.15,430.38Z" style="fill:#f7e9df"/><path d="M410,425.09a8,8,0,0,1,.11,1.69,1.71,1.71,0,0,0,0,.78,14.5,14.5,0,0,1,2.15-.78c.74-.15,1.25.38.91.78s-3.59,1.75-5,1.52S410,425.09,410,425.09Z" style="fill:#e7d1c2"/><path d="M402.92,430.43s-6.11,1.66-7.94,1.62-3.71-.51-2.45.67a3.86,3.86,0,0,0,3.15,1.27,10.14,10.14,0,0,0,5.2-1.62C402.1,431.54,403.31,430.79,402.92,430.43Z" style="fill:#f7e9df"/><path d="M409.94,419.42s-.36-1.51-.47-1.86-.94,1-.7,2.16l.17.62-.44,3.07s3.64,2.87,3.7-.74a2.69,2.69,0,0,0,1.95-1.21c.6-1.07,1-1.35.51-1.84s-.86-.14-1.06-.06l-.68.28S410.69,419.46,409.94,419.42Z" style="fill:#f7e9df"/><path d="M410.67,420.39s.66-2.11.78-2.38.74.75.74,1.29a4.3,4.3,0,0,1-.47,1.43S410.89,420.77,410.67,420.39Z" style="fill:#e7d1c2"/><path d="M414.61,419.35c-.08,0-.21.26,0,.34s.54,0,.43-.13A1,1,0,0,0,414.61,419.35Z" style="fill:#707070"/><path d="M412.17,422.41c-.56,2.2.38,2.55.3,3.42-.25,2.35-1.46,4.75-3.17,5.67-2.28,1.23-5.29,2.85-7.45,2.35s-4-1.1-3.19-3.53,2.82-3.13,7.1-4.24l2.77-2.86S412.69,420.43,412.17,422.41Z" style="fill:#f7e9df"/><path d="M412.44,425.52a19.53,19.53,0,0,1,.26,2.75,1.71,1.71,0,0,0,0,.78,14.5,14.5,0,0,1,2.15-.78c.74-.15,1.25.38.91.78s-3.59,1.75-5,1.52S412.44,425.52,412.44,425.52Z" style="fill:#f7e9df"/><path d="M578.26,398.31c-.28-1.83-.58-1.52-.9-3.06-.23-1.08.92-.36.39-3.14-.36-1.95-1.57-2.2-1.53-4.41,0-1.5-.78-4.57-3.84-4.83a3.89,3.89,0,0,0-4,2.12,5.27,5.27,0,0,0-.71,4.19c.56.9-.48,1.24-.82,2.62s.56.9-1,2.66-.33,3.23,1.82,5.69,3.34,2.08,5.85,2.1S578.6,400.59,578.26,398.31Z" style="fill:#905d45"/><path d="M573.53,391.47a9.12,9.12,0,0,1-.08-1.73c-2.33-.4-2.3.4-2.29,1.72a2.32,2.32,0,0,1,0,.46A6,6,0,0,0,573.53,391.47Z" style="fill:#f8c6a3"/><path d="M566.66,431.56c2,0,5.31-.54,5.65-2.24s-3.26-2.71-5.65-2.57" style="fill:#829ea3"/><path d="M566.66,431.56c-2,0-5.31-.54-5.65-2.24s3.26-2.71,5.65-2.57" style="fill:#829ea3"/><rect x="566.02" y="412.79" width="1.28" height="15.11" style="fill:#829ea3"/><path d="M568.12,410.47a21,21,0,0,0-5-.28c-2.89.16-3.73.76-3.73.76" style="fill:none;stroke:#fff;stroke-miterlimit:10;stroke-width:0.824799716472626px"/><path d="M571.09,383.69a2.8,2.8,0,0,1,3.5,2.74c.07,1.92-.87,4.25-2.81,4.53-1.65.24-3.06-.83-3.06-3.5C568.72,384.54,570.19,383.82,571.09,383.69Z" style="fill:#ffd3b6"/><path d="M572.75,384.79a13.38,13.38,0,0,1,1.13,3.47,2.85,2.85,0,0,0,.79,1.87l1.5-2.45-.57-2.57Z" style="fill:#905d45"/><path d="M567.29,394c-.77.46-4.73,3.6-6.1,4.61s-3.74,1.81-5.94,2.91.53,1.82,3.89.58a40.84,40.84,0,0,0,7.66-4.32s1.67-1.13,1.58-2.09S567.92,393.59,567.29,394Z" style="fill:#ffd3b6"/><path d="M574.35,405.34c-.77-.8-2.89-1.09-4.33-1.23a10.55,10.55,0,0,0-4,0c-.84.36-1.32,1.59-2.82,2.63s-2.39.52-3.35,2-1.28,2.71-1.14,3.17.7,1.94,4,2.4a38.29,38.29,0,0,0,8.15.12c1-.09,2.15-.28,2.31-.86S575.24,406.27,574.35,405.34Z" style="fill:#e35764"/><path d="M568.31,404.71c1.76.67,3.75,1.68,3.7,2.56s-.11,3.39-2.22,4.28-10.11-6-10.11-6,5.1.77,6.34-.59C566.76,404.11,568.31,404.71,568.31,404.71Z" style="fill:#1e3244"/><path d="M575.61,394.55c-.4-1.28-1.08-1.32-1.68-2a2.16,2.16,0,0,1-.4-1.09h0a5.84,5.84,0,0,1-2.41.45c-.17.91-.91,1-1.92,1.23a8,8,0,0,0-2.33,1.1.34.34,0,0,0-.14.39l.38,1.12a5.21,5.21,0,0,0-1.48,2.24c-.48,1.44,1,2,1,2.85s-2,4.6-2,4.6,2.64.45,4.46.92a15.19,15.19,0,0,1,2.86,1.09c.28-1,.21-2,.53-3.29a43.93,43.93,0,0,1,2.76-6.13A7.45,7.45,0,0,0,575.61,394.55Z" style="fill:#1e3244"/><path d="M562.64,411c-2.7-.37-11.19-1.36-11.22-3.7s5.69-2,9.12-1.58,4.63-.13,6,1.55a2.21,2.21,0,0,1-.47,3.54A7.19,7.19,0,0,1,562.64,411Z" style="fill:#f4f5f8"/><path d="M565.41,411.56c-2.95-.54-12.3-1.28-12.2-3.76s6.37-1.83,10.12-1.18,5.1.11,6.53,2,.67,2.53-.23,3S566.33,411.73,565.41,411.56Z" style="fill:#f4f5f8"/><path d="M571.7,384.53a22.09,22.09,0,0,1,1.82,3.12c.33.93,1,.54,1.44,0s.85-2.57-.35-3.26a7.07,7.07,0,0,0-2.63-1.13c-.74-.07-2.7.71-3,1.27a10.37,10.37,0,0,0-1.27,3c-.07,1,.29,1.14.29,1.14l.57-2.15s0-.22.33-.46A3.08,3.08,0,0,1,571.7,384.53Z" style="fill:#905d45"/><path d="M573.26,387.34s0-.58.45-.63,1.26.27.93,1.42-.8,1.13-.8,1.13a.62.62,0,0,1-.57-.58A8.57,8.57,0,0,1,573.26,387.34Z" style="fill:#ffd3b6"/><path d="M562,391c-.07-.12-.75-.62-.82-.51a4,4,0,0,0,0,1.47l.82.1Z" style="fill:#d7d3cf"/><path d="M561.88,391.4a6.11,6.11,0,0,1,0-1.28c.1-.36,1.14.66,1.33,1.28a15.7,15.7,0,0,0,1.37,1.68,5.06,5.06,0,0,1,1.52,1.88,10.34,10.34,0,0,0,.36,1.07,3.77,3.77,0,0,1,.86,1.16,4.63,4.63,0,0,1,.51,2,7.75,7.75,0,0,1,.61,3.71,2.18,2.18,0,0,1-1.52,1.82s-.31.61-.61.61a.55.55,0,0,1-.46-.3s.05.46-.25.3-.46-.81-.16-1a3.45,3.45,0,0,0,.56-.45s.05-.87-.56-1a.82.82,0,0,0-.86.31l-.31,1.11a1.46,1.46,0,0,1,0,.72c-.1.3-.45.47-.55.33s-.36.18-.56,0c0,0-.82,0-.61-.38a1.23,1.23,0,0,1,.61-.56s.61-3,.35-3.81a9.58,9.58,0,0,0-.91,1.37c-.31.61-.45,2.85-.76,3a1.9,1.9,0,0,1-1.58,0c-.41-.31.15-1,.71-.92,0,0,.36-3,.61-4.11a5.48,5.48,0,0,1,0-4.88l-.35-.61a6.44,6.44,0,0,1-.87.1c-.3,0-.86-.71-.91-1.06s.51-.66.51-.66.15-1.07.51-1.22A7.34,7.34,0,0,1,561.88,391.4Z" style="fill:#e9e5e3"/><path d="M560.92,403.5c-.48-.26-1.12-.94-.87-1.41a2.62,2.62,0,0,1,.35-.61,1.72,1.72,0,0,1,2.32.79h0c.46,1-1,1.21-1,1.21A1.32,1.32,0,0,1,560.92,403.5Z" style="fill:#ffd3b6"/><path d="M556,418.68c-.08-2.52.56-5-.28-7.56-1-3.14-2-6.43-4.17-5.89-1.3.32-.64,3.29-.1,5.64.39,1.66,1.48,5.54,2.17,8.2A6.87,6.87,0,0,0,556,418.68Z" style="fill:#f4f5f8"/><path d="M563.88,419.44l-.06-.09c-2-2.72-2.11-6.15-4.44-8.72s-4.7-5.3-6.5-3.86c-1.09.88.81,3.45,2.34,5.47,1.36,1.82,5.33,6.55,6.79,8.49A3.1,3.1,0,0,0,563.88,419.44Z" style="fill:#f4f5f8"/><path d="M568.42,405.28h-7.69l-1.13-6.77a1.16,1.16,0,0,0-1.1-.87h-9.43a1,1,0,0,0-1,1,1.09,1.09,0,0,0,0,.26L549.4,406h0l.1.55,11.49.27h0l7.43-.72Z" style="fill:#c8c8c8"/><path d="M572.59,397.45c.6-.49,2.12-.5,2.34.16s-1.9,6.58-3.71,7.74-4.8.25-6.71-.46-3.14-.88-3.71-1.5.32-1.15,2.25-.93,5.25,1,6.11.81S571.72,398.15,572.59,397.45Z" style="fill:#ffd3b6"/><path d="M556.16,420.4a9,9,0,0,1-.19-1.72,6.91,6.91,0,0,1-2.38.39c.29,1.09.51,2,.58,2.43a12.06,12.06,0,0,1,.35,3.33,6.31,6.31,0,0,1-.72,2.82c-.3.66-.12,1.55.72,1.57s1.06-2.21,1.61-3.05.89-.09,1.1-1.54S556.8,423.53,556.16,420.4Z" style="fill:#ffd3b6"/><path d="M566.66,423c-.42-1.46-.87-.9-2.77-3.52a3.15,3.15,0,0,1-1.88,1.29c.16.22.3.41.39.55a4.15,4.15,0,0,1,1,3.12c0,1.49-.64,3.29-.64,4.05s.4,1.05,1.2.7,2.13-3.18,2.29-4.23S567.08,424.44,566.66,423Z" style="fill:#ffd3b6"/><path d="M566.18,422a2.25,2.25,0,0,1,.62.84,17.23,17.23,0,0,0,.89,1.49l-.39.7s-.65-.59-.89-.46-.33,1.5-.83,2.76-1.68,2.41-2.46,2.12-.22-1.67,0-2.85c0,0-.13,1.07.46.73S565.42,425.13,566.18,422Z" style="fill:#1e3244"/><path d="M557,422.77s.41.08.72.82a16.73,16.73,0,0,0,.78,1.52l-.56.65-.44-.42s-.39.17-.75,1.48a5.44,5.44,0,0,1-2.3,2.87c-.63.3-1.27.23-1.07-.63a14.29,14.29,0,0,1,.4-1.46s0,1.18,1,0S557,422.77,557,422.77Z" style="fill:#1e3244"/><path d="M453.54,404.39s3.14.32,3.49,1.27-1.28,13.59-1.28,13.59l-1.16,1.21-1.7-6.94Z" style="fill:#2e2f2f"/><path d="M454.92,434a12.71,12.71,0,0,1,.06,2c-.08.52-.64.85-1.66,1.06s-1.84,1-3,.69-.85-1.23,0-1.84a12.53,12.53,0,0,0,2.85-2.33Z" style="fill:#002466"/><path d="M460.11,433.63a19.23,19.23,0,0,0-.17,4.22c.15,1.71,2.44,1.85,2.72.65a9.78,9.78,0,0,0,.12-3.81c-.32-2-.84-2.23-.84-2.23Z" style="fill:#002466"/><path d="M456,414c0,1.88-.07,10.26-.28,13.47s-.14,7-.14,7c-.91.31-3.55-.34-3.55-.34s0-1.64.16-4.68-.16-11.08-.11-15.64c0-3.27.19-8.1,1-10l3.32.33Z" style="fill:#2e2f2f"/><path d="M456.4,409s1.71,9.32,2,12.3.55,11,.86,13.13a5.37,5.37,0,0,0,4-.34s-.24-6.15-.76-9.73c-.59-3.81-.17-4-.24-6.1-.11-2.92.05-7.35-.34-11.16s-1-4.3-1-4.3l-4.4,1.5Z" style="fill:#2e2f2f"/><path d="M459.16,407.61a36.58,36.58,0,0,1-4.56-.16,6.6,6.6,0,0,1-2.36-.72s.63-3.3.81-5.5a40.59,40.59,0,0,0-.1-6.14c-.11-2-.51-2.82.13-3.63s2.47-1.34,4.67-1.29,4.4.73,5,2,0,4.5-.95,6.94-.4,2.43-.15,4.48.38,3.11.38,3.11A4.1,4.1,0,0,1,459.16,407.61Z" style="fill:#fff"/><path d="M463.35,397.52s.75,2.66.29,4c-.27.78-1.72,1-2.51-.54S463.35,397.52,463.35,397.52Z" style="fill:#f9c5a5"/><path d="M462.84,392.32s.83,2.62,1.47,5.55a5.74,5.74,0,0,1-3.82,1.24l-.68-3.3S461,390.93,462.84,392.32Z" style="fill:#fff"/><path d="M458.8,387.93a4.76,4.76,0,0,0,.08,2.26l.62.16s-.9,1.27-2,1.19-1.54-.11-1.91-.84,0-.09.5-.79a3,3,0,0,0,.28-1.9Z" style="fill:#f9c5a5"/><path d="M454.4,386c.29,2.75,1.84,3.71,3.49,3.29,1.94-.49,2.64-3,2.36-5a2.89,2.89,0,0,0-3.86-2.47C455.49,382.12,454.09,383,454.4,386Z" style="fill:#f9c5a5"/><path d="M451.74,395.44a29.17,29.17,0,0,0-1.92,4.13c-.58,2.43.9,2.06,1.73,1.36s2.52-3.66,2-4.72Z" style="fill:#f9c5a5"/><path d="M454.39,390.63c-1.45.1-2.3,2.52-2.89,3.55a22.26,22.26,0,0,0-1.09,2.32,1.87,1.87,0,0,0,1.31,1c1.07.31,3.12-1.27,3.12-1.27a28.35,28.35,0,0,0,0-4.41A8.89,8.89,0,0,0,454.39,390.63Z" style="fill:#fff"/><path d="M458.49,396a8.19,8.19,0,0,0-2.4-.71,4.51,4.51,0,0,0-2.47.09c-.73.23-.79.73-.3.73s1.64-.25,1.85-.26c0,0-.28.07-.23.57s.32.64.75.84a1.11,1.11,0,0,0,1.06,0s.67.06,1.23.09a48,48,0,0,0,3.3,4.09c1.61,1.55,3.6.25,1.31-2.13C459.93,396.5,458.49,396,458.49,396Z" style="fill:#f9c5a5"/><path d="M452.47,398.71l1.66.48c.33.1.65-.21.63-.63l-.11-3.22a.63.63,0,0,0-.4-.59l-1.66-.49c-.33-.09-.65.22-.63.63l.11,3.23A.63.63,0,0,0,452.47,398.71Z" style="fill:#2a3c68"/><path d="M452.36,397.82a10.14,10.14,0,0,0,1.46-.1c.77-.1,1.23-.4,1.09.22a5.59,5.59,0,0,0,0,.59c.05.42.23.7-.41,1.09s-1.36,0-1.72.32-1.84,2.59-2.65,1.87-.3-1.49,1.29-3.11c.53-.54.2-.73.57-1.32Z" style="fill:#f9c5a5"/><path d="M456.45,384.62c-1.64-.1-2.17-.08-2.17-.08a5.18,5.18,0,0,1,.59-2.53c.69-1.35,5.33-2.53,6.29,1.4s-1.8,4.8-1.8,4.8l.06-3.34S458.16,384.73,456.45,384.62Z" style="fill:#2e2f2f"/><path d="M459.32,386s.08-.44.44-.42,1,.35.57,1.2-.8.78-.8.78a.49.49,0,0,1-.38-.52A6.1,6.1,0,0,1,459.32,386Z" style="fill:#f9c5a5"/><path d="M460.83,379.93c-.34-1.52-2.66-1.51-3.22-.62s-.67,3.14,1,3.49S461.17,381.45,460.83,379.93Z" style="fill:#2e2f2f"/><path d="M330.05,140.07l0-6.92h26.4l0,6.92Z" style="fill:#1e3244"/><path d="M332.38,150.51l0-6.92h21.71l-.05,6.92Z" style="fill:#1e3244"/><path d="M343.53,89.74c-11.95,0-21.38,7.74-21.86,18.62-.29,7.42,4,13.85,6.63,20.7H358c2.75-6.83,7.13-13.32,7-20.72C364.75,97.45,355.47,89.7,343.53,89.74Z" style="fill:#ffbf2e"/><path d="M415.5,106.28H404.67a1,1,0,0,1-1-1V97.19a1,1,0,0,1,1-1h34a1,1,0,0,1,1,.94v8.14a1,1,0,0,1-.94,1H427.89v43.29a1,1,0,0,1-1,1H416.46a1,1,0,0,1-1-1h0Z" style="fill:#1e3244"/><path d="M479.23,95.69H489a1,1,0,0,1,1,1v9a1,1,0,0,1-1,.95h-9.77a1,1,0,0,1-1-.95v-9A1,1,0,0,1,479.23,95.69Zm0,15H489a1,1,0,0,1,1,.94h0v37.92a1,1,0,0,1-1,.95h-9.77a1,1,0,0,1-1-.95v-37.9a.94.94,0,0,1,1-.95h0Z" style="fill:#1e3244"/><path d="M530.58,107.27a1,1,0,0,1,.95-1H539a1.16,1.16,0,0,1,.88.68l.79,1.61a12.05,12.05,0,0,1,8.72-3.12c9.09,0,12.84,4.87,12.84,16.72V129c0,12.92-3.73,17.94-13.37,17.94a14.12,14.12,0,0,1-6.57-1.52v16.84a1,1,0,0,1-1,1h-9.79a1,1,0,0,1-1-1h0Zm20,14.93c0-5.09-1.14-7.15-4-7.15-3,0-4.28,2.06-4.28,6.77v8.84c0,4.71,1.32,6.77,4.2,6.77s4-2.28,4-8.14Z" style="fill:#1e3244"/><path d="M618.32,129.84a18,18,0,0,0-7.31-5.49,40.26,40.26,0,0,1-6.1-3.2,4.46,4.46,0,0,1-1.72-1.93,10.09,10.09,0,0,1-.29-2.84,3.31,3.31,0,0,1,.55-2.07,2.06,2.06,0,0,1,1.65-.66c1.13,0,1.85.33,2.17,1a7.65,7.65,0,0,1,.3,2.12c0,.72,0,1.8,0,2.41a1.56,1.56,0,0,0,1.66,1.43h8.43a1.58,1.58,0,0,0,1.65-1.5h0c0-.67,0-1.8-.07-2.52a26.14,26.14,0,0,0-.37-3.32,7.76,7.76,0,0,0-2-3.55,10,10,0,0,0-4.43-2.79,25.4,25.4,0,0,0-7.94-1.1,23.49,23.49,0,0,0-8.27,1.35,8.55,8.55,0,0,0-4.53,4.05,14.35,14.35,0,0,0-1.18,7.37,12.12,12.12,0,0,0,1.57,6.42,14.38,14.38,0,0,0,6.63,5.94l3.24,1.64a23.2,23.2,0,0,1,4.72,2.69,6.26,6.26,0,0,1,1,4,4.1,4.1,0,0,1-.55,2.61,2.49,2.49,0,0,1-2,.63,2.55,2.55,0,0,1-2.11-1.2,10.89,10.89,0,0,1-.39-2.66c0-.7-.06-1.86-.06-2.59a1.64,1.64,0,0,0-1.65-1.63h-9.25a1.51,1.51,0,0,0-1.65,1.31c0,.56.05,1.6.1,2.31a25.33,25.33,0,0,0,1.36,6.83,10.85,10.85,0,0,0,5.57,4.68,25.28,25.28,0,0,0,9.14,1.2,19.15,19.15,0,0,0,7.88-1.38,9.9,9.9,0,0,0,4.88-4.5,15.4,15.4,0,0,0,1.3-7.66A11.74,11.74,0,0,0,618.32,129.84Z" style="fill:#1e3244;stroke:#fff;stroke-miterlimit:10;stroke-width:0.184023498029327px"/><g style="isolation:isolate"><path d="M349.62,195.28a31.09,31.09,0,0,0,2.58-2.39c1.41-1.45,3.9-4.53,6-7.11,1.89-2.21,3.59-2.43,6.17-.25a77.21,77.21,0,0,1,6.42,6.38c2.11,2.27,5.47,5.86,7.74,8.47l-3.37,3.68c-2-2.61-4.88-6-6.73-8.15a73.07,73.07,0,0,0-5.76-6.23c-1.1-1-1.67-1-2.55.19-1.26,1.57-3.46,4.69-4.75,6.39l-2,2.92Z" style="fill:#1e3244"/><path d="M386.27,203.62a14.85,14.85,0,0,0,5.35-7.52c.89-2.71.92-8.66.92-12.46a11.46,11.46,0,0,0-.29-2.87h4.63a20.57,20.57,0,0,0-.22,2.84c0,3.71-.1,10.35-.94,13.53a18.27,18.27,0,0,1-5.61,9Zm14.57.47a11.64,11.64,0,0,0,.26-2.33V183.42a12.89,12.89,0,0,0-.26-2.71h4.69a16.1,16.1,0,0,0-.22,2.74v16.46a20,20,0,0,0,7.78-6.64l2.42,3.46a34.49,34.49,0,0,1-10.67,8.59,8.56,8.56,0,0,0-1.38.94Z" style="fill:#1e3244"/><path d="M443.1,182.44a14.55,14.55,0,0,0,1.8-.12,3.69,3.69,0,0,1-.06-.6,3.76,3.76,0,1,1,3.77,3.74,1.93,1.93,0,0,1-.41,0l-.25.95c-.72,3.08-2.08,8-4.72,11.45a24.93,24.93,0,0,1-12.65,8.69l-3.43-3.75c6.26-1.48,9.79-4.18,12.34-7.4a20.23,20.23,0,0,0,3.71-8.87H428.53c-1.44,0-2.92.06-3.74.13v-4.44a34,34,0,0,0,3.74.25Zm7.31-.72a1.81,1.81,0,1,0-1.8,1.79A1.82,1.82,0,0,0,450.41,181.72Z" style="fill:#1e3244"/><path d="M475.58,195.6a27.46,27.46,0,0,0,5-6.36l-9.69,1.92v8.34c0,1.95.57,2.64,4,2.64a53.93,53.93,0,0,0,9.94-1l-.13,4.25A73.45,73.45,0,0,1,475,206c-7.18,0-8.21-1.73-8.21-5.44V192c-2.8.56-5.29,1.07-6.61,1.38l-.76-4.12c1.48-.19,4.25-.66,7.37-1.23v-4.5a25.77,25.77,0,0,0-.26-3.58h4.69a26.93,26.93,0,0,0-.28,3.58v3.72c4.59-.85,9-1.77,10.42-2.08a10,10,0,0,0,2.23-.76l3,2.36c-.28.44-.75,1.14-1,1.7a44,44,0,0,1-6.51,9.16Z" style="fill:#1e3244"/><path d="M508.52,197.7A29.77,29.77,0,0,0,520,185.46l2.45,4.44a33.36,33.36,0,0,1-11.64,11.64A34,34,0,0,1,499.11,206l-2.64-4.15A32.45,32.45,0,0,0,508.52,197.7Zm0-10.19-3.21,3.3a66.08,66.08,0,0,0-7.86-6.8l2.95-3.14A65.1,65.1,0,0,1,508.52,187.51Z" style="fill:#1e3244"/><path d="M556.73,184.71a15.53,15.53,0,0,0-1,2.23,36.18,36.18,0,0,1-4.34,8.62c1.16.73,2.23,1.45,3,2l-2.86,3.68a36.54,36.54,0,0,0-2.93-2.23A30,30,0,0,1,537,206.86l-3.65-3.18a26.63,26.63,0,0,0,11.74-7.05c-2.14-1.38-4.28-2.67-5.89-3.58l2.68-3c1.66.85,3.8,2,5.91,3.3a23.13,23.13,0,0,0,3.28-6.7h-9a37.23,37.23,0,0,1-8.3,8.12l-3.4-2.61a28.85,28.85,0,0,0,10-10.45,14,14,0,0,0,1.41-3.31l4.57,1.42c-.76,1.1-1.58,2.55-2,3.21l0,0h6.45a9.6,9.6,0,0,0,2.74-.35Z" style="fill:#1e3244"/><path d="M566.74,190.21c1.13.1,3.43.19,5.06.19h16.9c1.45,0,2.86-.12,3.68-.19v4.95c-.75,0-2.36-.16-3.68-.16H571.8c-1.79,0-3.9.06-5.06.16Z" style="fill:#1e3244"/></g></g></svg>