<svg id="image" xmlns="http://www.w3.org/2000/svg" viewBox="0 0 40 40"><defs><style>.cls-1{fill:#acb3b9;}</style></defs><path class="cls-1" d="M28.74,28.31V26.83H5.63V24.1l4-4.1,0,0a.68.68,0,0,1,1,0l3.06,3.18,7.68-7.76.05-.05a.67.67,0,0,1,.95.05l4.89,4.89h1.47V18.83A3.25,3.25,0,0,1,31,15.74V11.25A2.74,2.74,0,0,0,28.28,8.5H4.72A2.74,2.74,0,0,0,2,11.25v16.5A2.74,2.74,0,0,0,4.72,30.5H28.28a2.58,2.58,0,0,0,1.11-.25A3.26,3.26,0,0,1,28.74,28.31ZM8.34,11.71v.08h0a2.82,2.82,0,1,1,0-.08Z"/><path class="cls-1" d="M38,23.57a1.26,1.26,0,0,0-1.26-1.26H33.26V18.83a1.26,1.26,0,0,0-2.52,0v3.48H27.26a1.26,1.26,0,0,0,0,2.52h3.48v3.48a1.26,1.26,0,1,0,2.52,0h0V24.83h3.48A1.25,1.25,0,0,0,38,23.57Z"/></svg>